M48
;GenerationSoftware,Autodesk,EAGLE,8.7.1*%
;CreationDate,2020-07-24T08:34:05Z*%
FMAT,2
ICI,OFF
METRIC,TZ,000.000
T7C0.610
T6C0.813
T5C0.990
T4C1.000
T3C1.118
T2C1.500
T1C3.302
%
G90
M71
T1
X102870Y51816
T2
X63230Y25630
T3
X96520Y29210
X86360Y29210
X105410Y34290
X102870Y34290
X100330Y34290
T4
X46990Y20320
X46990Y22860
X46990Y31750
X77040Y22860
X80540Y22860
X46990Y29210
X67310Y10160
X64770Y10160
X62230Y10160
X59690Y10160
X57150Y10160
X54610Y10160
X97360Y22860
X100860Y22860
X90700Y22860
X46990Y25400
X68580Y34290
X46990Y12700
X46990Y15240
X46990Y17780
X87200Y22860
X66040Y36830
X46990Y38100
X46990Y40640
X46990Y43180
X46990Y45720
X46990Y48260
X46990Y50800
X68580Y36830
X66040Y34290
T5
X70140Y60400
X67020Y53900
X62520Y53900
X67020Y60400
X62520Y60400
X59400Y53900
X54900Y53900
X59400Y60400
X77760Y60400
X82260Y53900
X77760Y53900
X82260Y60400
X54900Y60400
X74640Y53900
X70140Y53900
X74640Y60400
T6
X59690Y40640
X62230Y40640
X64770Y40640
X67310Y40640
X69850Y40640
X72390Y40640
X74930Y40640
X77470Y40640
X80010Y40640
X85090Y53340
X85090Y60960
X87630Y53340
X87630Y60960
X90170Y53340
X90170Y60960
X92710Y53340
X92710Y60960
X95250Y40640
X57150Y44450
X57150Y36830
X59690Y48260
X62230Y48260
X95250Y48260
X87630Y36830
X95250Y36830
X90170Y34290
X92710Y34290
X64770Y48260
X67310Y48260
X69850Y48260
X72390Y48260
X74930Y48260
X77470Y48260
X87630Y40640
X80010Y48260
X82550Y48260
X85090Y48260
X87630Y48260
X90170Y48260
X92710Y48260
X92710Y40640
X90170Y40640
X85090Y40640
X82550Y40640
T7
X77470Y35560
X82550Y35560
M30