G04 EAGLE Gerber X2 export*
%TF.Part,Single*%
%TF.FileFunction,Profile,NP*%
%TF.FilePolarity,Positive*%
%TF.GenerationSoftware,Autodesk,EAGLE,8.7.1*%
%TF.CreationDate,2020-07-24T08:34:06Z*%
G75*
%MOMM*%
%FSLAX34Y34*%
%LPD*%
%AMOC8*
5,1,8,0,0,1.08239X$1,22.5*%
G01*
%ADD10C,0.254000*%


D10*
X393700Y25400D02*
X1104700Y25400D01*
X1104700Y669800D01*
X393700Y669800D01*
X393700Y25400D01*
X1045210Y517620D02*
X1045139Y516541D01*
X1044998Y515469D01*
X1044787Y514409D01*
X1044508Y513365D01*
X1044160Y512341D01*
X1043746Y511343D01*
X1043268Y510373D01*
X1042728Y509437D01*
X1042127Y508538D01*
X1041469Y507681D01*
X1040757Y506868D01*
X1039992Y506104D01*
X1039179Y505391D01*
X1038322Y504733D01*
X1037423Y504132D01*
X1036487Y503592D01*
X1035517Y503114D01*
X1034519Y502700D01*
X1033495Y502352D01*
X1032451Y502073D01*
X1031391Y501862D01*
X1030319Y501721D01*
X1029240Y501650D01*
X1028160Y501650D01*
X1027081Y501721D01*
X1026009Y501862D01*
X1024949Y502073D01*
X1023905Y502352D01*
X1022881Y502700D01*
X1021883Y503114D01*
X1020913Y503592D01*
X1019977Y504132D01*
X1019078Y504733D01*
X1018221Y505391D01*
X1017408Y506104D01*
X1016644Y506868D01*
X1015931Y507681D01*
X1015273Y508538D01*
X1014672Y509437D01*
X1014132Y510373D01*
X1013654Y511343D01*
X1013240Y512341D01*
X1012892Y513365D01*
X1012613Y514409D01*
X1012402Y515469D01*
X1012261Y516541D01*
X1012190Y517620D01*
X1012190Y518700D01*
X1012261Y519779D01*
X1012402Y520851D01*
X1012613Y521911D01*
X1012892Y522955D01*
X1013240Y523979D01*
X1013654Y524977D01*
X1014132Y525947D01*
X1014672Y526883D01*
X1015273Y527782D01*
X1015931Y528639D01*
X1016644Y529452D01*
X1017408Y530217D01*
X1018221Y530929D01*
X1019078Y531587D01*
X1019977Y532188D01*
X1020913Y532728D01*
X1021883Y533206D01*
X1022881Y533620D01*
X1023905Y533968D01*
X1024949Y534247D01*
X1026009Y534458D01*
X1027081Y534599D01*
X1028160Y534670D01*
X1029240Y534670D01*
X1030319Y534599D01*
X1031391Y534458D01*
X1032451Y534247D01*
X1033495Y533968D01*
X1034519Y533620D01*
X1035517Y533206D01*
X1036487Y532728D01*
X1037423Y532188D01*
X1038322Y531587D01*
X1039179Y530929D01*
X1039992Y530217D01*
X1040757Y529452D01*
X1041469Y528639D01*
X1042127Y527782D01*
X1042728Y526883D01*
X1043268Y525947D01*
X1043746Y524977D01*
X1044160Y523979D01*
X1044508Y522955D01*
X1044787Y521911D01*
X1044998Y520851D01*
X1045139Y519779D01*
X1045210Y518700D01*
X1045210Y517620D01*
M02*
