G04 EAGLE Gerber X2 export*
%TF.Part,Single*%
%TF.FileFunction,Legend,Top,1*%
%TF.FilePolarity,Positive*%
%TF.GenerationSoftware,Autodesk,EAGLE,8.7.1*%
%TF.CreationDate,2020-07-24T08:34:06Z*%
G75*
%MOMM*%
%FSLAX34Y34*%
%LPD*%
%AMOC8*
5,1,8,0,0,1.08239X$1,22.5*%
G01*
%ADD10C,0.152400*%
%ADD11C,0.177800*%
%ADD12C,0.203200*%
%ADD13C,0.127000*%
%ADD14C,0.101600*%
%ADD15R,0.508000X0.381000*%
%ADD16C,0.050800*%
%ADD17C,0.076200*%
%ADD18C,0.200000*%
%ADD19R,0.381000X0.508000*%
%ADD20C,0.304800*%
%ADD21R,0.762000X0.635000*%
%ADD22R,1.270000X2.794000*%
%ADD23R,0.508000X2.540000*%
%ADD24R,1.905000X0.762000*%


D10*
X584200Y431800D02*
X584200Y419100D01*
X584200Y431800D02*
X584509Y431804D01*
X584818Y431815D01*
X585127Y431834D01*
X585435Y431860D01*
X585743Y431894D01*
X586049Y431935D01*
X586355Y431984D01*
X586659Y432040D01*
X586961Y432104D01*
X587262Y432175D01*
X587562Y432253D01*
X587859Y432338D01*
X588154Y432431D01*
X588447Y432531D01*
X588737Y432638D01*
X589024Y432752D01*
X589309Y432873D01*
X589591Y433001D01*
X589869Y433135D01*
X590144Y433277D01*
X590416Y433425D01*
X590683Y433580D01*
X590947Y433741D01*
X591207Y433908D01*
X591463Y434082D01*
X591715Y434262D01*
X591962Y434448D01*
X592204Y434640D01*
X592442Y434838D01*
X592675Y435041D01*
X592903Y435251D01*
X593125Y435465D01*
X593343Y435685D01*
X593555Y435911D01*
X593761Y436141D01*
X593962Y436376D01*
X594157Y436616D01*
X594346Y436861D01*
X594529Y437110D01*
X594706Y437364D01*
X594876Y437622D01*
X595041Y437884D01*
X595199Y438150D01*
X595350Y438420D01*
X595495Y438693D01*
X595633Y438970D01*
X595764Y439250D01*
X595888Y439533D01*
X596006Y439819D01*
X596116Y440108D01*
X596220Y440399D01*
X596316Y440693D01*
X596405Y440989D01*
X596487Y441288D01*
X596562Y441588D01*
X596629Y441890D01*
X596689Y442193D01*
X596741Y442498D01*
X596786Y442804D01*
X596824Y443111D01*
X596854Y443419D01*
X596876Y443727D01*
X596892Y444036D01*
X596899Y444345D01*
X596899Y444655D01*
X596892Y444964D01*
X596876Y445273D01*
X596854Y445581D01*
X596824Y445889D01*
X596786Y446196D01*
X596741Y446502D01*
X596689Y446807D01*
X596629Y447110D01*
X596562Y447412D01*
X596487Y447712D01*
X596405Y448011D01*
X596316Y448307D01*
X596220Y448601D01*
X596116Y448892D01*
X596006Y449181D01*
X595888Y449467D01*
X595764Y449750D01*
X595633Y450030D01*
X595495Y450307D01*
X595350Y450580D01*
X595199Y450850D01*
X595041Y451116D01*
X594876Y451378D01*
X594706Y451636D01*
X594529Y451890D01*
X594346Y452139D01*
X594157Y452384D01*
X593962Y452624D01*
X593761Y452859D01*
X593555Y453089D01*
X593343Y453315D01*
X593125Y453535D01*
X592903Y453749D01*
X592675Y453959D01*
X592442Y454162D01*
X592204Y454360D01*
X591962Y454552D01*
X591715Y454738D01*
X591463Y454918D01*
X591207Y455092D01*
X590947Y455259D01*
X590683Y455420D01*
X590416Y455575D01*
X590144Y455723D01*
X589869Y455865D01*
X589591Y455999D01*
X589309Y456127D01*
X589024Y456248D01*
X588737Y456362D01*
X588447Y456469D01*
X588154Y456569D01*
X587859Y456662D01*
X587562Y456747D01*
X587262Y456825D01*
X586961Y456896D01*
X586659Y456960D01*
X586355Y457016D01*
X586049Y457065D01*
X585743Y457106D01*
X585435Y457140D01*
X585127Y457166D01*
X584818Y457185D01*
X584509Y457196D01*
X584200Y457200D01*
X939800Y469900D02*
X939800Y419100D01*
X584200Y457200D02*
X584200Y469900D01*
X939800Y469900D01*
X939800Y419100D02*
X585470Y419100D01*
D11*
X582041Y421767D02*
X566039Y421767D01*
X582041Y419989D02*
X582041Y423545D01*
X566039Y423545D02*
X566039Y419989D01*
X582041Y433339D02*
X582041Y436895D01*
X582041Y433339D02*
X582039Y433223D01*
X582033Y433106D01*
X582024Y432990D01*
X582011Y432875D01*
X581994Y432760D01*
X581973Y432645D01*
X581948Y432532D01*
X581920Y432419D01*
X581888Y432307D01*
X581852Y432196D01*
X581813Y432086D01*
X581770Y431978D01*
X581724Y431871D01*
X581674Y431766D01*
X581621Y431663D01*
X581565Y431561D01*
X581505Y431461D01*
X581442Y431363D01*
X581375Y431268D01*
X581306Y431174D01*
X581234Y431083D01*
X581159Y430994D01*
X581080Y430908D01*
X580999Y430825D01*
X580916Y430744D01*
X580830Y430665D01*
X580741Y430590D01*
X580650Y430518D01*
X580556Y430449D01*
X580461Y430382D01*
X580363Y430319D01*
X580263Y430259D01*
X580161Y430203D01*
X580058Y430150D01*
X579953Y430100D01*
X579846Y430054D01*
X579738Y430011D01*
X579628Y429972D01*
X579517Y429936D01*
X579405Y429904D01*
X579292Y429876D01*
X579179Y429851D01*
X579064Y429830D01*
X578949Y429813D01*
X578834Y429800D01*
X578718Y429791D01*
X578601Y429785D01*
X578485Y429783D01*
X569595Y429783D01*
X569479Y429785D01*
X569362Y429791D01*
X569246Y429800D01*
X569131Y429813D01*
X569016Y429830D01*
X568901Y429851D01*
X568788Y429876D01*
X568675Y429904D01*
X568563Y429936D01*
X568452Y429972D01*
X568342Y430011D01*
X568234Y430054D01*
X568127Y430100D01*
X568022Y430150D01*
X567919Y430203D01*
X567817Y430259D01*
X567717Y430319D01*
X567619Y430382D01*
X567524Y430449D01*
X567430Y430518D01*
X567339Y430590D01*
X567250Y430665D01*
X567164Y430744D01*
X567081Y430825D01*
X567000Y430908D01*
X566921Y430994D01*
X566846Y431083D01*
X566774Y431174D01*
X566705Y431268D01*
X566638Y431363D01*
X566575Y431461D01*
X566515Y431561D01*
X566459Y431663D01*
X566406Y431766D01*
X566356Y431871D01*
X566310Y431978D01*
X566267Y432086D01*
X566228Y432196D01*
X566192Y432307D01*
X566160Y432419D01*
X566132Y432532D01*
X566107Y432645D01*
X566086Y432760D01*
X566069Y432875D01*
X566056Y432990D01*
X566047Y433106D01*
X566041Y433223D01*
X566039Y433339D01*
X566039Y436895D01*
X566039Y447743D02*
X566041Y447869D01*
X566047Y447994D01*
X566057Y448120D01*
X566071Y448244D01*
X566088Y448369D01*
X566110Y448493D01*
X566135Y448616D01*
X566165Y448738D01*
X566198Y448859D01*
X566235Y448979D01*
X566276Y449098D01*
X566320Y449216D01*
X566368Y449332D01*
X566420Y449447D01*
X566475Y449559D01*
X566534Y449670D01*
X566596Y449780D01*
X566662Y449887D01*
X566731Y449992D01*
X566803Y450095D01*
X566879Y450195D01*
X566957Y450293D01*
X567039Y450389D01*
X567123Y450482D01*
X567211Y450572D01*
X567301Y450660D01*
X567394Y450744D01*
X567490Y450826D01*
X567588Y450904D01*
X567688Y450980D01*
X567791Y451052D01*
X567896Y451121D01*
X568003Y451187D01*
X568113Y451249D01*
X568224Y451308D01*
X568336Y451363D01*
X568451Y451415D01*
X568567Y451463D01*
X568685Y451507D01*
X568804Y451548D01*
X568924Y451585D01*
X569045Y451618D01*
X569167Y451648D01*
X569290Y451673D01*
X569414Y451695D01*
X569539Y451712D01*
X569663Y451726D01*
X569789Y451736D01*
X569914Y451742D01*
X570040Y451744D01*
X566039Y447743D02*
X566041Y447602D01*
X566047Y447462D01*
X566056Y447322D01*
X566070Y447182D01*
X566087Y447043D01*
X566108Y446904D01*
X566133Y446765D01*
X566161Y446628D01*
X566194Y446491D01*
X566230Y446355D01*
X566270Y446220D01*
X566313Y446087D01*
X566360Y445954D01*
X566411Y445823D01*
X566465Y445694D01*
X566523Y445566D01*
X566584Y445439D01*
X566649Y445314D01*
X566717Y445192D01*
X566788Y445071D01*
X566863Y444951D01*
X566941Y444835D01*
X567022Y444720D01*
X567106Y444607D01*
X567194Y444497D01*
X567284Y444389D01*
X567377Y444284D01*
X567473Y444182D01*
X567572Y444082D01*
X567673Y443984D01*
X567777Y443890D01*
X567884Y443798D01*
X567993Y443710D01*
X568104Y443624D01*
X568218Y443542D01*
X568334Y443462D01*
X568452Y443386D01*
X568572Y443313D01*
X568694Y443244D01*
X568818Y443177D01*
X568944Y443114D01*
X569071Y443055D01*
X569200Y442999D01*
X569330Y442947D01*
X569462Y442898D01*
X569595Y442853D01*
X573152Y450409D02*
X573061Y450501D01*
X572968Y450591D01*
X572873Y450677D01*
X572775Y450761D01*
X572674Y450841D01*
X572571Y450919D01*
X572466Y450993D01*
X572358Y451064D01*
X572249Y451132D01*
X572137Y451196D01*
X572024Y451258D01*
X571909Y451315D01*
X571792Y451370D01*
X571673Y451421D01*
X571553Y451468D01*
X571432Y451511D01*
X571310Y451551D01*
X571186Y451587D01*
X571061Y451620D01*
X570936Y451649D01*
X570809Y451674D01*
X570682Y451695D01*
X570554Y451712D01*
X570426Y451726D01*
X570298Y451735D01*
X570169Y451741D01*
X570040Y451743D01*
X573151Y450410D02*
X582041Y442853D01*
X582041Y451743D01*
D12*
X458350Y521990D02*
X458350Y367010D01*
X458350Y521990D02*
X481450Y521990D01*
X481450Y367010D01*
X458350Y367010D01*
D13*
X484251Y380859D02*
X487694Y376555D01*
X484251Y380859D02*
X499745Y380859D01*
X499745Y376555D02*
X499745Y385163D01*
D14*
X471311Y361442D02*
X463522Y349758D01*
X471311Y349758D02*
X463522Y361442D01*
X475601Y358846D02*
X478846Y361442D01*
X478846Y349758D01*
X475601Y349758D02*
X482092Y349758D01*
D10*
X561340Y383540D02*
X561342Y383440D01*
X561348Y383341D01*
X561358Y383241D01*
X561371Y383143D01*
X561389Y383044D01*
X561410Y382947D01*
X561435Y382851D01*
X561464Y382755D01*
X561497Y382661D01*
X561533Y382568D01*
X561573Y382477D01*
X561617Y382387D01*
X561664Y382299D01*
X561714Y382213D01*
X561768Y382129D01*
X561825Y382047D01*
X561885Y381968D01*
X561949Y381890D01*
X562015Y381816D01*
X562084Y381744D01*
X562156Y381675D01*
X562230Y381609D01*
X562308Y381545D01*
X562387Y381485D01*
X562469Y381428D01*
X562553Y381374D01*
X562639Y381324D01*
X562727Y381277D01*
X562817Y381233D01*
X562908Y381193D01*
X563001Y381157D01*
X563095Y381124D01*
X563191Y381095D01*
X563287Y381070D01*
X563384Y381049D01*
X563483Y381031D01*
X563581Y381018D01*
X563681Y381008D01*
X563780Y381002D01*
X563880Y381000D01*
X579120Y381000D02*
X579220Y381002D01*
X579319Y381008D01*
X579419Y381018D01*
X579517Y381031D01*
X579616Y381049D01*
X579713Y381070D01*
X579809Y381095D01*
X579905Y381124D01*
X579999Y381157D01*
X580092Y381193D01*
X580183Y381233D01*
X580273Y381277D01*
X580361Y381324D01*
X580447Y381374D01*
X580531Y381428D01*
X580613Y381485D01*
X580692Y381545D01*
X580770Y381609D01*
X580844Y381675D01*
X580916Y381744D01*
X580985Y381816D01*
X581051Y381890D01*
X581115Y381968D01*
X581175Y382047D01*
X581232Y382129D01*
X581286Y382213D01*
X581336Y382299D01*
X581383Y382387D01*
X581427Y382477D01*
X581467Y382568D01*
X581503Y382661D01*
X581536Y382755D01*
X581565Y382851D01*
X581590Y382947D01*
X581611Y383044D01*
X581629Y383143D01*
X581642Y383241D01*
X581652Y383341D01*
X581658Y383440D01*
X581660Y383540D01*
X581660Y429260D02*
X581658Y429360D01*
X581652Y429459D01*
X581642Y429559D01*
X581629Y429657D01*
X581611Y429756D01*
X581590Y429853D01*
X581565Y429949D01*
X581536Y430045D01*
X581503Y430139D01*
X581467Y430232D01*
X581427Y430323D01*
X581383Y430413D01*
X581336Y430501D01*
X581286Y430587D01*
X581232Y430671D01*
X581175Y430753D01*
X581115Y430832D01*
X581051Y430910D01*
X580985Y430984D01*
X580916Y431056D01*
X580844Y431125D01*
X580770Y431191D01*
X580692Y431255D01*
X580613Y431315D01*
X580531Y431372D01*
X580447Y431426D01*
X580361Y431476D01*
X580273Y431523D01*
X580183Y431567D01*
X580092Y431607D01*
X579999Y431643D01*
X579905Y431676D01*
X579809Y431705D01*
X579713Y431730D01*
X579616Y431751D01*
X579517Y431769D01*
X579419Y431782D01*
X579319Y431792D01*
X579220Y431798D01*
X579120Y431800D01*
X563880Y431800D02*
X563780Y431798D01*
X563681Y431792D01*
X563581Y431782D01*
X563483Y431769D01*
X563384Y431751D01*
X563287Y431730D01*
X563191Y431705D01*
X563095Y431676D01*
X563001Y431643D01*
X562908Y431607D01*
X562817Y431567D01*
X562727Y431523D01*
X562639Y431476D01*
X562553Y431426D01*
X562469Y431372D01*
X562387Y431315D01*
X562308Y431255D01*
X562230Y431191D01*
X562156Y431125D01*
X562084Y431056D01*
X562015Y430984D01*
X561949Y430910D01*
X561885Y430832D01*
X561825Y430753D01*
X561768Y430671D01*
X561714Y430587D01*
X561664Y430501D01*
X561617Y430413D01*
X561573Y430323D01*
X561533Y430232D01*
X561497Y430139D01*
X561464Y430045D01*
X561435Y429949D01*
X561410Y429853D01*
X561389Y429756D01*
X561371Y429657D01*
X561358Y429559D01*
X561348Y429459D01*
X561342Y429360D01*
X561340Y429260D01*
X563880Y381000D02*
X579120Y381000D01*
X561340Y383540D02*
X561340Y387350D01*
X562610Y388620D01*
X581660Y387350D02*
X581660Y383540D01*
X581660Y387350D02*
X580390Y388620D01*
X562610Y424180D02*
X561340Y425450D01*
X562610Y424180D02*
X562610Y388620D01*
X580390Y424180D02*
X581660Y425450D01*
X580390Y424180D02*
X580390Y388620D01*
X561340Y425450D02*
X561340Y429260D01*
X581660Y429260D02*
X581660Y425450D01*
X579120Y431800D02*
X563880Y431800D01*
D13*
X557911Y381635D02*
X549275Y381635D01*
X549275Y384034D01*
X549277Y384131D01*
X549283Y384227D01*
X549292Y384323D01*
X549306Y384419D01*
X549323Y384514D01*
X549345Y384608D01*
X549370Y384701D01*
X549398Y384794D01*
X549431Y384885D01*
X549467Y384974D01*
X549507Y385062D01*
X549550Y385149D01*
X549596Y385234D01*
X549646Y385316D01*
X549700Y385397D01*
X549756Y385475D01*
X549816Y385551D01*
X549878Y385625D01*
X549944Y385696D01*
X550012Y385764D01*
X550083Y385830D01*
X550157Y385892D01*
X550233Y385952D01*
X550311Y386008D01*
X550392Y386062D01*
X550475Y386112D01*
X550559Y386158D01*
X550646Y386201D01*
X550734Y386241D01*
X550823Y386277D01*
X550914Y386310D01*
X551007Y386338D01*
X551100Y386363D01*
X551194Y386385D01*
X551289Y386402D01*
X551385Y386416D01*
X551481Y386425D01*
X551577Y386431D01*
X551674Y386433D01*
X551771Y386431D01*
X551867Y386425D01*
X551963Y386416D01*
X552059Y386402D01*
X552154Y386385D01*
X552248Y386363D01*
X552341Y386338D01*
X552434Y386310D01*
X552525Y386277D01*
X552614Y386241D01*
X552702Y386201D01*
X552789Y386158D01*
X552874Y386112D01*
X552956Y386062D01*
X553037Y386008D01*
X553115Y385952D01*
X553191Y385892D01*
X553265Y385830D01*
X553336Y385764D01*
X553404Y385696D01*
X553470Y385625D01*
X553532Y385551D01*
X553592Y385475D01*
X553648Y385397D01*
X553702Y385316D01*
X553752Y385234D01*
X553798Y385149D01*
X553841Y385062D01*
X553881Y384974D01*
X553917Y384885D01*
X553950Y384794D01*
X553978Y384701D01*
X554003Y384608D01*
X554025Y384514D01*
X554042Y384419D01*
X554056Y384323D01*
X554065Y384227D01*
X554071Y384131D01*
X554073Y384034D01*
X554073Y381635D01*
X554073Y384514D02*
X557911Y386433D01*
X550235Y390476D02*
X549275Y390476D01*
X549275Y395273D01*
X557911Y392875D01*
D15*
X571500Y433705D03*
X571500Y379095D03*
D10*
X765810Y332740D02*
X834390Y332740D01*
X834390Y378460D02*
X765810Y378460D01*
D16*
X765810Y337820D02*
X834390Y337820D01*
X834390Y373380D02*
X765810Y373380D01*
X834390Y373380D02*
X834823Y373375D01*
X835256Y373359D01*
X835688Y373333D01*
X836119Y373296D01*
X836550Y373248D01*
X836979Y373191D01*
X837406Y373122D01*
X837832Y373044D01*
X838256Y372955D01*
X838677Y372855D01*
X839096Y372746D01*
X839512Y372626D01*
X839925Y372496D01*
X840335Y372357D01*
X840742Y372207D01*
X841144Y372047D01*
X841543Y371878D01*
X841937Y371699D01*
X842327Y371510D01*
X842712Y371312D01*
X843092Y371105D01*
X843467Y370889D01*
X843836Y370663D01*
X844200Y370428D01*
X844559Y370185D01*
X844911Y369933D01*
X845257Y369673D01*
X845596Y369404D01*
X845929Y369127D01*
X846255Y368842D01*
X846574Y368549D01*
X846886Y368249D01*
X847190Y367941D01*
X847487Y367625D01*
X847776Y367303D01*
X848057Y366973D01*
X848329Y366637D01*
X848594Y366295D01*
X848850Y365945D01*
X849098Y365590D01*
X849337Y365229D01*
X849567Y364862D01*
X849788Y364490D01*
X850000Y364112D01*
X850203Y363730D01*
X850396Y363342D01*
X850580Y362950D01*
X850754Y362554D01*
X850918Y362153D01*
X851073Y361749D01*
X851218Y361341D01*
X851353Y360929D01*
X851477Y360515D01*
X851592Y360097D01*
X851696Y359677D01*
X851790Y359254D01*
X851874Y358830D01*
X851948Y358403D01*
X852011Y357974D01*
X852063Y357545D01*
X852105Y357114D01*
X852137Y356682D01*
X852158Y356249D01*
X852169Y355816D01*
X852169Y355384D01*
X852158Y354951D01*
X852137Y354518D01*
X852105Y354086D01*
X852063Y353655D01*
X852011Y353226D01*
X851948Y352797D01*
X851874Y352370D01*
X851790Y351946D01*
X851696Y351523D01*
X851592Y351103D01*
X851477Y350685D01*
X851353Y350271D01*
X851218Y349859D01*
X851073Y349451D01*
X850918Y349047D01*
X850754Y348646D01*
X850580Y348250D01*
X850396Y347858D01*
X850203Y347470D01*
X850000Y347088D01*
X849788Y346710D01*
X849567Y346338D01*
X849337Y345971D01*
X849098Y345610D01*
X848850Y345255D01*
X848594Y344905D01*
X848329Y344563D01*
X848057Y344227D01*
X847776Y343897D01*
X847487Y343575D01*
X847190Y343259D01*
X846886Y342951D01*
X846574Y342651D01*
X846255Y342358D01*
X845929Y342073D01*
X845596Y341796D01*
X845257Y341527D01*
X844911Y341267D01*
X844559Y341015D01*
X844200Y340772D01*
X843836Y340537D01*
X843467Y340311D01*
X843092Y340095D01*
X842712Y339888D01*
X842327Y339690D01*
X841937Y339501D01*
X841543Y339322D01*
X841144Y339153D01*
X840742Y338993D01*
X840335Y338843D01*
X839925Y338704D01*
X839512Y338574D01*
X839096Y338454D01*
X838677Y338345D01*
X838256Y338245D01*
X837832Y338156D01*
X837406Y338078D01*
X836979Y338009D01*
X836550Y337952D01*
X836119Y337904D01*
X835688Y337867D01*
X835256Y337841D01*
X834823Y337825D01*
X834390Y337820D01*
D10*
X834390Y332740D02*
X834947Y332747D01*
X835503Y332767D01*
X836059Y332801D01*
X836613Y332848D01*
X837167Y332909D01*
X837718Y332984D01*
X838268Y333071D01*
X838816Y333172D01*
X839360Y333287D01*
X839902Y333415D01*
X840441Y333555D01*
X840976Y333709D01*
X841507Y333876D01*
X842034Y334056D01*
X842556Y334248D01*
X843074Y334454D01*
X843586Y334671D01*
X844093Y334901D01*
X844594Y335144D01*
X845089Y335398D01*
X845578Y335665D01*
X846060Y335943D01*
X846535Y336233D01*
X847003Y336535D01*
X847464Y336848D01*
X847917Y337172D01*
X848361Y337506D01*
X848798Y337852D01*
X849226Y338208D01*
X849645Y338575D01*
X850055Y338951D01*
X850456Y339337D01*
X850847Y339733D01*
X851228Y340139D01*
X851600Y340554D01*
X851961Y340977D01*
X852312Y341409D01*
X852652Y341850D01*
X852982Y342299D01*
X853300Y342755D01*
X853607Y343220D01*
X853903Y343691D01*
X854187Y344170D01*
X854460Y344655D01*
X854720Y345147D01*
X854969Y345646D01*
X855205Y346150D01*
X855429Y346659D01*
X855641Y347174D01*
X855839Y347694D01*
X856026Y348219D01*
X856199Y348748D01*
X856359Y349281D01*
X856507Y349818D01*
X856641Y350358D01*
X856762Y350902D01*
X856870Y351448D01*
X856964Y351996D01*
X857045Y352547D01*
X857113Y353100D01*
X857167Y353654D01*
X857208Y354209D01*
X857235Y354765D01*
X857248Y355322D01*
X857248Y355878D01*
X857235Y356435D01*
X857208Y356991D01*
X857167Y357546D01*
X857113Y358100D01*
X857045Y358653D01*
X856964Y359204D01*
X856870Y359752D01*
X856762Y360298D01*
X856641Y360842D01*
X856507Y361382D01*
X856359Y361919D01*
X856199Y362452D01*
X856026Y362981D01*
X855839Y363506D01*
X855641Y364026D01*
X855429Y364541D01*
X855205Y365050D01*
X854969Y365554D01*
X854720Y366053D01*
X854460Y366545D01*
X854187Y367030D01*
X853903Y367509D01*
X853607Y367980D01*
X853300Y368445D01*
X852982Y368901D01*
X852652Y369350D01*
X852312Y369791D01*
X851961Y370223D01*
X851600Y370646D01*
X851228Y371061D01*
X850847Y371467D01*
X850456Y371863D01*
X850055Y372249D01*
X849645Y372625D01*
X849226Y372992D01*
X848798Y373348D01*
X848361Y373694D01*
X847917Y374028D01*
X847464Y374352D01*
X847003Y374665D01*
X846535Y374967D01*
X846060Y375257D01*
X845578Y375535D01*
X845089Y375802D01*
X844594Y376056D01*
X844093Y376299D01*
X843586Y376529D01*
X843074Y376746D01*
X842556Y376952D01*
X842034Y377144D01*
X841507Y377324D01*
X840976Y377491D01*
X840441Y377645D01*
X839902Y377785D01*
X839360Y377913D01*
X838816Y378028D01*
X838268Y378129D01*
X837718Y378216D01*
X837167Y378291D01*
X836613Y378352D01*
X836059Y378399D01*
X835503Y378433D01*
X834947Y378453D01*
X834390Y378460D01*
X765810Y378460D02*
X765253Y378453D01*
X764697Y378433D01*
X764141Y378399D01*
X763587Y378352D01*
X763033Y378291D01*
X762482Y378216D01*
X761932Y378129D01*
X761384Y378028D01*
X760840Y377913D01*
X760298Y377785D01*
X759759Y377645D01*
X759224Y377491D01*
X758693Y377324D01*
X758166Y377144D01*
X757644Y376952D01*
X757126Y376746D01*
X756614Y376529D01*
X756107Y376299D01*
X755606Y376056D01*
X755111Y375802D01*
X754622Y375535D01*
X754140Y375257D01*
X753665Y374967D01*
X753197Y374665D01*
X752736Y374352D01*
X752283Y374028D01*
X751839Y373694D01*
X751402Y373348D01*
X750974Y372992D01*
X750555Y372625D01*
X750145Y372249D01*
X749744Y371863D01*
X749353Y371467D01*
X748972Y371061D01*
X748600Y370646D01*
X748239Y370223D01*
X747888Y369791D01*
X747548Y369350D01*
X747218Y368901D01*
X746900Y368445D01*
X746593Y367980D01*
X746297Y367509D01*
X746013Y367030D01*
X745740Y366545D01*
X745480Y366053D01*
X745231Y365554D01*
X744995Y365050D01*
X744771Y364541D01*
X744559Y364026D01*
X744361Y363506D01*
X744174Y362981D01*
X744001Y362452D01*
X743841Y361919D01*
X743693Y361382D01*
X743559Y360842D01*
X743438Y360298D01*
X743330Y359752D01*
X743236Y359204D01*
X743155Y358653D01*
X743087Y358100D01*
X743033Y357546D01*
X742992Y356991D01*
X742965Y356435D01*
X742952Y355878D01*
X742952Y355322D01*
X742965Y354765D01*
X742992Y354209D01*
X743033Y353654D01*
X743087Y353100D01*
X743155Y352547D01*
X743236Y351996D01*
X743330Y351448D01*
X743438Y350902D01*
X743559Y350358D01*
X743693Y349818D01*
X743841Y349281D01*
X744001Y348748D01*
X744174Y348219D01*
X744361Y347694D01*
X744559Y347174D01*
X744771Y346659D01*
X744995Y346150D01*
X745231Y345646D01*
X745480Y345147D01*
X745740Y344655D01*
X746013Y344170D01*
X746297Y343691D01*
X746593Y343220D01*
X746900Y342755D01*
X747218Y342299D01*
X747548Y341850D01*
X747888Y341409D01*
X748239Y340977D01*
X748600Y340554D01*
X748972Y340139D01*
X749353Y339733D01*
X749744Y339337D01*
X750145Y338951D01*
X750555Y338575D01*
X750974Y338208D01*
X751402Y337852D01*
X751839Y337506D01*
X752283Y337172D01*
X752736Y336848D01*
X753197Y336535D01*
X753665Y336233D01*
X754140Y335943D01*
X754622Y335665D01*
X755111Y335398D01*
X755606Y335144D01*
X756107Y334901D01*
X756614Y334671D01*
X757126Y334454D01*
X757644Y334248D01*
X758166Y334056D01*
X758693Y333876D01*
X759224Y333709D01*
X759759Y333555D01*
X760298Y333415D01*
X760840Y333287D01*
X761384Y333172D01*
X761932Y333071D01*
X762482Y332984D01*
X763033Y332909D01*
X763587Y332848D01*
X764141Y332801D01*
X764697Y332767D01*
X765253Y332747D01*
X765810Y332740D01*
D16*
X765810Y337820D02*
X765377Y337825D01*
X764944Y337841D01*
X764512Y337867D01*
X764081Y337904D01*
X763650Y337952D01*
X763221Y338009D01*
X762794Y338078D01*
X762368Y338156D01*
X761944Y338245D01*
X761523Y338345D01*
X761104Y338454D01*
X760688Y338574D01*
X760275Y338704D01*
X759865Y338843D01*
X759458Y338993D01*
X759056Y339153D01*
X758657Y339322D01*
X758263Y339501D01*
X757873Y339690D01*
X757488Y339888D01*
X757108Y340095D01*
X756733Y340311D01*
X756364Y340537D01*
X756000Y340772D01*
X755641Y341015D01*
X755289Y341267D01*
X754943Y341527D01*
X754604Y341796D01*
X754271Y342073D01*
X753945Y342358D01*
X753626Y342651D01*
X753314Y342951D01*
X753010Y343259D01*
X752713Y343575D01*
X752424Y343897D01*
X752143Y344227D01*
X751871Y344563D01*
X751606Y344905D01*
X751350Y345255D01*
X751102Y345610D01*
X750863Y345971D01*
X750633Y346338D01*
X750412Y346710D01*
X750200Y347088D01*
X749997Y347470D01*
X749804Y347858D01*
X749620Y348250D01*
X749446Y348646D01*
X749282Y349047D01*
X749127Y349451D01*
X748982Y349859D01*
X748847Y350271D01*
X748723Y350685D01*
X748608Y351103D01*
X748504Y351523D01*
X748410Y351946D01*
X748326Y352370D01*
X748252Y352797D01*
X748189Y353226D01*
X748137Y353655D01*
X748095Y354086D01*
X748063Y354518D01*
X748042Y354951D01*
X748031Y355384D01*
X748031Y355816D01*
X748042Y356249D01*
X748063Y356682D01*
X748095Y357114D01*
X748137Y357545D01*
X748189Y357974D01*
X748252Y358403D01*
X748326Y358830D01*
X748410Y359254D01*
X748504Y359677D01*
X748608Y360097D01*
X748723Y360515D01*
X748847Y360929D01*
X748982Y361341D01*
X749127Y361749D01*
X749282Y362153D01*
X749446Y362554D01*
X749620Y362950D01*
X749804Y363342D01*
X749997Y363730D01*
X750200Y364112D01*
X750412Y364490D01*
X750633Y364862D01*
X750863Y365229D01*
X751102Y365590D01*
X751350Y365945D01*
X751606Y366295D01*
X751871Y366637D01*
X752143Y366973D01*
X752424Y367303D01*
X752713Y367625D01*
X753010Y367941D01*
X753314Y368249D01*
X753626Y368549D01*
X753945Y368842D01*
X754271Y369127D01*
X754604Y369404D01*
X754943Y369673D01*
X755289Y369933D01*
X755641Y370185D01*
X756000Y370428D01*
X756364Y370663D01*
X756733Y370889D01*
X757108Y371105D01*
X757488Y371312D01*
X757873Y371510D01*
X758263Y371699D01*
X758657Y371878D01*
X759056Y372047D01*
X759458Y372207D01*
X759865Y372357D01*
X760275Y372496D01*
X760688Y372626D01*
X761104Y372746D01*
X761523Y372855D01*
X761944Y372955D01*
X762368Y373044D01*
X762794Y373122D01*
X763221Y373191D01*
X763650Y373248D01*
X764081Y373296D01*
X764512Y373333D01*
X764944Y373359D01*
X765377Y373375D01*
X765810Y373380D01*
D13*
X749935Y386080D02*
X749935Y391160D01*
X749937Y391271D01*
X749943Y391381D01*
X749952Y391492D01*
X749966Y391602D01*
X749983Y391711D01*
X750004Y391820D01*
X750029Y391928D01*
X750058Y392035D01*
X750090Y392141D01*
X750126Y392246D01*
X750166Y392349D01*
X750209Y392451D01*
X750256Y392552D01*
X750307Y392651D01*
X750360Y392748D01*
X750417Y392842D01*
X750478Y392935D01*
X750541Y393026D01*
X750608Y393115D01*
X750678Y393201D01*
X750751Y393284D01*
X750826Y393366D01*
X750904Y393444D01*
X750986Y393519D01*
X751069Y393592D01*
X751155Y393662D01*
X751244Y393729D01*
X751335Y393792D01*
X751428Y393853D01*
X751523Y393910D01*
X751619Y393963D01*
X751718Y394014D01*
X751819Y394061D01*
X751921Y394104D01*
X752024Y394144D01*
X752129Y394180D01*
X752235Y394212D01*
X752342Y394241D01*
X752450Y394266D01*
X752559Y394287D01*
X752668Y394304D01*
X752778Y394318D01*
X752889Y394327D01*
X752999Y394333D01*
X753110Y394335D01*
X753221Y394333D01*
X753331Y394327D01*
X753442Y394318D01*
X753552Y394304D01*
X753661Y394287D01*
X753770Y394266D01*
X753878Y394241D01*
X753985Y394212D01*
X754091Y394180D01*
X754196Y394144D01*
X754299Y394104D01*
X754401Y394061D01*
X754502Y394014D01*
X754601Y393963D01*
X754698Y393910D01*
X754792Y393853D01*
X754885Y393792D01*
X754976Y393729D01*
X755065Y393662D01*
X755151Y393592D01*
X755234Y393519D01*
X755316Y393444D01*
X755394Y393366D01*
X755469Y393284D01*
X755542Y393201D01*
X755612Y393115D01*
X755679Y393026D01*
X755742Y392935D01*
X755803Y392842D01*
X755860Y392748D01*
X755913Y392651D01*
X755964Y392552D01*
X756011Y392451D01*
X756054Y392349D01*
X756094Y392246D01*
X756130Y392141D01*
X756162Y392035D01*
X756191Y391928D01*
X756216Y391820D01*
X756237Y391711D01*
X756254Y391602D01*
X756268Y391492D01*
X756277Y391381D01*
X756283Y391271D01*
X756285Y391160D01*
X756285Y386080D01*
X756283Y385969D01*
X756277Y385859D01*
X756268Y385748D01*
X756254Y385638D01*
X756237Y385529D01*
X756216Y385420D01*
X756191Y385312D01*
X756162Y385205D01*
X756130Y385099D01*
X756094Y384994D01*
X756054Y384891D01*
X756011Y384789D01*
X755964Y384688D01*
X755913Y384589D01*
X755860Y384492D01*
X755803Y384398D01*
X755742Y384305D01*
X755679Y384214D01*
X755612Y384125D01*
X755542Y384039D01*
X755469Y383956D01*
X755394Y383874D01*
X755316Y383796D01*
X755234Y383721D01*
X755151Y383648D01*
X755065Y383578D01*
X754976Y383511D01*
X754885Y383448D01*
X754792Y383387D01*
X754698Y383330D01*
X754601Y383277D01*
X754502Y383226D01*
X754401Y383179D01*
X754299Y383136D01*
X754196Y383096D01*
X754091Y383060D01*
X753985Y383028D01*
X753878Y382999D01*
X753770Y382974D01*
X753661Y382953D01*
X753552Y382936D01*
X753442Y382922D01*
X753331Y382913D01*
X753221Y382907D01*
X753110Y382905D01*
X752999Y382907D01*
X752889Y382913D01*
X752778Y382922D01*
X752668Y382936D01*
X752559Y382953D01*
X752450Y382974D01*
X752342Y382999D01*
X752235Y383028D01*
X752129Y383060D01*
X752024Y383096D01*
X751921Y383136D01*
X751819Y383179D01*
X751718Y383226D01*
X751619Y383277D01*
X751523Y383330D01*
X751428Y383387D01*
X751335Y383448D01*
X751244Y383511D01*
X751155Y383578D01*
X751069Y383648D01*
X750986Y383721D01*
X750904Y383796D01*
X750826Y383874D01*
X750751Y383956D01*
X750678Y384039D01*
X750608Y384125D01*
X750541Y384214D01*
X750478Y384305D01*
X750417Y384398D01*
X750360Y384493D01*
X750307Y384589D01*
X750256Y384688D01*
X750209Y384789D01*
X750166Y384891D01*
X750126Y384994D01*
X750090Y385099D01*
X750058Y385205D01*
X750029Y385312D01*
X750004Y385420D01*
X749983Y385529D01*
X749966Y385638D01*
X749952Y385748D01*
X749943Y385859D01*
X749937Y385969D01*
X749935Y386080D01*
X755015Y385445D02*
X757555Y382905D01*
X760996Y391795D02*
X764171Y394335D01*
X764171Y382905D01*
X760996Y382905D02*
X767346Y382905D01*
D12*
X458350Y267990D02*
X458350Y113010D01*
X458350Y267990D02*
X481450Y267990D01*
X481450Y113010D01*
X458350Y113010D01*
D13*
X484251Y126859D02*
X487694Y122555D01*
X484251Y126859D02*
X499745Y126859D01*
X499745Y122555D02*
X499745Y131163D01*
D14*
X471311Y107442D02*
X463522Y95758D01*
X471311Y95758D02*
X463522Y107442D01*
X479171Y107442D02*
X479278Y107440D01*
X479384Y107434D01*
X479490Y107424D01*
X479596Y107411D01*
X479702Y107393D01*
X479806Y107372D01*
X479910Y107347D01*
X480013Y107318D01*
X480114Y107286D01*
X480214Y107249D01*
X480313Y107209D01*
X480411Y107166D01*
X480507Y107119D01*
X480601Y107068D01*
X480693Y107014D01*
X480783Y106957D01*
X480871Y106897D01*
X480956Y106833D01*
X481039Y106766D01*
X481120Y106696D01*
X481198Y106624D01*
X481274Y106548D01*
X481346Y106470D01*
X481416Y106389D01*
X481483Y106306D01*
X481547Y106221D01*
X481607Y106133D01*
X481664Y106043D01*
X481718Y105951D01*
X481769Y105857D01*
X481816Y105761D01*
X481859Y105663D01*
X481899Y105564D01*
X481936Y105464D01*
X481968Y105363D01*
X481997Y105260D01*
X482022Y105156D01*
X482043Y105052D01*
X482061Y104946D01*
X482074Y104840D01*
X482084Y104734D01*
X482090Y104628D01*
X482092Y104521D01*
X479171Y107442D02*
X479050Y107440D01*
X478929Y107434D01*
X478809Y107424D01*
X478688Y107411D01*
X478569Y107393D01*
X478449Y107372D01*
X478331Y107347D01*
X478214Y107318D01*
X478097Y107285D01*
X477982Y107249D01*
X477868Y107208D01*
X477755Y107165D01*
X477643Y107117D01*
X477534Y107066D01*
X477426Y107011D01*
X477319Y106953D01*
X477215Y106892D01*
X477113Y106827D01*
X477013Y106759D01*
X476915Y106688D01*
X476819Y106614D01*
X476726Y106537D01*
X476636Y106456D01*
X476548Y106373D01*
X476463Y106287D01*
X476380Y106198D01*
X476301Y106107D01*
X476224Y106013D01*
X476151Y105917D01*
X476081Y105819D01*
X476014Y105718D01*
X475950Y105615D01*
X475890Y105510D01*
X475833Y105403D01*
X475779Y105295D01*
X475729Y105185D01*
X475683Y105073D01*
X475640Y104960D01*
X475601Y104845D01*
X481119Y102249D02*
X481198Y102326D01*
X481274Y102407D01*
X481347Y102490D01*
X481417Y102575D01*
X481484Y102663D01*
X481548Y102753D01*
X481608Y102845D01*
X481665Y102940D01*
X481719Y103036D01*
X481770Y103134D01*
X481817Y103234D01*
X481861Y103336D01*
X481901Y103439D01*
X481937Y103543D01*
X481969Y103649D01*
X481998Y103755D01*
X482023Y103863D01*
X482045Y103971D01*
X482062Y104081D01*
X482076Y104190D01*
X482085Y104300D01*
X482091Y104411D01*
X482093Y104521D01*
X481118Y102249D02*
X475601Y95758D01*
X482092Y95758D01*
D13*
X770150Y549500D02*
X770150Y594500D01*
X788600Y601500D02*
X811600Y601500D01*
X830050Y594500D02*
X830050Y548500D01*
X811600Y541550D02*
X788600Y541550D01*
D17*
X765279Y530647D02*
X765277Y530726D01*
X765271Y530805D01*
X765262Y530883D01*
X765248Y530961D01*
X765231Y531038D01*
X765210Y531114D01*
X765185Y531189D01*
X765156Y531263D01*
X765124Y531335D01*
X765089Y531406D01*
X765050Y531475D01*
X765008Y531541D01*
X764962Y531606D01*
X764914Y531668D01*
X764862Y531728D01*
X764807Y531785D01*
X764750Y531840D01*
X764690Y531892D01*
X764628Y531940D01*
X764563Y531986D01*
X764497Y532028D01*
X764428Y532067D01*
X764357Y532102D01*
X764285Y532134D01*
X764211Y532163D01*
X764136Y532188D01*
X764060Y532209D01*
X763983Y532226D01*
X763905Y532240D01*
X763827Y532249D01*
X763748Y532255D01*
X763669Y532257D01*
X765279Y530647D02*
X765277Y530535D01*
X765272Y530423D01*
X765262Y530312D01*
X765250Y530201D01*
X765233Y530090D01*
X765213Y529980D01*
X765189Y529870D01*
X765162Y529762D01*
X765131Y529654D01*
X765097Y529548D01*
X765059Y529443D01*
X765017Y529339D01*
X764973Y529236D01*
X764924Y529135D01*
X764873Y529036D01*
X764818Y528938D01*
X764761Y528842D01*
X764700Y528748D01*
X764636Y528656D01*
X764569Y528567D01*
X764499Y528479D01*
X764426Y528394D01*
X764351Y528312D01*
X764273Y528231D01*
X759643Y528432D02*
X759564Y528434D01*
X759485Y528440D01*
X759407Y528449D01*
X759329Y528463D01*
X759252Y528480D01*
X759175Y528501D01*
X759100Y528526D01*
X759026Y528555D01*
X758954Y528587D01*
X758884Y528622D01*
X758815Y528661D01*
X758748Y528704D01*
X758683Y528749D01*
X758621Y528798D01*
X758561Y528849D01*
X758504Y528904D01*
X758449Y528961D01*
X758398Y529021D01*
X758349Y529083D01*
X758304Y529148D01*
X758261Y529215D01*
X758222Y529284D01*
X758187Y529354D01*
X758155Y529426D01*
X758126Y529500D01*
X758101Y529575D01*
X758080Y529652D01*
X758063Y529729D01*
X758049Y529807D01*
X758040Y529885D01*
X758034Y529964D01*
X758032Y530043D01*
X758034Y530151D01*
X758040Y530259D01*
X758049Y530366D01*
X758063Y530473D01*
X758080Y530580D01*
X758101Y530686D01*
X758126Y530791D01*
X758155Y530895D01*
X758187Y530998D01*
X758223Y531100D01*
X758263Y531200D01*
X758306Y531299D01*
X758352Y531397D01*
X758402Y531492D01*
X758456Y531586D01*
X758513Y531678D01*
X758573Y531768D01*
X758636Y531855D01*
X761052Y529237D02*
X761012Y529172D01*
X760968Y529108D01*
X760921Y529047D01*
X760872Y528988D01*
X760819Y528931D01*
X760764Y528877D01*
X760707Y528825D01*
X760647Y528776D01*
X760585Y528730D01*
X760521Y528687D01*
X760455Y528648D01*
X760387Y528611D01*
X760317Y528577D01*
X760246Y528547D01*
X760174Y528520D01*
X760100Y528497D01*
X760025Y528477D01*
X759950Y528461D01*
X759874Y528448D01*
X759797Y528439D01*
X759720Y528434D01*
X759643Y528432D01*
X762260Y531453D02*
X762300Y531518D01*
X762344Y531582D01*
X762391Y531643D01*
X762440Y531702D01*
X762493Y531759D01*
X762548Y531813D01*
X762605Y531865D01*
X762665Y531914D01*
X762727Y531960D01*
X762791Y532003D01*
X762857Y532042D01*
X762925Y532079D01*
X762995Y532113D01*
X763066Y532143D01*
X763138Y532170D01*
X763212Y532193D01*
X763287Y532213D01*
X763362Y532229D01*
X763438Y532242D01*
X763515Y532251D01*
X763592Y532256D01*
X763669Y532258D01*
X762260Y531452D02*
X761052Y529238D01*
X758032Y534952D02*
X765280Y536563D01*
X760448Y538173D01*
X765280Y539784D01*
X758032Y541394D01*
X765280Y544329D02*
X765280Y546745D01*
X765279Y546745D02*
X765277Y546824D01*
X765271Y546903D01*
X765262Y546981D01*
X765248Y547059D01*
X765231Y547136D01*
X765210Y547212D01*
X765185Y547287D01*
X765156Y547361D01*
X765124Y547433D01*
X765089Y547504D01*
X765050Y547573D01*
X765008Y547639D01*
X764962Y547704D01*
X764914Y547766D01*
X764862Y547826D01*
X764807Y547883D01*
X764750Y547938D01*
X764690Y547990D01*
X764628Y548038D01*
X764563Y548084D01*
X764497Y548126D01*
X764428Y548165D01*
X764357Y548200D01*
X764285Y548232D01*
X764211Y548261D01*
X764136Y548286D01*
X764060Y548307D01*
X763983Y548324D01*
X763905Y548338D01*
X763827Y548347D01*
X763748Y548353D01*
X763669Y548355D01*
X763669Y548356D02*
X762864Y548356D01*
X762785Y548354D01*
X762706Y548348D01*
X762628Y548339D01*
X762550Y548325D01*
X762473Y548308D01*
X762396Y548287D01*
X762321Y548262D01*
X762248Y548233D01*
X762175Y548201D01*
X762105Y548166D01*
X762036Y548127D01*
X761969Y548085D01*
X761904Y548039D01*
X761842Y547990D01*
X761782Y547939D01*
X761725Y547884D01*
X761670Y547827D01*
X761619Y547767D01*
X761570Y547705D01*
X761525Y547640D01*
X761482Y547573D01*
X761443Y547504D01*
X761408Y547434D01*
X761376Y547362D01*
X761347Y547288D01*
X761322Y547213D01*
X761301Y547136D01*
X761284Y547059D01*
X761270Y546981D01*
X761261Y546903D01*
X761255Y546824D01*
X761253Y546745D01*
X761253Y544329D01*
X758032Y544329D01*
X758032Y548356D01*
D13*
X782550Y571500D02*
X782555Y571931D01*
X782571Y572361D01*
X782598Y572791D01*
X782635Y573220D01*
X782682Y573648D01*
X782740Y574075D01*
X782808Y574500D01*
X782887Y574924D01*
X782976Y575345D01*
X783076Y575764D01*
X783186Y576181D01*
X783306Y576594D01*
X783436Y577005D01*
X783576Y577412D01*
X783726Y577816D01*
X783886Y578216D01*
X784056Y578612D01*
X784235Y579004D01*
X784424Y579391D01*
X784622Y579773D01*
X784830Y580150D01*
X785047Y580523D01*
X785273Y580889D01*
X785508Y581250D01*
X785751Y581605D01*
X786004Y581955D01*
X786265Y582297D01*
X786534Y582634D01*
X786811Y582963D01*
X787096Y583286D01*
X787389Y583601D01*
X787690Y583910D01*
X787999Y584211D01*
X788314Y584504D01*
X788637Y584789D01*
X788966Y585066D01*
X789303Y585335D01*
X789645Y585596D01*
X789995Y585849D01*
X790350Y586092D01*
X790711Y586327D01*
X791077Y586553D01*
X791450Y586770D01*
X791827Y586978D01*
X792209Y587176D01*
X792596Y587365D01*
X792988Y587544D01*
X793384Y587714D01*
X793784Y587874D01*
X794188Y588024D01*
X794595Y588164D01*
X795006Y588294D01*
X795419Y588414D01*
X795836Y588524D01*
X796255Y588624D01*
X796676Y588713D01*
X797100Y588792D01*
X797525Y588860D01*
X797952Y588918D01*
X798380Y588965D01*
X798809Y589002D01*
X799239Y589029D01*
X799669Y589045D01*
X800100Y589050D01*
X800531Y589045D01*
X800961Y589029D01*
X801391Y589002D01*
X801820Y588965D01*
X802248Y588918D01*
X802675Y588860D01*
X803100Y588792D01*
X803524Y588713D01*
X803945Y588624D01*
X804364Y588524D01*
X804781Y588414D01*
X805194Y588294D01*
X805605Y588164D01*
X806012Y588024D01*
X806416Y587874D01*
X806816Y587714D01*
X807212Y587544D01*
X807604Y587365D01*
X807991Y587176D01*
X808373Y586978D01*
X808750Y586770D01*
X809123Y586553D01*
X809489Y586327D01*
X809850Y586092D01*
X810205Y585849D01*
X810555Y585596D01*
X810897Y585335D01*
X811234Y585066D01*
X811563Y584789D01*
X811886Y584504D01*
X812201Y584211D01*
X812510Y583910D01*
X812811Y583601D01*
X813104Y583286D01*
X813389Y582963D01*
X813666Y582634D01*
X813935Y582297D01*
X814196Y581955D01*
X814449Y581605D01*
X814692Y581250D01*
X814927Y580889D01*
X815153Y580523D01*
X815370Y580150D01*
X815578Y579773D01*
X815776Y579391D01*
X815965Y579004D01*
X816144Y578612D01*
X816314Y578216D01*
X816474Y577816D01*
X816624Y577412D01*
X816764Y577005D01*
X816894Y576594D01*
X817014Y576181D01*
X817124Y575764D01*
X817224Y575345D01*
X817313Y574924D01*
X817392Y574500D01*
X817460Y574075D01*
X817518Y573648D01*
X817565Y573220D01*
X817602Y572791D01*
X817629Y572361D01*
X817645Y571931D01*
X817650Y571500D01*
X817645Y571069D01*
X817629Y570639D01*
X817602Y570209D01*
X817565Y569780D01*
X817518Y569352D01*
X817460Y568925D01*
X817392Y568500D01*
X817313Y568076D01*
X817224Y567655D01*
X817124Y567236D01*
X817014Y566819D01*
X816894Y566406D01*
X816764Y565995D01*
X816624Y565588D01*
X816474Y565184D01*
X816314Y564784D01*
X816144Y564388D01*
X815965Y563996D01*
X815776Y563609D01*
X815578Y563227D01*
X815370Y562850D01*
X815153Y562477D01*
X814927Y562111D01*
X814692Y561750D01*
X814449Y561395D01*
X814196Y561045D01*
X813935Y560703D01*
X813666Y560366D01*
X813389Y560037D01*
X813104Y559714D01*
X812811Y559399D01*
X812510Y559090D01*
X812201Y558789D01*
X811886Y558496D01*
X811563Y558211D01*
X811234Y557934D01*
X810897Y557665D01*
X810555Y557404D01*
X810205Y557151D01*
X809850Y556908D01*
X809489Y556673D01*
X809123Y556447D01*
X808750Y556230D01*
X808373Y556022D01*
X807991Y555824D01*
X807604Y555635D01*
X807212Y555456D01*
X806816Y555286D01*
X806416Y555126D01*
X806012Y554976D01*
X805605Y554836D01*
X805194Y554706D01*
X804781Y554586D01*
X804364Y554476D01*
X803945Y554376D01*
X803524Y554287D01*
X803100Y554208D01*
X802675Y554140D01*
X802248Y554082D01*
X801820Y554035D01*
X801391Y553998D01*
X800961Y553971D01*
X800531Y553955D01*
X800100Y553950D01*
X799669Y553955D01*
X799239Y553971D01*
X798809Y553998D01*
X798380Y554035D01*
X797952Y554082D01*
X797525Y554140D01*
X797100Y554208D01*
X796676Y554287D01*
X796255Y554376D01*
X795836Y554476D01*
X795419Y554586D01*
X795006Y554706D01*
X794595Y554836D01*
X794188Y554976D01*
X793784Y555126D01*
X793384Y555286D01*
X792988Y555456D01*
X792596Y555635D01*
X792209Y555824D01*
X791827Y556022D01*
X791450Y556230D01*
X791077Y556447D01*
X790711Y556673D01*
X790350Y556908D01*
X789995Y557151D01*
X789645Y557404D01*
X789303Y557665D01*
X788966Y557934D01*
X788637Y558211D01*
X788314Y558496D01*
X787999Y558789D01*
X787690Y559090D01*
X787389Y559399D01*
X787096Y559714D01*
X786811Y560037D01*
X786534Y560366D01*
X786265Y560703D01*
X786004Y561045D01*
X785751Y561395D01*
X785508Y561750D01*
X785273Y562111D01*
X785047Y562477D01*
X784830Y562850D01*
X784622Y563227D01*
X784424Y563609D01*
X784235Y563996D01*
X784056Y564388D01*
X783886Y564784D01*
X783726Y565184D01*
X783576Y565588D01*
X783436Y565995D01*
X783306Y566406D01*
X783186Y566819D01*
X783076Y567236D01*
X782976Y567655D01*
X782887Y568076D01*
X782808Y568500D01*
X782740Y568925D01*
X782682Y569352D01*
X782635Y569780D01*
X782598Y570209D01*
X782571Y570639D01*
X782555Y571069D01*
X782550Y571500D01*
D18*
X776600Y615950D02*
X776602Y616013D01*
X776608Y616075D01*
X776618Y616137D01*
X776631Y616199D01*
X776649Y616259D01*
X776670Y616318D01*
X776695Y616376D01*
X776724Y616432D01*
X776756Y616486D01*
X776791Y616538D01*
X776829Y616587D01*
X776871Y616635D01*
X776915Y616679D01*
X776963Y616721D01*
X777012Y616759D01*
X777064Y616794D01*
X777118Y616826D01*
X777174Y616855D01*
X777232Y616880D01*
X777291Y616901D01*
X777351Y616919D01*
X777413Y616932D01*
X777475Y616942D01*
X777537Y616948D01*
X777600Y616950D01*
X777663Y616948D01*
X777725Y616942D01*
X777787Y616932D01*
X777849Y616919D01*
X777909Y616901D01*
X777968Y616880D01*
X778026Y616855D01*
X778082Y616826D01*
X778136Y616794D01*
X778188Y616759D01*
X778237Y616721D01*
X778285Y616679D01*
X778329Y616635D01*
X778371Y616587D01*
X778409Y616538D01*
X778444Y616486D01*
X778476Y616432D01*
X778505Y616376D01*
X778530Y616318D01*
X778551Y616259D01*
X778569Y616199D01*
X778582Y616137D01*
X778592Y616075D01*
X778598Y616013D01*
X778600Y615950D01*
X778598Y615887D01*
X778592Y615825D01*
X778582Y615763D01*
X778569Y615701D01*
X778551Y615641D01*
X778530Y615582D01*
X778505Y615524D01*
X778476Y615468D01*
X778444Y615414D01*
X778409Y615362D01*
X778371Y615313D01*
X778329Y615265D01*
X778285Y615221D01*
X778237Y615179D01*
X778188Y615141D01*
X778136Y615106D01*
X778082Y615074D01*
X778026Y615045D01*
X777968Y615020D01*
X777909Y614999D01*
X777849Y614981D01*
X777787Y614968D01*
X777725Y614958D01*
X777663Y614952D01*
X777600Y614950D01*
X777537Y614952D01*
X777475Y614958D01*
X777413Y614968D01*
X777351Y614981D01*
X777291Y614999D01*
X777232Y615020D01*
X777174Y615045D01*
X777118Y615074D01*
X777064Y615106D01*
X777012Y615141D01*
X776963Y615179D01*
X776915Y615221D01*
X776871Y615265D01*
X776829Y615313D01*
X776791Y615362D01*
X776756Y615414D01*
X776724Y615468D01*
X776695Y615524D01*
X776670Y615582D01*
X776649Y615641D01*
X776631Y615701D01*
X776618Y615763D01*
X776608Y615825D01*
X776602Y615887D01*
X776600Y615950D01*
D13*
X693950Y594500D02*
X693950Y549500D01*
X712400Y601500D02*
X735400Y601500D01*
X753850Y594500D02*
X753850Y548500D01*
X735400Y541550D02*
X712400Y541550D01*
D17*
X689079Y530647D02*
X689077Y530726D01*
X689071Y530805D01*
X689062Y530883D01*
X689048Y530961D01*
X689031Y531038D01*
X689010Y531114D01*
X688985Y531189D01*
X688956Y531263D01*
X688924Y531335D01*
X688889Y531406D01*
X688850Y531475D01*
X688808Y531541D01*
X688762Y531606D01*
X688714Y531668D01*
X688662Y531728D01*
X688607Y531785D01*
X688550Y531840D01*
X688490Y531892D01*
X688428Y531940D01*
X688363Y531986D01*
X688297Y532028D01*
X688228Y532067D01*
X688157Y532102D01*
X688085Y532134D01*
X688011Y532163D01*
X687936Y532188D01*
X687860Y532209D01*
X687783Y532226D01*
X687705Y532240D01*
X687627Y532249D01*
X687548Y532255D01*
X687469Y532257D01*
X689079Y530647D02*
X689077Y530535D01*
X689072Y530423D01*
X689062Y530312D01*
X689050Y530201D01*
X689033Y530090D01*
X689013Y529980D01*
X688989Y529870D01*
X688962Y529762D01*
X688931Y529654D01*
X688897Y529548D01*
X688859Y529443D01*
X688817Y529339D01*
X688773Y529236D01*
X688724Y529135D01*
X688673Y529036D01*
X688618Y528938D01*
X688561Y528842D01*
X688500Y528748D01*
X688436Y528656D01*
X688369Y528567D01*
X688299Y528479D01*
X688226Y528394D01*
X688151Y528312D01*
X688073Y528231D01*
X683443Y528432D02*
X683364Y528434D01*
X683285Y528440D01*
X683207Y528449D01*
X683129Y528463D01*
X683052Y528480D01*
X682975Y528501D01*
X682900Y528526D01*
X682826Y528555D01*
X682754Y528587D01*
X682684Y528622D01*
X682615Y528661D01*
X682548Y528704D01*
X682483Y528749D01*
X682421Y528798D01*
X682361Y528849D01*
X682304Y528904D01*
X682249Y528961D01*
X682198Y529021D01*
X682149Y529083D01*
X682104Y529148D01*
X682061Y529215D01*
X682022Y529284D01*
X681987Y529354D01*
X681955Y529426D01*
X681926Y529500D01*
X681901Y529575D01*
X681880Y529652D01*
X681863Y529729D01*
X681849Y529807D01*
X681840Y529885D01*
X681834Y529964D01*
X681832Y530043D01*
X681834Y530151D01*
X681840Y530259D01*
X681849Y530366D01*
X681863Y530473D01*
X681880Y530580D01*
X681901Y530686D01*
X681926Y530791D01*
X681955Y530895D01*
X681987Y530998D01*
X682023Y531100D01*
X682063Y531200D01*
X682106Y531299D01*
X682152Y531397D01*
X682202Y531492D01*
X682256Y531586D01*
X682313Y531678D01*
X682373Y531768D01*
X682436Y531855D01*
X684852Y529237D02*
X684812Y529172D01*
X684768Y529108D01*
X684721Y529047D01*
X684672Y528988D01*
X684619Y528931D01*
X684564Y528877D01*
X684507Y528825D01*
X684447Y528776D01*
X684385Y528730D01*
X684321Y528687D01*
X684255Y528648D01*
X684187Y528611D01*
X684117Y528577D01*
X684046Y528547D01*
X683974Y528520D01*
X683900Y528497D01*
X683825Y528477D01*
X683750Y528461D01*
X683674Y528448D01*
X683597Y528439D01*
X683520Y528434D01*
X683443Y528432D01*
X686060Y531453D02*
X686100Y531518D01*
X686144Y531582D01*
X686191Y531643D01*
X686240Y531702D01*
X686293Y531759D01*
X686348Y531813D01*
X686405Y531865D01*
X686465Y531914D01*
X686527Y531960D01*
X686591Y532003D01*
X686657Y532042D01*
X686725Y532079D01*
X686795Y532113D01*
X686866Y532143D01*
X686938Y532170D01*
X687012Y532193D01*
X687087Y532213D01*
X687162Y532229D01*
X687238Y532242D01*
X687315Y532251D01*
X687392Y532256D01*
X687469Y532258D01*
X686060Y531452D02*
X684852Y529238D01*
X681832Y534952D02*
X689080Y536563D01*
X684248Y538173D01*
X689080Y539784D01*
X681832Y541394D01*
X685053Y544329D02*
X685053Y546745D01*
X685054Y546745D02*
X685056Y546824D01*
X685062Y546903D01*
X685071Y546981D01*
X685085Y547059D01*
X685102Y547136D01*
X685123Y547212D01*
X685148Y547287D01*
X685177Y547361D01*
X685209Y547433D01*
X685244Y547504D01*
X685283Y547573D01*
X685325Y547639D01*
X685371Y547704D01*
X685419Y547766D01*
X685471Y547826D01*
X685526Y547883D01*
X685583Y547938D01*
X685643Y547990D01*
X685705Y548038D01*
X685770Y548084D01*
X685836Y548126D01*
X685905Y548165D01*
X685976Y548200D01*
X686048Y548232D01*
X686122Y548261D01*
X686197Y548286D01*
X686273Y548307D01*
X686350Y548324D01*
X686428Y548338D01*
X686506Y548347D01*
X686585Y548353D01*
X686664Y548355D01*
X686664Y548356D02*
X687067Y548356D01*
X687156Y548354D01*
X687245Y548348D01*
X687333Y548338D01*
X687421Y548325D01*
X687509Y548307D01*
X687595Y548285D01*
X687681Y548260D01*
X687765Y548231D01*
X687848Y548198D01*
X687929Y548162D01*
X688009Y548122D01*
X688086Y548079D01*
X688162Y548032D01*
X688236Y547982D01*
X688307Y547929D01*
X688376Y547872D01*
X688442Y547813D01*
X688506Y547751D01*
X688567Y547686D01*
X688625Y547618D01*
X688680Y547548D01*
X688731Y547475D01*
X688780Y547400D01*
X688825Y547324D01*
X688867Y547245D01*
X688905Y547164D01*
X688939Y547082D01*
X688970Y546999D01*
X688997Y546914D01*
X689021Y546828D01*
X689040Y546741D01*
X689056Y546654D01*
X689068Y546565D01*
X689076Y546477D01*
X689080Y546388D01*
X689080Y546298D01*
X689076Y546209D01*
X689068Y546121D01*
X689056Y546032D01*
X689040Y545945D01*
X689021Y545858D01*
X688997Y545772D01*
X688970Y545687D01*
X688939Y545604D01*
X688905Y545522D01*
X688867Y545441D01*
X688825Y545362D01*
X688780Y545286D01*
X688731Y545211D01*
X688680Y545138D01*
X688625Y545068D01*
X688567Y545000D01*
X688506Y544935D01*
X688442Y544873D01*
X688376Y544814D01*
X688307Y544757D01*
X688236Y544704D01*
X688162Y544654D01*
X688086Y544607D01*
X688009Y544564D01*
X687929Y544524D01*
X687848Y544488D01*
X687765Y544455D01*
X687681Y544426D01*
X687595Y544401D01*
X687509Y544379D01*
X687421Y544361D01*
X687333Y544348D01*
X687245Y544338D01*
X687156Y544332D01*
X687067Y544330D01*
X687067Y544329D02*
X685053Y544329D01*
X684941Y544331D01*
X684828Y544337D01*
X684716Y544347D01*
X684605Y544360D01*
X684494Y544378D01*
X684383Y544399D01*
X684274Y544425D01*
X684165Y544454D01*
X684058Y544487D01*
X683951Y544523D01*
X683846Y544564D01*
X683743Y544607D01*
X683641Y544655D01*
X683541Y544706D01*
X683443Y544761D01*
X683346Y544818D01*
X683252Y544880D01*
X683160Y544944D01*
X683070Y545012D01*
X682983Y545083D01*
X682898Y545156D01*
X682816Y545233D01*
X682736Y545312D01*
X682659Y545395D01*
X682586Y545480D01*
X682515Y545567D01*
X682447Y545657D01*
X682383Y545749D01*
X682321Y545843D01*
X682264Y545939D01*
X682209Y546038D01*
X682158Y546138D01*
X682110Y546240D01*
X682067Y546343D01*
X682026Y546448D01*
X681990Y546555D01*
X681957Y546662D01*
X681928Y546771D01*
X681902Y546880D01*
X681881Y546991D01*
X681863Y547102D01*
X681850Y547213D01*
X681840Y547325D01*
X681834Y547438D01*
X681832Y547550D01*
D13*
X706350Y571500D02*
X706355Y571931D01*
X706371Y572361D01*
X706398Y572791D01*
X706435Y573220D01*
X706482Y573648D01*
X706540Y574075D01*
X706608Y574500D01*
X706687Y574924D01*
X706776Y575345D01*
X706876Y575764D01*
X706986Y576181D01*
X707106Y576594D01*
X707236Y577005D01*
X707376Y577412D01*
X707526Y577816D01*
X707686Y578216D01*
X707856Y578612D01*
X708035Y579004D01*
X708224Y579391D01*
X708422Y579773D01*
X708630Y580150D01*
X708847Y580523D01*
X709073Y580889D01*
X709308Y581250D01*
X709551Y581605D01*
X709804Y581955D01*
X710065Y582297D01*
X710334Y582634D01*
X710611Y582963D01*
X710896Y583286D01*
X711189Y583601D01*
X711490Y583910D01*
X711799Y584211D01*
X712114Y584504D01*
X712437Y584789D01*
X712766Y585066D01*
X713103Y585335D01*
X713445Y585596D01*
X713795Y585849D01*
X714150Y586092D01*
X714511Y586327D01*
X714877Y586553D01*
X715250Y586770D01*
X715627Y586978D01*
X716009Y587176D01*
X716396Y587365D01*
X716788Y587544D01*
X717184Y587714D01*
X717584Y587874D01*
X717988Y588024D01*
X718395Y588164D01*
X718806Y588294D01*
X719219Y588414D01*
X719636Y588524D01*
X720055Y588624D01*
X720476Y588713D01*
X720900Y588792D01*
X721325Y588860D01*
X721752Y588918D01*
X722180Y588965D01*
X722609Y589002D01*
X723039Y589029D01*
X723469Y589045D01*
X723900Y589050D01*
X724331Y589045D01*
X724761Y589029D01*
X725191Y589002D01*
X725620Y588965D01*
X726048Y588918D01*
X726475Y588860D01*
X726900Y588792D01*
X727324Y588713D01*
X727745Y588624D01*
X728164Y588524D01*
X728581Y588414D01*
X728994Y588294D01*
X729405Y588164D01*
X729812Y588024D01*
X730216Y587874D01*
X730616Y587714D01*
X731012Y587544D01*
X731404Y587365D01*
X731791Y587176D01*
X732173Y586978D01*
X732550Y586770D01*
X732923Y586553D01*
X733289Y586327D01*
X733650Y586092D01*
X734005Y585849D01*
X734355Y585596D01*
X734697Y585335D01*
X735034Y585066D01*
X735363Y584789D01*
X735686Y584504D01*
X736001Y584211D01*
X736310Y583910D01*
X736611Y583601D01*
X736904Y583286D01*
X737189Y582963D01*
X737466Y582634D01*
X737735Y582297D01*
X737996Y581955D01*
X738249Y581605D01*
X738492Y581250D01*
X738727Y580889D01*
X738953Y580523D01*
X739170Y580150D01*
X739378Y579773D01*
X739576Y579391D01*
X739765Y579004D01*
X739944Y578612D01*
X740114Y578216D01*
X740274Y577816D01*
X740424Y577412D01*
X740564Y577005D01*
X740694Y576594D01*
X740814Y576181D01*
X740924Y575764D01*
X741024Y575345D01*
X741113Y574924D01*
X741192Y574500D01*
X741260Y574075D01*
X741318Y573648D01*
X741365Y573220D01*
X741402Y572791D01*
X741429Y572361D01*
X741445Y571931D01*
X741450Y571500D01*
X741445Y571069D01*
X741429Y570639D01*
X741402Y570209D01*
X741365Y569780D01*
X741318Y569352D01*
X741260Y568925D01*
X741192Y568500D01*
X741113Y568076D01*
X741024Y567655D01*
X740924Y567236D01*
X740814Y566819D01*
X740694Y566406D01*
X740564Y565995D01*
X740424Y565588D01*
X740274Y565184D01*
X740114Y564784D01*
X739944Y564388D01*
X739765Y563996D01*
X739576Y563609D01*
X739378Y563227D01*
X739170Y562850D01*
X738953Y562477D01*
X738727Y562111D01*
X738492Y561750D01*
X738249Y561395D01*
X737996Y561045D01*
X737735Y560703D01*
X737466Y560366D01*
X737189Y560037D01*
X736904Y559714D01*
X736611Y559399D01*
X736310Y559090D01*
X736001Y558789D01*
X735686Y558496D01*
X735363Y558211D01*
X735034Y557934D01*
X734697Y557665D01*
X734355Y557404D01*
X734005Y557151D01*
X733650Y556908D01*
X733289Y556673D01*
X732923Y556447D01*
X732550Y556230D01*
X732173Y556022D01*
X731791Y555824D01*
X731404Y555635D01*
X731012Y555456D01*
X730616Y555286D01*
X730216Y555126D01*
X729812Y554976D01*
X729405Y554836D01*
X728994Y554706D01*
X728581Y554586D01*
X728164Y554476D01*
X727745Y554376D01*
X727324Y554287D01*
X726900Y554208D01*
X726475Y554140D01*
X726048Y554082D01*
X725620Y554035D01*
X725191Y553998D01*
X724761Y553971D01*
X724331Y553955D01*
X723900Y553950D01*
X723469Y553955D01*
X723039Y553971D01*
X722609Y553998D01*
X722180Y554035D01*
X721752Y554082D01*
X721325Y554140D01*
X720900Y554208D01*
X720476Y554287D01*
X720055Y554376D01*
X719636Y554476D01*
X719219Y554586D01*
X718806Y554706D01*
X718395Y554836D01*
X717988Y554976D01*
X717584Y555126D01*
X717184Y555286D01*
X716788Y555456D01*
X716396Y555635D01*
X716009Y555824D01*
X715627Y556022D01*
X715250Y556230D01*
X714877Y556447D01*
X714511Y556673D01*
X714150Y556908D01*
X713795Y557151D01*
X713445Y557404D01*
X713103Y557665D01*
X712766Y557934D01*
X712437Y558211D01*
X712114Y558496D01*
X711799Y558789D01*
X711490Y559090D01*
X711189Y559399D01*
X710896Y559714D01*
X710611Y560037D01*
X710334Y560366D01*
X710065Y560703D01*
X709804Y561045D01*
X709551Y561395D01*
X709308Y561750D01*
X709073Y562111D01*
X708847Y562477D01*
X708630Y562850D01*
X708422Y563227D01*
X708224Y563609D01*
X708035Y563996D01*
X707856Y564388D01*
X707686Y564784D01*
X707526Y565184D01*
X707376Y565588D01*
X707236Y565995D01*
X707106Y566406D01*
X706986Y566819D01*
X706876Y567236D01*
X706776Y567655D01*
X706687Y568076D01*
X706608Y568500D01*
X706540Y568925D01*
X706482Y569352D01*
X706435Y569780D01*
X706398Y570209D01*
X706371Y570639D01*
X706355Y571069D01*
X706350Y571500D01*
D18*
X700400Y615950D02*
X700402Y616013D01*
X700408Y616075D01*
X700418Y616137D01*
X700431Y616199D01*
X700449Y616259D01*
X700470Y616318D01*
X700495Y616376D01*
X700524Y616432D01*
X700556Y616486D01*
X700591Y616538D01*
X700629Y616587D01*
X700671Y616635D01*
X700715Y616679D01*
X700763Y616721D01*
X700812Y616759D01*
X700864Y616794D01*
X700918Y616826D01*
X700974Y616855D01*
X701032Y616880D01*
X701091Y616901D01*
X701151Y616919D01*
X701213Y616932D01*
X701275Y616942D01*
X701337Y616948D01*
X701400Y616950D01*
X701463Y616948D01*
X701525Y616942D01*
X701587Y616932D01*
X701649Y616919D01*
X701709Y616901D01*
X701768Y616880D01*
X701826Y616855D01*
X701882Y616826D01*
X701936Y616794D01*
X701988Y616759D01*
X702037Y616721D01*
X702085Y616679D01*
X702129Y616635D01*
X702171Y616587D01*
X702209Y616538D01*
X702244Y616486D01*
X702276Y616432D01*
X702305Y616376D01*
X702330Y616318D01*
X702351Y616259D01*
X702369Y616199D01*
X702382Y616137D01*
X702392Y616075D01*
X702398Y616013D01*
X702400Y615950D01*
X702398Y615887D01*
X702392Y615825D01*
X702382Y615763D01*
X702369Y615701D01*
X702351Y615641D01*
X702330Y615582D01*
X702305Y615524D01*
X702276Y615468D01*
X702244Y615414D01*
X702209Y615362D01*
X702171Y615313D01*
X702129Y615265D01*
X702085Y615221D01*
X702037Y615179D01*
X701988Y615141D01*
X701936Y615106D01*
X701882Y615074D01*
X701826Y615045D01*
X701768Y615020D01*
X701709Y614999D01*
X701649Y614981D01*
X701587Y614968D01*
X701525Y614958D01*
X701463Y614952D01*
X701400Y614950D01*
X701337Y614952D01*
X701275Y614958D01*
X701213Y614968D01*
X701151Y614981D01*
X701091Y614999D01*
X701032Y615020D01*
X700974Y615045D01*
X700918Y615074D01*
X700864Y615106D01*
X700812Y615141D01*
X700763Y615179D01*
X700715Y615221D01*
X700671Y615265D01*
X700629Y615313D01*
X700591Y615362D01*
X700556Y615414D01*
X700524Y615468D01*
X700495Y615524D01*
X700470Y615582D01*
X700449Y615641D01*
X700431Y615701D01*
X700418Y615763D01*
X700408Y615825D01*
X700402Y615887D01*
X700400Y615950D01*
D13*
X617750Y594500D02*
X617750Y549500D01*
X636200Y601500D02*
X659200Y601500D01*
X677650Y594500D02*
X677650Y548500D01*
X659200Y541550D02*
X636200Y541550D01*
D17*
X612879Y530647D02*
X612877Y530726D01*
X612871Y530805D01*
X612862Y530883D01*
X612848Y530961D01*
X612831Y531038D01*
X612810Y531114D01*
X612785Y531189D01*
X612756Y531263D01*
X612724Y531335D01*
X612689Y531406D01*
X612650Y531475D01*
X612608Y531541D01*
X612562Y531606D01*
X612514Y531668D01*
X612462Y531728D01*
X612407Y531785D01*
X612350Y531840D01*
X612290Y531892D01*
X612228Y531940D01*
X612163Y531986D01*
X612097Y532028D01*
X612028Y532067D01*
X611957Y532102D01*
X611885Y532134D01*
X611811Y532163D01*
X611736Y532188D01*
X611660Y532209D01*
X611583Y532226D01*
X611505Y532240D01*
X611427Y532249D01*
X611348Y532255D01*
X611269Y532257D01*
X612879Y530647D02*
X612877Y530535D01*
X612872Y530423D01*
X612862Y530312D01*
X612850Y530201D01*
X612833Y530090D01*
X612813Y529980D01*
X612789Y529870D01*
X612762Y529762D01*
X612731Y529654D01*
X612697Y529548D01*
X612659Y529443D01*
X612617Y529339D01*
X612573Y529236D01*
X612524Y529135D01*
X612473Y529036D01*
X612418Y528938D01*
X612361Y528842D01*
X612300Y528748D01*
X612236Y528656D01*
X612169Y528567D01*
X612099Y528479D01*
X612026Y528394D01*
X611951Y528312D01*
X611873Y528231D01*
X607243Y528432D02*
X607164Y528434D01*
X607085Y528440D01*
X607007Y528449D01*
X606929Y528463D01*
X606852Y528480D01*
X606775Y528501D01*
X606700Y528526D01*
X606626Y528555D01*
X606554Y528587D01*
X606484Y528622D01*
X606415Y528661D01*
X606348Y528704D01*
X606283Y528749D01*
X606221Y528798D01*
X606161Y528849D01*
X606104Y528904D01*
X606049Y528961D01*
X605998Y529021D01*
X605949Y529083D01*
X605904Y529148D01*
X605861Y529215D01*
X605822Y529284D01*
X605787Y529354D01*
X605755Y529426D01*
X605726Y529500D01*
X605701Y529575D01*
X605680Y529652D01*
X605663Y529729D01*
X605649Y529807D01*
X605640Y529885D01*
X605634Y529964D01*
X605632Y530043D01*
X605634Y530151D01*
X605640Y530259D01*
X605649Y530366D01*
X605663Y530473D01*
X605680Y530580D01*
X605701Y530686D01*
X605726Y530791D01*
X605755Y530895D01*
X605787Y530998D01*
X605823Y531100D01*
X605863Y531200D01*
X605906Y531299D01*
X605952Y531397D01*
X606002Y531492D01*
X606056Y531586D01*
X606113Y531678D01*
X606173Y531768D01*
X606236Y531855D01*
X608652Y529237D02*
X608612Y529172D01*
X608568Y529108D01*
X608521Y529047D01*
X608472Y528988D01*
X608419Y528931D01*
X608364Y528877D01*
X608307Y528825D01*
X608247Y528776D01*
X608185Y528730D01*
X608121Y528687D01*
X608055Y528648D01*
X607987Y528611D01*
X607917Y528577D01*
X607846Y528547D01*
X607774Y528520D01*
X607700Y528497D01*
X607625Y528477D01*
X607550Y528461D01*
X607474Y528448D01*
X607397Y528439D01*
X607320Y528434D01*
X607243Y528432D01*
X609860Y531453D02*
X609900Y531518D01*
X609944Y531582D01*
X609991Y531643D01*
X610040Y531702D01*
X610093Y531759D01*
X610148Y531813D01*
X610205Y531865D01*
X610265Y531914D01*
X610327Y531960D01*
X610391Y532003D01*
X610457Y532042D01*
X610525Y532079D01*
X610595Y532113D01*
X610666Y532143D01*
X610738Y532170D01*
X610812Y532193D01*
X610887Y532213D01*
X610962Y532229D01*
X611038Y532242D01*
X611115Y532251D01*
X611192Y532256D01*
X611269Y532258D01*
X609860Y531452D02*
X608652Y529238D01*
X605632Y534952D02*
X612880Y536563D01*
X608048Y538173D01*
X612880Y539784D01*
X605632Y541394D01*
X605632Y544329D02*
X606438Y544329D01*
X605632Y544329D02*
X605632Y548356D01*
X612880Y546343D01*
D13*
X630150Y571500D02*
X630155Y571931D01*
X630171Y572361D01*
X630198Y572791D01*
X630235Y573220D01*
X630282Y573648D01*
X630340Y574075D01*
X630408Y574500D01*
X630487Y574924D01*
X630576Y575345D01*
X630676Y575764D01*
X630786Y576181D01*
X630906Y576594D01*
X631036Y577005D01*
X631176Y577412D01*
X631326Y577816D01*
X631486Y578216D01*
X631656Y578612D01*
X631835Y579004D01*
X632024Y579391D01*
X632222Y579773D01*
X632430Y580150D01*
X632647Y580523D01*
X632873Y580889D01*
X633108Y581250D01*
X633351Y581605D01*
X633604Y581955D01*
X633865Y582297D01*
X634134Y582634D01*
X634411Y582963D01*
X634696Y583286D01*
X634989Y583601D01*
X635290Y583910D01*
X635599Y584211D01*
X635914Y584504D01*
X636237Y584789D01*
X636566Y585066D01*
X636903Y585335D01*
X637245Y585596D01*
X637595Y585849D01*
X637950Y586092D01*
X638311Y586327D01*
X638677Y586553D01*
X639050Y586770D01*
X639427Y586978D01*
X639809Y587176D01*
X640196Y587365D01*
X640588Y587544D01*
X640984Y587714D01*
X641384Y587874D01*
X641788Y588024D01*
X642195Y588164D01*
X642606Y588294D01*
X643019Y588414D01*
X643436Y588524D01*
X643855Y588624D01*
X644276Y588713D01*
X644700Y588792D01*
X645125Y588860D01*
X645552Y588918D01*
X645980Y588965D01*
X646409Y589002D01*
X646839Y589029D01*
X647269Y589045D01*
X647700Y589050D01*
X648131Y589045D01*
X648561Y589029D01*
X648991Y589002D01*
X649420Y588965D01*
X649848Y588918D01*
X650275Y588860D01*
X650700Y588792D01*
X651124Y588713D01*
X651545Y588624D01*
X651964Y588524D01*
X652381Y588414D01*
X652794Y588294D01*
X653205Y588164D01*
X653612Y588024D01*
X654016Y587874D01*
X654416Y587714D01*
X654812Y587544D01*
X655204Y587365D01*
X655591Y587176D01*
X655973Y586978D01*
X656350Y586770D01*
X656723Y586553D01*
X657089Y586327D01*
X657450Y586092D01*
X657805Y585849D01*
X658155Y585596D01*
X658497Y585335D01*
X658834Y585066D01*
X659163Y584789D01*
X659486Y584504D01*
X659801Y584211D01*
X660110Y583910D01*
X660411Y583601D01*
X660704Y583286D01*
X660989Y582963D01*
X661266Y582634D01*
X661535Y582297D01*
X661796Y581955D01*
X662049Y581605D01*
X662292Y581250D01*
X662527Y580889D01*
X662753Y580523D01*
X662970Y580150D01*
X663178Y579773D01*
X663376Y579391D01*
X663565Y579004D01*
X663744Y578612D01*
X663914Y578216D01*
X664074Y577816D01*
X664224Y577412D01*
X664364Y577005D01*
X664494Y576594D01*
X664614Y576181D01*
X664724Y575764D01*
X664824Y575345D01*
X664913Y574924D01*
X664992Y574500D01*
X665060Y574075D01*
X665118Y573648D01*
X665165Y573220D01*
X665202Y572791D01*
X665229Y572361D01*
X665245Y571931D01*
X665250Y571500D01*
X665245Y571069D01*
X665229Y570639D01*
X665202Y570209D01*
X665165Y569780D01*
X665118Y569352D01*
X665060Y568925D01*
X664992Y568500D01*
X664913Y568076D01*
X664824Y567655D01*
X664724Y567236D01*
X664614Y566819D01*
X664494Y566406D01*
X664364Y565995D01*
X664224Y565588D01*
X664074Y565184D01*
X663914Y564784D01*
X663744Y564388D01*
X663565Y563996D01*
X663376Y563609D01*
X663178Y563227D01*
X662970Y562850D01*
X662753Y562477D01*
X662527Y562111D01*
X662292Y561750D01*
X662049Y561395D01*
X661796Y561045D01*
X661535Y560703D01*
X661266Y560366D01*
X660989Y560037D01*
X660704Y559714D01*
X660411Y559399D01*
X660110Y559090D01*
X659801Y558789D01*
X659486Y558496D01*
X659163Y558211D01*
X658834Y557934D01*
X658497Y557665D01*
X658155Y557404D01*
X657805Y557151D01*
X657450Y556908D01*
X657089Y556673D01*
X656723Y556447D01*
X656350Y556230D01*
X655973Y556022D01*
X655591Y555824D01*
X655204Y555635D01*
X654812Y555456D01*
X654416Y555286D01*
X654016Y555126D01*
X653612Y554976D01*
X653205Y554836D01*
X652794Y554706D01*
X652381Y554586D01*
X651964Y554476D01*
X651545Y554376D01*
X651124Y554287D01*
X650700Y554208D01*
X650275Y554140D01*
X649848Y554082D01*
X649420Y554035D01*
X648991Y553998D01*
X648561Y553971D01*
X648131Y553955D01*
X647700Y553950D01*
X647269Y553955D01*
X646839Y553971D01*
X646409Y553998D01*
X645980Y554035D01*
X645552Y554082D01*
X645125Y554140D01*
X644700Y554208D01*
X644276Y554287D01*
X643855Y554376D01*
X643436Y554476D01*
X643019Y554586D01*
X642606Y554706D01*
X642195Y554836D01*
X641788Y554976D01*
X641384Y555126D01*
X640984Y555286D01*
X640588Y555456D01*
X640196Y555635D01*
X639809Y555824D01*
X639427Y556022D01*
X639050Y556230D01*
X638677Y556447D01*
X638311Y556673D01*
X637950Y556908D01*
X637595Y557151D01*
X637245Y557404D01*
X636903Y557665D01*
X636566Y557934D01*
X636237Y558211D01*
X635914Y558496D01*
X635599Y558789D01*
X635290Y559090D01*
X634989Y559399D01*
X634696Y559714D01*
X634411Y560037D01*
X634134Y560366D01*
X633865Y560703D01*
X633604Y561045D01*
X633351Y561395D01*
X633108Y561750D01*
X632873Y562111D01*
X632647Y562477D01*
X632430Y562850D01*
X632222Y563227D01*
X632024Y563609D01*
X631835Y563996D01*
X631656Y564388D01*
X631486Y564784D01*
X631326Y565184D01*
X631176Y565588D01*
X631036Y565995D01*
X630906Y566406D01*
X630786Y566819D01*
X630676Y567236D01*
X630576Y567655D01*
X630487Y568076D01*
X630408Y568500D01*
X630340Y568925D01*
X630282Y569352D01*
X630235Y569780D01*
X630198Y570209D01*
X630171Y570639D01*
X630155Y571069D01*
X630150Y571500D01*
D18*
X624200Y615950D02*
X624202Y616013D01*
X624208Y616075D01*
X624218Y616137D01*
X624231Y616199D01*
X624249Y616259D01*
X624270Y616318D01*
X624295Y616376D01*
X624324Y616432D01*
X624356Y616486D01*
X624391Y616538D01*
X624429Y616587D01*
X624471Y616635D01*
X624515Y616679D01*
X624563Y616721D01*
X624612Y616759D01*
X624664Y616794D01*
X624718Y616826D01*
X624774Y616855D01*
X624832Y616880D01*
X624891Y616901D01*
X624951Y616919D01*
X625013Y616932D01*
X625075Y616942D01*
X625137Y616948D01*
X625200Y616950D01*
X625263Y616948D01*
X625325Y616942D01*
X625387Y616932D01*
X625449Y616919D01*
X625509Y616901D01*
X625568Y616880D01*
X625626Y616855D01*
X625682Y616826D01*
X625736Y616794D01*
X625788Y616759D01*
X625837Y616721D01*
X625885Y616679D01*
X625929Y616635D01*
X625971Y616587D01*
X626009Y616538D01*
X626044Y616486D01*
X626076Y616432D01*
X626105Y616376D01*
X626130Y616318D01*
X626151Y616259D01*
X626169Y616199D01*
X626182Y616137D01*
X626192Y616075D01*
X626198Y616013D01*
X626200Y615950D01*
X626198Y615887D01*
X626192Y615825D01*
X626182Y615763D01*
X626169Y615701D01*
X626151Y615641D01*
X626130Y615582D01*
X626105Y615524D01*
X626076Y615468D01*
X626044Y615414D01*
X626009Y615362D01*
X625971Y615313D01*
X625929Y615265D01*
X625885Y615221D01*
X625837Y615179D01*
X625788Y615141D01*
X625736Y615106D01*
X625682Y615074D01*
X625626Y615045D01*
X625568Y615020D01*
X625509Y614999D01*
X625449Y614981D01*
X625387Y614968D01*
X625325Y614958D01*
X625263Y614952D01*
X625200Y614950D01*
X625137Y614952D01*
X625075Y614958D01*
X625013Y614968D01*
X624951Y614981D01*
X624891Y614999D01*
X624832Y615020D01*
X624774Y615045D01*
X624718Y615074D01*
X624664Y615106D01*
X624612Y615141D01*
X624563Y615179D01*
X624515Y615221D01*
X624471Y615265D01*
X624429Y615313D01*
X624391Y615362D01*
X624356Y615414D01*
X624324Y615468D01*
X624295Y615524D01*
X624270Y615582D01*
X624249Y615641D01*
X624231Y615701D01*
X624218Y615763D01*
X624208Y615825D01*
X624202Y615887D01*
X624200Y615950D01*
D13*
X541550Y594500D02*
X541550Y549500D01*
X560000Y601500D02*
X583000Y601500D01*
X601450Y594500D02*
X601450Y548500D01*
X583000Y541550D02*
X560000Y541550D01*
D17*
X536679Y530647D02*
X536677Y530726D01*
X536671Y530805D01*
X536662Y530883D01*
X536648Y530961D01*
X536631Y531038D01*
X536610Y531114D01*
X536585Y531189D01*
X536556Y531263D01*
X536524Y531335D01*
X536489Y531406D01*
X536450Y531475D01*
X536408Y531541D01*
X536362Y531606D01*
X536314Y531668D01*
X536262Y531728D01*
X536207Y531785D01*
X536150Y531840D01*
X536090Y531892D01*
X536028Y531940D01*
X535963Y531986D01*
X535897Y532028D01*
X535828Y532067D01*
X535757Y532102D01*
X535685Y532134D01*
X535611Y532163D01*
X535536Y532188D01*
X535460Y532209D01*
X535383Y532226D01*
X535305Y532240D01*
X535227Y532249D01*
X535148Y532255D01*
X535069Y532257D01*
X536679Y530647D02*
X536677Y530535D01*
X536672Y530423D01*
X536662Y530312D01*
X536650Y530201D01*
X536633Y530090D01*
X536613Y529980D01*
X536589Y529870D01*
X536562Y529762D01*
X536531Y529654D01*
X536497Y529548D01*
X536459Y529443D01*
X536417Y529339D01*
X536373Y529236D01*
X536324Y529135D01*
X536273Y529036D01*
X536218Y528938D01*
X536161Y528842D01*
X536100Y528748D01*
X536036Y528656D01*
X535969Y528567D01*
X535899Y528479D01*
X535826Y528394D01*
X535751Y528312D01*
X535673Y528231D01*
X531043Y528432D02*
X530964Y528434D01*
X530885Y528440D01*
X530807Y528449D01*
X530729Y528463D01*
X530652Y528480D01*
X530575Y528501D01*
X530500Y528526D01*
X530426Y528555D01*
X530354Y528587D01*
X530284Y528622D01*
X530215Y528661D01*
X530148Y528704D01*
X530083Y528749D01*
X530021Y528798D01*
X529961Y528849D01*
X529904Y528904D01*
X529849Y528961D01*
X529798Y529021D01*
X529749Y529083D01*
X529704Y529148D01*
X529661Y529215D01*
X529622Y529284D01*
X529587Y529354D01*
X529555Y529426D01*
X529526Y529500D01*
X529501Y529575D01*
X529480Y529652D01*
X529463Y529729D01*
X529449Y529807D01*
X529440Y529885D01*
X529434Y529964D01*
X529432Y530043D01*
X529434Y530151D01*
X529440Y530259D01*
X529449Y530366D01*
X529463Y530473D01*
X529480Y530580D01*
X529501Y530686D01*
X529526Y530791D01*
X529555Y530895D01*
X529587Y530998D01*
X529623Y531100D01*
X529663Y531200D01*
X529706Y531299D01*
X529752Y531397D01*
X529802Y531492D01*
X529856Y531586D01*
X529913Y531678D01*
X529973Y531768D01*
X530036Y531855D01*
X532452Y529237D02*
X532412Y529172D01*
X532368Y529108D01*
X532321Y529047D01*
X532272Y528988D01*
X532219Y528931D01*
X532164Y528877D01*
X532107Y528825D01*
X532047Y528776D01*
X531985Y528730D01*
X531921Y528687D01*
X531855Y528648D01*
X531787Y528611D01*
X531717Y528577D01*
X531646Y528547D01*
X531574Y528520D01*
X531500Y528497D01*
X531425Y528477D01*
X531350Y528461D01*
X531274Y528448D01*
X531197Y528439D01*
X531120Y528434D01*
X531043Y528432D01*
X533660Y531453D02*
X533700Y531518D01*
X533744Y531582D01*
X533791Y531643D01*
X533840Y531702D01*
X533893Y531759D01*
X533948Y531813D01*
X534005Y531865D01*
X534065Y531914D01*
X534127Y531960D01*
X534191Y532003D01*
X534257Y532042D01*
X534325Y532079D01*
X534395Y532113D01*
X534466Y532143D01*
X534538Y532170D01*
X534612Y532193D01*
X534687Y532213D01*
X534762Y532229D01*
X534838Y532242D01*
X534915Y532251D01*
X534992Y532256D01*
X535069Y532258D01*
X533660Y531452D02*
X532452Y529238D01*
X529432Y534952D02*
X536680Y536563D01*
X531848Y538173D01*
X536680Y539784D01*
X529432Y541394D01*
X534667Y544330D02*
X534578Y544332D01*
X534489Y544338D01*
X534401Y544348D01*
X534313Y544361D01*
X534225Y544379D01*
X534139Y544401D01*
X534053Y544426D01*
X533969Y544455D01*
X533886Y544488D01*
X533805Y544524D01*
X533725Y544564D01*
X533648Y544607D01*
X533572Y544654D01*
X533498Y544704D01*
X533427Y544757D01*
X533358Y544814D01*
X533292Y544873D01*
X533228Y544935D01*
X533167Y545000D01*
X533109Y545068D01*
X533054Y545138D01*
X533003Y545211D01*
X532954Y545286D01*
X532909Y545362D01*
X532867Y545441D01*
X532829Y545522D01*
X532795Y545604D01*
X532764Y545687D01*
X532737Y545772D01*
X532713Y545858D01*
X532694Y545945D01*
X532678Y546032D01*
X532666Y546121D01*
X532658Y546209D01*
X532654Y546298D01*
X532654Y546388D01*
X532658Y546477D01*
X532666Y546565D01*
X532678Y546654D01*
X532694Y546741D01*
X532713Y546828D01*
X532737Y546914D01*
X532764Y546999D01*
X532795Y547082D01*
X532829Y547164D01*
X532867Y547245D01*
X532909Y547324D01*
X532954Y547400D01*
X533003Y547475D01*
X533054Y547548D01*
X533109Y547618D01*
X533167Y547686D01*
X533228Y547751D01*
X533292Y547813D01*
X533358Y547872D01*
X533427Y547929D01*
X533498Y547982D01*
X533572Y548032D01*
X533648Y548079D01*
X533725Y548122D01*
X533805Y548162D01*
X533886Y548198D01*
X533969Y548231D01*
X534053Y548260D01*
X534139Y548285D01*
X534225Y548307D01*
X534313Y548325D01*
X534401Y548338D01*
X534489Y548348D01*
X534578Y548354D01*
X534667Y548356D01*
X534756Y548354D01*
X534845Y548348D01*
X534933Y548338D01*
X535021Y548325D01*
X535109Y548307D01*
X535195Y548285D01*
X535281Y548260D01*
X535365Y548231D01*
X535448Y548198D01*
X535529Y548162D01*
X535609Y548122D01*
X535686Y548079D01*
X535762Y548032D01*
X535836Y547982D01*
X535907Y547929D01*
X535976Y547872D01*
X536042Y547813D01*
X536106Y547751D01*
X536167Y547686D01*
X536225Y547618D01*
X536280Y547548D01*
X536331Y547475D01*
X536380Y547400D01*
X536425Y547324D01*
X536467Y547245D01*
X536505Y547164D01*
X536539Y547082D01*
X536570Y546999D01*
X536597Y546914D01*
X536621Y546828D01*
X536640Y546741D01*
X536656Y546654D01*
X536668Y546565D01*
X536676Y546477D01*
X536680Y546388D01*
X536680Y546298D01*
X536676Y546209D01*
X536668Y546121D01*
X536656Y546032D01*
X536640Y545945D01*
X536621Y545858D01*
X536597Y545772D01*
X536570Y545687D01*
X536539Y545604D01*
X536505Y545522D01*
X536467Y545441D01*
X536425Y545362D01*
X536380Y545286D01*
X536331Y545211D01*
X536280Y545138D01*
X536225Y545068D01*
X536167Y545000D01*
X536106Y544935D01*
X536042Y544873D01*
X535976Y544814D01*
X535907Y544757D01*
X535836Y544704D01*
X535762Y544654D01*
X535686Y544607D01*
X535609Y544564D01*
X535529Y544524D01*
X535448Y544488D01*
X535365Y544455D01*
X535281Y544426D01*
X535195Y544401D01*
X535109Y544379D01*
X535021Y544361D01*
X534933Y544348D01*
X534845Y544338D01*
X534756Y544332D01*
X534667Y544330D01*
X531043Y544733D02*
X530964Y544735D01*
X530885Y544741D01*
X530807Y544750D01*
X530729Y544764D01*
X530652Y544781D01*
X530576Y544802D01*
X530501Y544827D01*
X530427Y544856D01*
X530355Y544888D01*
X530284Y544923D01*
X530215Y544962D01*
X530149Y545004D01*
X530084Y545050D01*
X530022Y545098D01*
X529962Y545150D01*
X529905Y545205D01*
X529850Y545262D01*
X529798Y545322D01*
X529750Y545384D01*
X529704Y545449D01*
X529662Y545515D01*
X529623Y545584D01*
X529588Y545655D01*
X529556Y545727D01*
X529527Y545801D01*
X529502Y545876D01*
X529481Y545952D01*
X529464Y546029D01*
X529450Y546107D01*
X529441Y546185D01*
X529435Y546264D01*
X529433Y546343D01*
X529435Y546422D01*
X529441Y546501D01*
X529450Y546579D01*
X529464Y546657D01*
X529481Y546734D01*
X529502Y546810D01*
X529527Y546885D01*
X529556Y546959D01*
X529588Y547031D01*
X529623Y547102D01*
X529662Y547171D01*
X529704Y547237D01*
X529750Y547302D01*
X529798Y547364D01*
X529850Y547424D01*
X529905Y547481D01*
X529962Y547536D01*
X530022Y547588D01*
X530084Y547636D01*
X530149Y547682D01*
X530215Y547724D01*
X530284Y547763D01*
X530355Y547798D01*
X530427Y547830D01*
X530501Y547859D01*
X530576Y547884D01*
X530652Y547905D01*
X530729Y547922D01*
X530807Y547936D01*
X530885Y547945D01*
X530964Y547951D01*
X531043Y547953D01*
X531043Y547954D02*
X531122Y547952D01*
X531201Y547946D01*
X531279Y547937D01*
X531357Y547923D01*
X531434Y547906D01*
X531511Y547885D01*
X531586Y547860D01*
X531660Y547831D01*
X531732Y547799D01*
X531802Y547764D01*
X531871Y547725D01*
X531938Y547682D01*
X532003Y547637D01*
X532065Y547588D01*
X532125Y547537D01*
X532182Y547482D01*
X532237Y547425D01*
X532288Y547365D01*
X532337Y547303D01*
X532382Y547238D01*
X532425Y547171D01*
X532464Y547102D01*
X532499Y547032D01*
X532531Y546960D01*
X532560Y546886D01*
X532585Y546811D01*
X532606Y546734D01*
X532623Y546657D01*
X532637Y546579D01*
X532646Y546501D01*
X532652Y546422D01*
X532654Y546343D01*
X532652Y546264D01*
X532646Y546185D01*
X532637Y546107D01*
X532623Y546029D01*
X532606Y545952D01*
X532585Y545875D01*
X532560Y545800D01*
X532531Y545726D01*
X532499Y545654D01*
X532464Y545584D01*
X532425Y545515D01*
X532382Y545448D01*
X532337Y545383D01*
X532288Y545321D01*
X532237Y545261D01*
X532182Y545204D01*
X532125Y545149D01*
X532065Y545098D01*
X532003Y545049D01*
X531938Y545004D01*
X531871Y544961D01*
X531802Y544922D01*
X531732Y544887D01*
X531660Y544855D01*
X531586Y544826D01*
X531511Y544801D01*
X531434Y544780D01*
X531357Y544763D01*
X531279Y544749D01*
X531201Y544740D01*
X531122Y544734D01*
X531043Y544732D01*
D13*
X553950Y571500D02*
X553955Y571931D01*
X553971Y572361D01*
X553998Y572791D01*
X554035Y573220D01*
X554082Y573648D01*
X554140Y574075D01*
X554208Y574500D01*
X554287Y574924D01*
X554376Y575345D01*
X554476Y575764D01*
X554586Y576181D01*
X554706Y576594D01*
X554836Y577005D01*
X554976Y577412D01*
X555126Y577816D01*
X555286Y578216D01*
X555456Y578612D01*
X555635Y579004D01*
X555824Y579391D01*
X556022Y579773D01*
X556230Y580150D01*
X556447Y580523D01*
X556673Y580889D01*
X556908Y581250D01*
X557151Y581605D01*
X557404Y581955D01*
X557665Y582297D01*
X557934Y582634D01*
X558211Y582963D01*
X558496Y583286D01*
X558789Y583601D01*
X559090Y583910D01*
X559399Y584211D01*
X559714Y584504D01*
X560037Y584789D01*
X560366Y585066D01*
X560703Y585335D01*
X561045Y585596D01*
X561395Y585849D01*
X561750Y586092D01*
X562111Y586327D01*
X562477Y586553D01*
X562850Y586770D01*
X563227Y586978D01*
X563609Y587176D01*
X563996Y587365D01*
X564388Y587544D01*
X564784Y587714D01*
X565184Y587874D01*
X565588Y588024D01*
X565995Y588164D01*
X566406Y588294D01*
X566819Y588414D01*
X567236Y588524D01*
X567655Y588624D01*
X568076Y588713D01*
X568500Y588792D01*
X568925Y588860D01*
X569352Y588918D01*
X569780Y588965D01*
X570209Y589002D01*
X570639Y589029D01*
X571069Y589045D01*
X571500Y589050D01*
X571931Y589045D01*
X572361Y589029D01*
X572791Y589002D01*
X573220Y588965D01*
X573648Y588918D01*
X574075Y588860D01*
X574500Y588792D01*
X574924Y588713D01*
X575345Y588624D01*
X575764Y588524D01*
X576181Y588414D01*
X576594Y588294D01*
X577005Y588164D01*
X577412Y588024D01*
X577816Y587874D01*
X578216Y587714D01*
X578612Y587544D01*
X579004Y587365D01*
X579391Y587176D01*
X579773Y586978D01*
X580150Y586770D01*
X580523Y586553D01*
X580889Y586327D01*
X581250Y586092D01*
X581605Y585849D01*
X581955Y585596D01*
X582297Y585335D01*
X582634Y585066D01*
X582963Y584789D01*
X583286Y584504D01*
X583601Y584211D01*
X583910Y583910D01*
X584211Y583601D01*
X584504Y583286D01*
X584789Y582963D01*
X585066Y582634D01*
X585335Y582297D01*
X585596Y581955D01*
X585849Y581605D01*
X586092Y581250D01*
X586327Y580889D01*
X586553Y580523D01*
X586770Y580150D01*
X586978Y579773D01*
X587176Y579391D01*
X587365Y579004D01*
X587544Y578612D01*
X587714Y578216D01*
X587874Y577816D01*
X588024Y577412D01*
X588164Y577005D01*
X588294Y576594D01*
X588414Y576181D01*
X588524Y575764D01*
X588624Y575345D01*
X588713Y574924D01*
X588792Y574500D01*
X588860Y574075D01*
X588918Y573648D01*
X588965Y573220D01*
X589002Y572791D01*
X589029Y572361D01*
X589045Y571931D01*
X589050Y571500D01*
X589045Y571069D01*
X589029Y570639D01*
X589002Y570209D01*
X588965Y569780D01*
X588918Y569352D01*
X588860Y568925D01*
X588792Y568500D01*
X588713Y568076D01*
X588624Y567655D01*
X588524Y567236D01*
X588414Y566819D01*
X588294Y566406D01*
X588164Y565995D01*
X588024Y565588D01*
X587874Y565184D01*
X587714Y564784D01*
X587544Y564388D01*
X587365Y563996D01*
X587176Y563609D01*
X586978Y563227D01*
X586770Y562850D01*
X586553Y562477D01*
X586327Y562111D01*
X586092Y561750D01*
X585849Y561395D01*
X585596Y561045D01*
X585335Y560703D01*
X585066Y560366D01*
X584789Y560037D01*
X584504Y559714D01*
X584211Y559399D01*
X583910Y559090D01*
X583601Y558789D01*
X583286Y558496D01*
X582963Y558211D01*
X582634Y557934D01*
X582297Y557665D01*
X581955Y557404D01*
X581605Y557151D01*
X581250Y556908D01*
X580889Y556673D01*
X580523Y556447D01*
X580150Y556230D01*
X579773Y556022D01*
X579391Y555824D01*
X579004Y555635D01*
X578612Y555456D01*
X578216Y555286D01*
X577816Y555126D01*
X577412Y554976D01*
X577005Y554836D01*
X576594Y554706D01*
X576181Y554586D01*
X575764Y554476D01*
X575345Y554376D01*
X574924Y554287D01*
X574500Y554208D01*
X574075Y554140D01*
X573648Y554082D01*
X573220Y554035D01*
X572791Y553998D01*
X572361Y553971D01*
X571931Y553955D01*
X571500Y553950D01*
X571069Y553955D01*
X570639Y553971D01*
X570209Y553998D01*
X569780Y554035D01*
X569352Y554082D01*
X568925Y554140D01*
X568500Y554208D01*
X568076Y554287D01*
X567655Y554376D01*
X567236Y554476D01*
X566819Y554586D01*
X566406Y554706D01*
X565995Y554836D01*
X565588Y554976D01*
X565184Y555126D01*
X564784Y555286D01*
X564388Y555456D01*
X563996Y555635D01*
X563609Y555824D01*
X563227Y556022D01*
X562850Y556230D01*
X562477Y556447D01*
X562111Y556673D01*
X561750Y556908D01*
X561395Y557151D01*
X561045Y557404D01*
X560703Y557665D01*
X560366Y557934D01*
X560037Y558211D01*
X559714Y558496D01*
X559399Y558789D01*
X559090Y559090D01*
X558789Y559399D01*
X558496Y559714D01*
X558211Y560037D01*
X557934Y560366D01*
X557665Y560703D01*
X557404Y561045D01*
X557151Y561395D01*
X556908Y561750D01*
X556673Y562111D01*
X556447Y562477D01*
X556230Y562850D01*
X556022Y563227D01*
X555824Y563609D01*
X555635Y563996D01*
X555456Y564388D01*
X555286Y564784D01*
X555126Y565184D01*
X554976Y565588D01*
X554836Y565995D01*
X554706Y566406D01*
X554586Y566819D01*
X554476Y567236D01*
X554376Y567655D01*
X554287Y568076D01*
X554208Y568500D01*
X554140Y568925D01*
X554082Y569352D01*
X554035Y569780D01*
X553998Y570209D01*
X553971Y570639D01*
X553955Y571069D01*
X553950Y571500D01*
D18*
X548000Y615950D02*
X548002Y616013D01*
X548008Y616075D01*
X548018Y616137D01*
X548031Y616199D01*
X548049Y616259D01*
X548070Y616318D01*
X548095Y616376D01*
X548124Y616432D01*
X548156Y616486D01*
X548191Y616538D01*
X548229Y616587D01*
X548271Y616635D01*
X548315Y616679D01*
X548363Y616721D01*
X548412Y616759D01*
X548464Y616794D01*
X548518Y616826D01*
X548574Y616855D01*
X548632Y616880D01*
X548691Y616901D01*
X548751Y616919D01*
X548813Y616932D01*
X548875Y616942D01*
X548937Y616948D01*
X549000Y616950D01*
X549063Y616948D01*
X549125Y616942D01*
X549187Y616932D01*
X549249Y616919D01*
X549309Y616901D01*
X549368Y616880D01*
X549426Y616855D01*
X549482Y616826D01*
X549536Y616794D01*
X549588Y616759D01*
X549637Y616721D01*
X549685Y616679D01*
X549729Y616635D01*
X549771Y616587D01*
X549809Y616538D01*
X549844Y616486D01*
X549876Y616432D01*
X549905Y616376D01*
X549930Y616318D01*
X549951Y616259D01*
X549969Y616199D01*
X549982Y616137D01*
X549992Y616075D01*
X549998Y616013D01*
X550000Y615950D01*
X549998Y615887D01*
X549992Y615825D01*
X549982Y615763D01*
X549969Y615701D01*
X549951Y615641D01*
X549930Y615582D01*
X549905Y615524D01*
X549876Y615468D01*
X549844Y615414D01*
X549809Y615362D01*
X549771Y615313D01*
X549729Y615265D01*
X549685Y615221D01*
X549637Y615179D01*
X549588Y615141D01*
X549536Y615106D01*
X549482Y615074D01*
X549426Y615045D01*
X549368Y615020D01*
X549309Y614999D01*
X549249Y614981D01*
X549187Y614968D01*
X549125Y614958D01*
X549063Y614952D01*
X549000Y614950D01*
X548937Y614952D01*
X548875Y614958D01*
X548813Y614968D01*
X548751Y614981D01*
X548691Y614999D01*
X548632Y615020D01*
X548574Y615045D01*
X548518Y615074D01*
X548464Y615106D01*
X548412Y615141D01*
X548363Y615179D01*
X548315Y615221D01*
X548271Y615265D01*
X548229Y615313D01*
X548191Y615362D01*
X548156Y615414D01*
X548124Y615468D01*
X548095Y615524D01*
X548070Y615582D01*
X548049Y615641D01*
X548031Y615701D01*
X548018Y615763D01*
X548008Y615825D01*
X548002Y615887D01*
X548000Y615950D01*
D10*
X840740Y548640D02*
X840742Y548540D01*
X840748Y548441D01*
X840758Y548341D01*
X840771Y548243D01*
X840789Y548144D01*
X840810Y548047D01*
X840835Y547951D01*
X840864Y547855D01*
X840897Y547761D01*
X840933Y547668D01*
X840973Y547577D01*
X841017Y547487D01*
X841064Y547399D01*
X841114Y547313D01*
X841168Y547229D01*
X841225Y547147D01*
X841285Y547068D01*
X841349Y546990D01*
X841415Y546916D01*
X841484Y546844D01*
X841556Y546775D01*
X841630Y546709D01*
X841708Y546645D01*
X841787Y546585D01*
X841869Y546528D01*
X841953Y546474D01*
X842039Y546424D01*
X842127Y546377D01*
X842217Y546333D01*
X842308Y546293D01*
X842401Y546257D01*
X842495Y546224D01*
X842591Y546195D01*
X842687Y546170D01*
X842784Y546149D01*
X842883Y546131D01*
X842981Y546118D01*
X843081Y546108D01*
X843180Y546102D01*
X843280Y546100D01*
X858520Y546100D02*
X858620Y546102D01*
X858719Y546108D01*
X858819Y546118D01*
X858917Y546131D01*
X859016Y546149D01*
X859113Y546170D01*
X859209Y546195D01*
X859305Y546224D01*
X859399Y546257D01*
X859492Y546293D01*
X859583Y546333D01*
X859673Y546377D01*
X859761Y546424D01*
X859847Y546474D01*
X859931Y546528D01*
X860013Y546585D01*
X860092Y546645D01*
X860170Y546709D01*
X860244Y546775D01*
X860316Y546844D01*
X860385Y546916D01*
X860451Y546990D01*
X860515Y547068D01*
X860575Y547147D01*
X860632Y547229D01*
X860686Y547313D01*
X860736Y547399D01*
X860783Y547487D01*
X860827Y547577D01*
X860867Y547668D01*
X860903Y547761D01*
X860936Y547855D01*
X860965Y547951D01*
X860990Y548047D01*
X861011Y548144D01*
X861029Y548243D01*
X861042Y548341D01*
X861052Y548441D01*
X861058Y548540D01*
X861060Y548640D01*
X861060Y594360D02*
X861058Y594460D01*
X861052Y594559D01*
X861042Y594659D01*
X861029Y594757D01*
X861011Y594856D01*
X860990Y594953D01*
X860965Y595049D01*
X860936Y595145D01*
X860903Y595239D01*
X860867Y595332D01*
X860827Y595423D01*
X860783Y595513D01*
X860736Y595601D01*
X860686Y595687D01*
X860632Y595771D01*
X860575Y595853D01*
X860515Y595932D01*
X860451Y596010D01*
X860385Y596084D01*
X860316Y596156D01*
X860244Y596225D01*
X860170Y596291D01*
X860092Y596355D01*
X860013Y596415D01*
X859931Y596472D01*
X859847Y596526D01*
X859761Y596576D01*
X859673Y596623D01*
X859583Y596667D01*
X859492Y596707D01*
X859399Y596743D01*
X859305Y596776D01*
X859209Y596805D01*
X859113Y596830D01*
X859016Y596851D01*
X858917Y596869D01*
X858819Y596882D01*
X858719Y596892D01*
X858620Y596898D01*
X858520Y596900D01*
X843280Y596900D02*
X843180Y596898D01*
X843081Y596892D01*
X842981Y596882D01*
X842883Y596869D01*
X842784Y596851D01*
X842687Y596830D01*
X842591Y596805D01*
X842495Y596776D01*
X842401Y596743D01*
X842308Y596707D01*
X842217Y596667D01*
X842127Y596623D01*
X842039Y596576D01*
X841953Y596526D01*
X841869Y596472D01*
X841787Y596415D01*
X841708Y596355D01*
X841630Y596291D01*
X841556Y596225D01*
X841484Y596156D01*
X841415Y596084D01*
X841349Y596010D01*
X841285Y595932D01*
X841225Y595853D01*
X841168Y595771D01*
X841114Y595687D01*
X841064Y595601D01*
X841017Y595513D01*
X840973Y595423D01*
X840933Y595332D01*
X840897Y595239D01*
X840864Y595145D01*
X840835Y595049D01*
X840810Y594953D01*
X840789Y594856D01*
X840771Y594757D01*
X840758Y594659D01*
X840748Y594559D01*
X840742Y594460D01*
X840740Y594360D01*
X843280Y546100D02*
X858520Y546100D01*
X840740Y548640D02*
X840740Y552450D01*
X842010Y553720D01*
X861060Y552450D02*
X861060Y548640D01*
X861060Y552450D02*
X859790Y553720D01*
X842010Y589280D02*
X840740Y590550D01*
X842010Y589280D02*
X842010Y553720D01*
X859790Y589280D02*
X861060Y590550D01*
X859790Y589280D02*
X859790Y553720D01*
X840740Y590550D02*
X840740Y594360D01*
X861060Y594360D02*
X861060Y590550D01*
X858520Y596900D02*
X843280Y596900D01*
D13*
X837311Y546735D02*
X828675Y546735D01*
X828675Y549134D01*
X828677Y549231D01*
X828683Y549327D01*
X828692Y549423D01*
X828706Y549519D01*
X828723Y549614D01*
X828745Y549708D01*
X828770Y549801D01*
X828798Y549894D01*
X828831Y549985D01*
X828867Y550074D01*
X828907Y550162D01*
X828950Y550249D01*
X828996Y550334D01*
X829046Y550416D01*
X829100Y550497D01*
X829156Y550575D01*
X829216Y550651D01*
X829278Y550725D01*
X829344Y550796D01*
X829412Y550864D01*
X829483Y550930D01*
X829557Y550992D01*
X829633Y551052D01*
X829711Y551108D01*
X829792Y551162D01*
X829875Y551212D01*
X829959Y551258D01*
X830046Y551301D01*
X830134Y551341D01*
X830223Y551377D01*
X830314Y551410D01*
X830407Y551438D01*
X830500Y551463D01*
X830594Y551485D01*
X830689Y551502D01*
X830785Y551516D01*
X830881Y551525D01*
X830977Y551531D01*
X831074Y551533D01*
X831171Y551531D01*
X831267Y551525D01*
X831363Y551516D01*
X831459Y551502D01*
X831554Y551485D01*
X831648Y551463D01*
X831741Y551438D01*
X831834Y551410D01*
X831925Y551377D01*
X832014Y551341D01*
X832102Y551301D01*
X832189Y551258D01*
X832274Y551212D01*
X832356Y551162D01*
X832437Y551108D01*
X832515Y551052D01*
X832591Y550992D01*
X832665Y550930D01*
X832736Y550864D01*
X832804Y550796D01*
X832870Y550725D01*
X832932Y550651D01*
X832992Y550575D01*
X833048Y550497D01*
X833102Y550416D01*
X833152Y550334D01*
X833198Y550249D01*
X833241Y550162D01*
X833281Y550074D01*
X833317Y549985D01*
X833350Y549894D01*
X833378Y549801D01*
X833403Y549708D01*
X833425Y549614D01*
X833442Y549519D01*
X833456Y549423D01*
X833465Y549327D01*
X833471Y549231D01*
X833473Y549134D01*
X833473Y546735D01*
X833473Y549614D02*
X837311Y551533D01*
X834912Y555576D02*
X834815Y555578D01*
X834719Y555584D01*
X834623Y555593D01*
X834527Y555607D01*
X834432Y555624D01*
X834338Y555646D01*
X834245Y555671D01*
X834152Y555699D01*
X834061Y555732D01*
X833972Y555768D01*
X833884Y555808D01*
X833797Y555851D01*
X833713Y555897D01*
X833630Y555947D01*
X833549Y556001D01*
X833471Y556057D01*
X833395Y556117D01*
X833321Y556179D01*
X833250Y556245D01*
X833182Y556313D01*
X833116Y556384D01*
X833054Y556458D01*
X832994Y556534D01*
X832938Y556612D01*
X832884Y556693D01*
X832834Y556776D01*
X832788Y556860D01*
X832745Y556947D01*
X832705Y557035D01*
X832669Y557124D01*
X832636Y557215D01*
X832608Y557308D01*
X832583Y557401D01*
X832561Y557495D01*
X832544Y557590D01*
X832530Y557686D01*
X832521Y557782D01*
X832515Y557878D01*
X832513Y557975D01*
X832515Y558072D01*
X832521Y558168D01*
X832530Y558264D01*
X832544Y558360D01*
X832561Y558455D01*
X832583Y558549D01*
X832608Y558642D01*
X832636Y558735D01*
X832669Y558826D01*
X832705Y558915D01*
X832745Y559003D01*
X832788Y559090D01*
X832834Y559175D01*
X832884Y559257D01*
X832938Y559338D01*
X832994Y559416D01*
X833054Y559492D01*
X833116Y559566D01*
X833182Y559637D01*
X833250Y559705D01*
X833321Y559771D01*
X833395Y559833D01*
X833471Y559893D01*
X833549Y559949D01*
X833630Y560003D01*
X833713Y560053D01*
X833797Y560099D01*
X833884Y560142D01*
X833972Y560182D01*
X834061Y560218D01*
X834152Y560251D01*
X834245Y560279D01*
X834338Y560304D01*
X834432Y560326D01*
X834527Y560343D01*
X834623Y560357D01*
X834719Y560366D01*
X834815Y560372D01*
X834912Y560374D01*
X835009Y560372D01*
X835105Y560366D01*
X835201Y560357D01*
X835297Y560343D01*
X835392Y560326D01*
X835486Y560304D01*
X835579Y560279D01*
X835672Y560251D01*
X835763Y560218D01*
X835852Y560182D01*
X835940Y560142D01*
X836027Y560099D01*
X836112Y560053D01*
X836194Y560003D01*
X836275Y559949D01*
X836353Y559893D01*
X836429Y559833D01*
X836503Y559771D01*
X836574Y559705D01*
X836642Y559637D01*
X836708Y559566D01*
X836770Y559492D01*
X836830Y559416D01*
X836886Y559338D01*
X836940Y559257D01*
X836990Y559175D01*
X837036Y559090D01*
X837079Y559003D01*
X837119Y558915D01*
X837155Y558826D01*
X837188Y558735D01*
X837216Y558642D01*
X837241Y558549D01*
X837263Y558455D01*
X837280Y558360D01*
X837294Y558264D01*
X837303Y558168D01*
X837309Y558072D01*
X837311Y557975D01*
X837309Y557878D01*
X837303Y557782D01*
X837294Y557686D01*
X837280Y557590D01*
X837263Y557495D01*
X837241Y557401D01*
X837216Y557308D01*
X837188Y557215D01*
X837155Y557124D01*
X837119Y557035D01*
X837079Y556947D01*
X837036Y556860D01*
X836990Y556776D01*
X836940Y556693D01*
X836886Y556612D01*
X836830Y556534D01*
X836770Y556458D01*
X836708Y556384D01*
X836642Y556313D01*
X836574Y556245D01*
X836503Y556179D01*
X836429Y556117D01*
X836353Y556057D01*
X836275Y556001D01*
X836194Y555947D01*
X836112Y555897D01*
X836027Y555851D01*
X835940Y555808D01*
X835852Y555768D01*
X835763Y555732D01*
X835672Y555699D01*
X835579Y555671D01*
X835486Y555646D01*
X835392Y555624D01*
X835297Y555607D01*
X835201Y555593D01*
X835105Y555584D01*
X835009Y555578D01*
X834912Y555576D01*
X830594Y556056D02*
X830508Y556058D01*
X830422Y556064D01*
X830336Y556073D01*
X830251Y556087D01*
X830167Y556104D01*
X830083Y556125D01*
X830001Y556150D01*
X829920Y556178D01*
X829840Y556210D01*
X829761Y556246D01*
X829685Y556285D01*
X829610Y556328D01*
X829537Y556373D01*
X829466Y556422D01*
X829398Y556475D01*
X829331Y556530D01*
X829268Y556588D01*
X829207Y556649D01*
X829149Y556712D01*
X829094Y556779D01*
X829041Y556847D01*
X828992Y556918D01*
X828947Y556991D01*
X828904Y557066D01*
X828865Y557142D01*
X828829Y557221D01*
X828797Y557301D01*
X828769Y557382D01*
X828744Y557464D01*
X828723Y557548D01*
X828706Y557632D01*
X828692Y557717D01*
X828683Y557803D01*
X828677Y557889D01*
X828675Y557975D01*
X828677Y558061D01*
X828683Y558147D01*
X828692Y558233D01*
X828706Y558318D01*
X828723Y558402D01*
X828744Y558486D01*
X828769Y558568D01*
X828797Y558649D01*
X828829Y558729D01*
X828865Y558808D01*
X828904Y558884D01*
X828947Y558959D01*
X828992Y559032D01*
X829041Y559103D01*
X829094Y559171D01*
X829149Y559238D01*
X829207Y559301D01*
X829268Y559362D01*
X829331Y559420D01*
X829398Y559475D01*
X829466Y559528D01*
X829537Y559577D01*
X829610Y559622D01*
X829685Y559665D01*
X829761Y559704D01*
X829840Y559740D01*
X829920Y559772D01*
X830001Y559800D01*
X830083Y559825D01*
X830167Y559846D01*
X830251Y559863D01*
X830336Y559877D01*
X830422Y559886D01*
X830508Y559892D01*
X830594Y559894D01*
X830680Y559892D01*
X830766Y559886D01*
X830852Y559877D01*
X830937Y559863D01*
X831021Y559846D01*
X831105Y559825D01*
X831187Y559800D01*
X831268Y559772D01*
X831348Y559740D01*
X831427Y559704D01*
X831503Y559665D01*
X831578Y559622D01*
X831651Y559577D01*
X831722Y559528D01*
X831790Y559475D01*
X831857Y559420D01*
X831920Y559362D01*
X831981Y559301D01*
X832039Y559238D01*
X832094Y559171D01*
X832147Y559103D01*
X832196Y559032D01*
X832241Y558959D01*
X832284Y558884D01*
X832323Y558808D01*
X832359Y558729D01*
X832391Y558649D01*
X832419Y558568D01*
X832444Y558486D01*
X832465Y558402D01*
X832482Y558318D01*
X832496Y558233D01*
X832505Y558147D01*
X832511Y558061D01*
X832513Y557975D01*
X832511Y557889D01*
X832505Y557803D01*
X832496Y557717D01*
X832482Y557632D01*
X832465Y557548D01*
X832444Y557464D01*
X832419Y557382D01*
X832391Y557301D01*
X832359Y557221D01*
X832323Y557142D01*
X832284Y557066D01*
X832241Y556991D01*
X832196Y556918D01*
X832147Y556847D01*
X832094Y556779D01*
X832039Y556712D01*
X831981Y556649D01*
X831920Y556588D01*
X831857Y556530D01*
X831790Y556475D01*
X831722Y556422D01*
X831651Y556373D01*
X831578Y556328D01*
X831503Y556285D01*
X831427Y556246D01*
X831348Y556210D01*
X831268Y556178D01*
X831187Y556150D01*
X831105Y556125D01*
X831021Y556104D01*
X830937Y556087D01*
X830852Y556073D01*
X830766Y556064D01*
X830680Y556058D01*
X830594Y556056D01*
D15*
X850900Y598805D03*
X850900Y544195D03*
D10*
X866140Y548640D02*
X866142Y548540D01*
X866148Y548441D01*
X866158Y548341D01*
X866171Y548243D01*
X866189Y548144D01*
X866210Y548047D01*
X866235Y547951D01*
X866264Y547855D01*
X866297Y547761D01*
X866333Y547668D01*
X866373Y547577D01*
X866417Y547487D01*
X866464Y547399D01*
X866514Y547313D01*
X866568Y547229D01*
X866625Y547147D01*
X866685Y547068D01*
X866749Y546990D01*
X866815Y546916D01*
X866884Y546844D01*
X866956Y546775D01*
X867030Y546709D01*
X867108Y546645D01*
X867187Y546585D01*
X867269Y546528D01*
X867353Y546474D01*
X867439Y546424D01*
X867527Y546377D01*
X867617Y546333D01*
X867708Y546293D01*
X867801Y546257D01*
X867895Y546224D01*
X867991Y546195D01*
X868087Y546170D01*
X868184Y546149D01*
X868283Y546131D01*
X868381Y546118D01*
X868481Y546108D01*
X868580Y546102D01*
X868680Y546100D01*
X883920Y546100D02*
X884020Y546102D01*
X884119Y546108D01*
X884219Y546118D01*
X884317Y546131D01*
X884416Y546149D01*
X884513Y546170D01*
X884609Y546195D01*
X884705Y546224D01*
X884799Y546257D01*
X884892Y546293D01*
X884983Y546333D01*
X885073Y546377D01*
X885161Y546424D01*
X885247Y546474D01*
X885331Y546528D01*
X885413Y546585D01*
X885492Y546645D01*
X885570Y546709D01*
X885644Y546775D01*
X885716Y546844D01*
X885785Y546916D01*
X885851Y546990D01*
X885915Y547068D01*
X885975Y547147D01*
X886032Y547229D01*
X886086Y547313D01*
X886136Y547399D01*
X886183Y547487D01*
X886227Y547577D01*
X886267Y547668D01*
X886303Y547761D01*
X886336Y547855D01*
X886365Y547951D01*
X886390Y548047D01*
X886411Y548144D01*
X886429Y548243D01*
X886442Y548341D01*
X886452Y548441D01*
X886458Y548540D01*
X886460Y548640D01*
X886460Y594360D02*
X886458Y594460D01*
X886452Y594559D01*
X886442Y594659D01*
X886429Y594757D01*
X886411Y594856D01*
X886390Y594953D01*
X886365Y595049D01*
X886336Y595145D01*
X886303Y595239D01*
X886267Y595332D01*
X886227Y595423D01*
X886183Y595513D01*
X886136Y595601D01*
X886086Y595687D01*
X886032Y595771D01*
X885975Y595853D01*
X885915Y595932D01*
X885851Y596010D01*
X885785Y596084D01*
X885716Y596156D01*
X885644Y596225D01*
X885570Y596291D01*
X885492Y596355D01*
X885413Y596415D01*
X885331Y596472D01*
X885247Y596526D01*
X885161Y596576D01*
X885073Y596623D01*
X884983Y596667D01*
X884892Y596707D01*
X884799Y596743D01*
X884705Y596776D01*
X884609Y596805D01*
X884513Y596830D01*
X884416Y596851D01*
X884317Y596869D01*
X884219Y596882D01*
X884119Y596892D01*
X884020Y596898D01*
X883920Y596900D01*
X868680Y596900D02*
X868580Y596898D01*
X868481Y596892D01*
X868381Y596882D01*
X868283Y596869D01*
X868184Y596851D01*
X868087Y596830D01*
X867991Y596805D01*
X867895Y596776D01*
X867801Y596743D01*
X867708Y596707D01*
X867617Y596667D01*
X867527Y596623D01*
X867439Y596576D01*
X867353Y596526D01*
X867269Y596472D01*
X867187Y596415D01*
X867108Y596355D01*
X867030Y596291D01*
X866956Y596225D01*
X866884Y596156D01*
X866815Y596084D01*
X866749Y596010D01*
X866685Y595932D01*
X866625Y595853D01*
X866568Y595771D01*
X866514Y595687D01*
X866464Y595601D01*
X866417Y595513D01*
X866373Y595423D01*
X866333Y595332D01*
X866297Y595239D01*
X866264Y595145D01*
X866235Y595049D01*
X866210Y594953D01*
X866189Y594856D01*
X866171Y594757D01*
X866158Y594659D01*
X866148Y594559D01*
X866142Y594460D01*
X866140Y594360D01*
X868680Y546100D02*
X883920Y546100D01*
X866140Y548640D02*
X866140Y552450D01*
X867410Y553720D01*
X886460Y552450D02*
X886460Y548640D01*
X886460Y552450D02*
X885190Y553720D01*
X867410Y589280D02*
X866140Y590550D01*
X867410Y589280D02*
X867410Y553720D01*
X885190Y589280D02*
X886460Y590550D01*
X885190Y589280D02*
X885190Y553720D01*
X866140Y590550D02*
X866140Y594360D01*
X886460Y594360D02*
X886460Y590550D01*
X883920Y596900D02*
X868680Y596900D01*
D13*
X862711Y546735D02*
X854075Y546735D01*
X854075Y549134D01*
X854077Y549231D01*
X854083Y549327D01*
X854092Y549423D01*
X854106Y549519D01*
X854123Y549614D01*
X854145Y549708D01*
X854170Y549801D01*
X854198Y549894D01*
X854231Y549985D01*
X854267Y550074D01*
X854307Y550162D01*
X854350Y550249D01*
X854396Y550334D01*
X854446Y550416D01*
X854500Y550497D01*
X854556Y550575D01*
X854616Y550651D01*
X854678Y550725D01*
X854744Y550796D01*
X854812Y550864D01*
X854883Y550930D01*
X854957Y550992D01*
X855033Y551052D01*
X855111Y551108D01*
X855192Y551162D01*
X855275Y551212D01*
X855359Y551258D01*
X855446Y551301D01*
X855534Y551341D01*
X855623Y551377D01*
X855714Y551410D01*
X855807Y551438D01*
X855900Y551463D01*
X855994Y551485D01*
X856089Y551502D01*
X856185Y551516D01*
X856281Y551525D01*
X856377Y551531D01*
X856474Y551533D01*
X856571Y551531D01*
X856667Y551525D01*
X856763Y551516D01*
X856859Y551502D01*
X856954Y551485D01*
X857048Y551463D01*
X857141Y551438D01*
X857234Y551410D01*
X857325Y551377D01*
X857414Y551341D01*
X857502Y551301D01*
X857589Y551258D01*
X857674Y551212D01*
X857756Y551162D01*
X857837Y551108D01*
X857915Y551052D01*
X857991Y550992D01*
X858065Y550930D01*
X858136Y550864D01*
X858204Y550796D01*
X858270Y550725D01*
X858332Y550651D01*
X858392Y550575D01*
X858448Y550497D01*
X858502Y550416D01*
X858552Y550334D01*
X858598Y550249D01*
X858641Y550162D01*
X858681Y550074D01*
X858717Y549985D01*
X858750Y549894D01*
X858778Y549801D01*
X858803Y549708D01*
X858825Y549614D01*
X858842Y549519D01*
X858856Y549423D01*
X858865Y549327D01*
X858871Y549231D01*
X858873Y549134D01*
X858873Y546735D01*
X858873Y549614D02*
X862711Y551533D01*
X858873Y557495D02*
X858873Y560373D01*
X858873Y557495D02*
X858871Y557409D01*
X858865Y557323D01*
X858856Y557237D01*
X858842Y557152D01*
X858825Y557068D01*
X858804Y556984D01*
X858779Y556902D01*
X858751Y556821D01*
X858719Y556741D01*
X858683Y556662D01*
X858644Y556586D01*
X858601Y556511D01*
X858556Y556438D01*
X858507Y556367D01*
X858454Y556299D01*
X858399Y556232D01*
X858341Y556169D01*
X858280Y556108D01*
X858217Y556050D01*
X858150Y555995D01*
X858082Y555943D01*
X858011Y555893D01*
X857938Y555848D01*
X857863Y555805D01*
X857787Y555766D01*
X857708Y555730D01*
X857628Y555698D01*
X857547Y555670D01*
X857465Y555645D01*
X857381Y555624D01*
X857297Y555607D01*
X857212Y555593D01*
X857126Y555584D01*
X857040Y555578D01*
X856954Y555576D01*
X856474Y555576D01*
X856377Y555578D01*
X856281Y555584D01*
X856185Y555593D01*
X856089Y555607D01*
X855994Y555624D01*
X855900Y555646D01*
X855807Y555671D01*
X855714Y555699D01*
X855623Y555732D01*
X855534Y555768D01*
X855446Y555808D01*
X855359Y555851D01*
X855275Y555897D01*
X855192Y555947D01*
X855111Y556001D01*
X855033Y556057D01*
X854957Y556117D01*
X854883Y556179D01*
X854812Y556245D01*
X854744Y556313D01*
X854678Y556384D01*
X854616Y556458D01*
X854556Y556534D01*
X854500Y556612D01*
X854446Y556693D01*
X854396Y556776D01*
X854350Y556860D01*
X854307Y556947D01*
X854267Y557035D01*
X854231Y557124D01*
X854198Y557215D01*
X854170Y557308D01*
X854145Y557401D01*
X854123Y557495D01*
X854106Y557590D01*
X854092Y557686D01*
X854083Y557782D01*
X854077Y557878D01*
X854075Y557975D01*
X854077Y558072D01*
X854083Y558168D01*
X854092Y558264D01*
X854106Y558360D01*
X854123Y558455D01*
X854145Y558549D01*
X854170Y558642D01*
X854198Y558735D01*
X854231Y558826D01*
X854267Y558915D01*
X854307Y559003D01*
X854350Y559090D01*
X854396Y559175D01*
X854446Y559257D01*
X854500Y559338D01*
X854556Y559416D01*
X854616Y559492D01*
X854678Y559566D01*
X854744Y559637D01*
X854812Y559705D01*
X854883Y559771D01*
X854957Y559833D01*
X855033Y559893D01*
X855111Y559949D01*
X855192Y560003D01*
X855275Y560053D01*
X855359Y560099D01*
X855446Y560142D01*
X855534Y560182D01*
X855623Y560218D01*
X855714Y560251D01*
X855807Y560279D01*
X855900Y560304D01*
X855994Y560326D01*
X856089Y560343D01*
X856185Y560357D01*
X856281Y560366D01*
X856377Y560372D01*
X856474Y560374D01*
X856474Y560373D02*
X858873Y560373D01*
X858996Y560371D01*
X859119Y560365D01*
X859242Y560355D01*
X859364Y560341D01*
X859486Y560324D01*
X859607Y560302D01*
X859727Y560277D01*
X859847Y560247D01*
X859965Y560214D01*
X860082Y560177D01*
X860199Y560137D01*
X860313Y560093D01*
X860427Y560045D01*
X860538Y559993D01*
X860648Y559938D01*
X860756Y559879D01*
X860863Y559817D01*
X860967Y559752D01*
X861069Y559683D01*
X861169Y559611D01*
X861266Y559536D01*
X861361Y559457D01*
X861453Y559376D01*
X861543Y559292D01*
X861630Y559205D01*
X861714Y559115D01*
X861795Y559023D01*
X861874Y558928D01*
X861949Y558831D01*
X862021Y558731D01*
X862090Y558629D01*
X862155Y558525D01*
X862217Y558418D01*
X862276Y558310D01*
X862331Y558200D01*
X862383Y558089D01*
X862431Y557975D01*
X862475Y557861D01*
X862515Y557744D01*
X862552Y557627D01*
X862585Y557509D01*
X862615Y557389D01*
X862640Y557269D01*
X862662Y557148D01*
X862679Y557026D01*
X862693Y556904D01*
X862703Y556781D01*
X862709Y556658D01*
X862711Y556535D01*
D15*
X876300Y598805D03*
X876300Y544195D03*
D10*
X891540Y548640D02*
X891542Y548540D01*
X891548Y548441D01*
X891558Y548341D01*
X891571Y548243D01*
X891589Y548144D01*
X891610Y548047D01*
X891635Y547951D01*
X891664Y547855D01*
X891697Y547761D01*
X891733Y547668D01*
X891773Y547577D01*
X891817Y547487D01*
X891864Y547399D01*
X891914Y547313D01*
X891968Y547229D01*
X892025Y547147D01*
X892085Y547068D01*
X892149Y546990D01*
X892215Y546916D01*
X892284Y546844D01*
X892356Y546775D01*
X892430Y546709D01*
X892508Y546645D01*
X892587Y546585D01*
X892669Y546528D01*
X892753Y546474D01*
X892839Y546424D01*
X892927Y546377D01*
X893017Y546333D01*
X893108Y546293D01*
X893201Y546257D01*
X893295Y546224D01*
X893391Y546195D01*
X893487Y546170D01*
X893584Y546149D01*
X893683Y546131D01*
X893781Y546118D01*
X893881Y546108D01*
X893980Y546102D01*
X894080Y546100D01*
X909320Y546100D02*
X909420Y546102D01*
X909519Y546108D01*
X909619Y546118D01*
X909717Y546131D01*
X909816Y546149D01*
X909913Y546170D01*
X910009Y546195D01*
X910105Y546224D01*
X910199Y546257D01*
X910292Y546293D01*
X910383Y546333D01*
X910473Y546377D01*
X910561Y546424D01*
X910647Y546474D01*
X910731Y546528D01*
X910813Y546585D01*
X910892Y546645D01*
X910970Y546709D01*
X911044Y546775D01*
X911116Y546844D01*
X911185Y546916D01*
X911251Y546990D01*
X911315Y547068D01*
X911375Y547147D01*
X911432Y547229D01*
X911486Y547313D01*
X911536Y547399D01*
X911583Y547487D01*
X911627Y547577D01*
X911667Y547668D01*
X911703Y547761D01*
X911736Y547855D01*
X911765Y547951D01*
X911790Y548047D01*
X911811Y548144D01*
X911829Y548243D01*
X911842Y548341D01*
X911852Y548441D01*
X911858Y548540D01*
X911860Y548640D01*
X911860Y594360D02*
X911858Y594460D01*
X911852Y594559D01*
X911842Y594659D01*
X911829Y594757D01*
X911811Y594856D01*
X911790Y594953D01*
X911765Y595049D01*
X911736Y595145D01*
X911703Y595239D01*
X911667Y595332D01*
X911627Y595423D01*
X911583Y595513D01*
X911536Y595601D01*
X911486Y595687D01*
X911432Y595771D01*
X911375Y595853D01*
X911315Y595932D01*
X911251Y596010D01*
X911185Y596084D01*
X911116Y596156D01*
X911044Y596225D01*
X910970Y596291D01*
X910892Y596355D01*
X910813Y596415D01*
X910731Y596472D01*
X910647Y596526D01*
X910561Y596576D01*
X910473Y596623D01*
X910383Y596667D01*
X910292Y596707D01*
X910199Y596743D01*
X910105Y596776D01*
X910009Y596805D01*
X909913Y596830D01*
X909816Y596851D01*
X909717Y596869D01*
X909619Y596882D01*
X909519Y596892D01*
X909420Y596898D01*
X909320Y596900D01*
X894080Y596900D02*
X893980Y596898D01*
X893881Y596892D01*
X893781Y596882D01*
X893683Y596869D01*
X893584Y596851D01*
X893487Y596830D01*
X893391Y596805D01*
X893295Y596776D01*
X893201Y596743D01*
X893108Y596707D01*
X893017Y596667D01*
X892927Y596623D01*
X892839Y596576D01*
X892753Y596526D01*
X892669Y596472D01*
X892587Y596415D01*
X892508Y596355D01*
X892430Y596291D01*
X892356Y596225D01*
X892284Y596156D01*
X892215Y596084D01*
X892149Y596010D01*
X892085Y595932D01*
X892025Y595853D01*
X891968Y595771D01*
X891914Y595687D01*
X891864Y595601D01*
X891817Y595513D01*
X891773Y595423D01*
X891733Y595332D01*
X891697Y595239D01*
X891664Y595145D01*
X891635Y595049D01*
X891610Y594953D01*
X891589Y594856D01*
X891571Y594757D01*
X891558Y594659D01*
X891548Y594559D01*
X891542Y594460D01*
X891540Y594360D01*
X894080Y546100D02*
X909320Y546100D01*
X891540Y548640D02*
X891540Y552450D01*
X892810Y553720D01*
X911860Y552450D02*
X911860Y548640D01*
X911860Y552450D02*
X910590Y553720D01*
X892810Y589280D02*
X891540Y590550D01*
X892810Y589280D02*
X892810Y553720D01*
X910590Y589280D02*
X911860Y590550D01*
X910590Y589280D02*
X910590Y553720D01*
X891540Y590550D02*
X891540Y594360D01*
X911860Y594360D02*
X911860Y590550D01*
X909320Y596900D02*
X894080Y596900D01*
D13*
X888111Y546735D02*
X879475Y546735D01*
X879475Y549134D01*
X879477Y549231D01*
X879483Y549327D01*
X879492Y549423D01*
X879506Y549519D01*
X879523Y549614D01*
X879545Y549708D01*
X879570Y549801D01*
X879598Y549894D01*
X879631Y549985D01*
X879667Y550074D01*
X879707Y550162D01*
X879750Y550249D01*
X879796Y550334D01*
X879846Y550416D01*
X879900Y550497D01*
X879956Y550575D01*
X880016Y550651D01*
X880078Y550725D01*
X880144Y550796D01*
X880212Y550864D01*
X880283Y550930D01*
X880357Y550992D01*
X880433Y551052D01*
X880511Y551108D01*
X880592Y551162D01*
X880675Y551212D01*
X880759Y551258D01*
X880846Y551301D01*
X880934Y551341D01*
X881023Y551377D01*
X881114Y551410D01*
X881207Y551438D01*
X881300Y551463D01*
X881394Y551485D01*
X881489Y551502D01*
X881585Y551516D01*
X881681Y551525D01*
X881777Y551531D01*
X881874Y551533D01*
X881971Y551531D01*
X882067Y551525D01*
X882163Y551516D01*
X882259Y551502D01*
X882354Y551485D01*
X882448Y551463D01*
X882541Y551438D01*
X882634Y551410D01*
X882725Y551377D01*
X882814Y551341D01*
X882902Y551301D01*
X882989Y551258D01*
X883074Y551212D01*
X883156Y551162D01*
X883237Y551108D01*
X883315Y551052D01*
X883391Y550992D01*
X883465Y550930D01*
X883536Y550864D01*
X883604Y550796D01*
X883670Y550725D01*
X883732Y550651D01*
X883792Y550575D01*
X883848Y550497D01*
X883902Y550416D01*
X883952Y550334D01*
X883998Y550249D01*
X884041Y550162D01*
X884081Y550074D01*
X884117Y549985D01*
X884150Y549894D01*
X884178Y549801D01*
X884203Y549708D01*
X884225Y549614D01*
X884242Y549519D01*
X884256Y549423D01*
X884265Y549327D01*
X884271Y549231D01*
X884273Y549134D01*
X884273Y546735D01*
X884273Y549614D02*
X888111Y551533D01*
X881394Y555576D02*
X879475Y557975D01*
X888111Y557975D01*
X888111Y560373D02*
X888111Y555576D01*
X883793Y564491D02*
X883623Y564493D01*
X883453Y564499D01*
X883284Y564509D01*
X883114Y564523D01*
X882945Y564542D01*
X882777Y564564D01*
X882609Y564590D01*
X882442Y564620D01*
X882276Y564655D01*
X882110Y564693D01*
X881945Y564735D01*
X881782Y564781D01*
X881620Y564831D01*
X881458Y564885D01*
X881299Y564942D01*
X881140Y565004D01*
X880983Y565069D01*
X880828Y565138D01*
X880674Y565211D01*
X880598Y565239D01*
X880523Y565271D01*
X880449Y565306D01*
X880377Y565344D01*
X880307Y565386D01*
X880239Y565431D01*
X880173Y565479D01*
X880109Y565530D01*
X880048Y565584D01*
X879989Y565640D01*
X879933Y565700D01*
X879880Y565761D01*
X879830Y565825D01*
X879782Y565892D01*
X879738Y565960D01*
X879697Y566031D01*
X879659Y566103D01*
X879625Y566177D01*
X879594Y566252D01*
X879566Y566329D01*
X879542Y566407D01*
X879522Y566486D01*
X879505Y566566D01*
X879492Y566646D01*
X879482Y566727D01*
X879477Y566808D01*
X879475Y566890D01*
X879477Y566972D01*
X879482Y567053D01*
X879492Y567134D01*
X879505Y567214D01*
X879522Y567294D01*
X879542Y567373D01*
X879566Y567451D01*
X879594Y567528D01*
X879625Y567603D01*
X879659Y567677D01*
X879697Y567749D01*
X879738Y567820D01*
X879782Y567888D01*
X879830Y567955D01*
X879880Y568019D01*
X879933Y568080D01*
X879989Y568140D01*
X880048Y568196D01*
X880109Y568250D01*
X880173Y568301D01*
X880239Y568349D01*
X880307Y568394D01*
X880377Y568436D01*
X880449Y568474D01*
X880523Y568509D01*
X880598Y568541D01*
X880674Y568569D01*
X880828Y568642D01*
X880983Y568711D01*
X881140Y568776D01*
X881299Y568838D01*
X881458Y568895D01*
X881620Y568949D01*
X881782Y568999D01*
X881945Y569045D01*
X882110Y569087D01*
X882276Y569125D01*
X882442Y569160D01*
X882609Y569190D01*
X882777Y569216D01*
X882945Y569238D01*
X883114Y569257D01*
X883284Y569271D01*
X883453Y569281D01*
X883623Y569287D01*
X883793Y569289D01*
X883793Y564491D02*
X883963Y564493D01*
X884133Y564499D01*
X884302Y564509D01*
X884472Y564523D01*
X884641Y564542D01*
X884809Y564564D01*
X884977Y564590D01*
X885144Y564620D01*
X885310Y564655D01*
X885476Y564693D01*
X885641Y564735D01*
X885804Y564781D01*
X885966Y564831D01*
X886128Y564885D01*
X886287Y564942D01*
X886446Y565004D01*
X886603Y565069D01*
X886758Y565138D01*
X886912Y565211D01*
X886988Y565239D01*
X887063Y565271D01*
X887137Y565306D01*
X887209Y565344D01*
X887279Y565386D01*
X887347Y565431D01*
X887413Y565479D01*
X887477Y565530D01*
X887538Y565584D01*
X887597Y565640D01*
X887653Y565700D01*
X887706Y565761D01*
X887756Y565825D01*
X887804Y565892D01*
X887848Y565960D01*
X887889Y566031D01*
X887927Y566103D01*
X887961Y566177D01*
X887992Y566252D01*
X888020Y566329D01*
X888044Y566407D01*
X888064Y566486D01*
X888081Y566566D01*
X888094Y566646D01*
X888104Y566727D01*
X888109Y566808D01*
X888111Y566890D01*
X886912Y568569D02*
X886758Y568642D01*
X886603Y568711D01*
X886446Y568776D01*
X886287Y568838D01*
X886128Y568895D01*
X885966Y568949D01*
X885804Y568999D01*
X885641Y569045D01*
X885476Y569087D01*
X885310Y569125D01*
X885144Y569160D01*
X884977Y569190D01*
X884809Y569216D01*
X884641Y569238D01*
X884472Y569257D01*
X884302Y569271D01*
X884133Y569281D01*
X883963Y569287D01*
X883793Y569289D01*
X886912Y568569D02*
X886988Y568541D01*
X887063Y568509D01*
X887137Y568474D01*
X887209Y568436D01*
X887279Y568394D01*
X887347Y568349D01*
X887413Y568301D01*
X887477Y568250D01*
X887538Y568196D01*
X887597Y568140D01*
X887653Y568080D01*
X887706Y568019D01*
X887756Y567955D01*
X887804Y567888D01*
X887848Y567820D01*
X887889Y567749D01*
X887927Y567677D01*
X887961Y567603D01*
X887992Y567528D01*
X888020Y567451D01*
X888044Y567373D01*
X888064Y567294D01*
X888081Y567214D01*
X888094Y567134D01*
X888104Y567053D01*
X888109Y566972D01*
X888111Y566890D01*
X886192Y564971D02*
X881394Y568809D01*
D15*
X901700Y598805D03*
X901700Y544195D03*
D10*
X916940Y548640D02*
X916942Y548540D01*
X916948Y548441D01*
X916958Y548341D01*
X916971Y548243D01*
X916989Y548144D01*
X917010Y548047D01*
X917035Y547951D01*
X917064Y547855D01*
X917097Y547761D01*
X917133Y547668D01*
X917173Y547577D01*
X917217Y547487D01*
X917264Y547399D01*
X917314Y547313D01*
X917368Y547229D01*
X917425Y547147D01*
X917485Y547068D01*
X917549Y546990D01*
X917615Y546916D01*
X917684Y546844D01*
X917756Y546775D01*
X917830Y546709D01*
X917908Y546645D01*
X917987Y546585D01*
X918069Y546528D01*
X918153Y546474D01*
X918239Y546424D01*
X918327Y546377D01*
X918417Y546333D01*
X918508Y546293D01*
X918601Y546257D01*
X918695Y546224D01*
X918791Y546195D01*
X918887Y546170D01*
X918984Y546149D01*
X919083Y546131D01*
X919181Y546118D01*
X919281Y546108D01*
X919380Y546102D01*
X919480Y546100D01*
X934720Y546100D02*
X934820Y546102D01*
X934919Y546108D01*
X935019Y546118D01*
X935117Y546131D01*
X935216Y546149D01*
X935313Y546170D01*
X935409Y546195D01*
X935505Y546224D01*
X935599Y546257D01*
X935692Y546293D01*
X935783Y546333D01*
X935873Y546377D01*
X935961Y546424D01*
X936047Y546474D01*
X936131Y546528D01*
X936213Y546585D01*
X936292Y546645D01*
X936370Y546709D01*
X936444Y546775D01*
X936516Y546844D01*
X936585Y546916D01*
X936651Y546990D01*
X936715Y547068D01*
X936775Y547147D01*
X936832Y547229D01*
X936886Y547313D01*
X936936Y547399D01*
X936983Y547487D01*
X937027Y547577D01*
X937067Y547668D01*
X937103Y547761D01*
X937136Y547855D01*
X937165Y547951D01*
X937190Y548047D01*
X937211Y548144D01*
X937229Y548243D01*
X937242Y548341D01*
X937252Y548441D01*
X937258Y548540D01*
X937260Y548640D01*
X937260Y594360D02*
X937258Y594460D01*
X937252Y594559D01*
X937242Y594659D01*
X937229Y594757D01*
X937211Y594856D01*
X937190Y594953D01*
X937165Y595049D01*
X937136Y595145D01*
X937103Y595239D01*
X937067Y595332D01*
X937027Y595423D01*
X936983Y595513D01*
X936936Y595601D01*
X936886Y595687D01*
X936832Y595771D01*
X936775Y595853D01*
X936715Y595932D01*
X936651Y596010D01*
X936585Y596084D01*
X936516Y596156D01*
X936444Y596225D01*
X936370Y596291D01*
X936292Y596355D01*
X936213Y596415D01*
X936131Y596472D01*
X936047Y596526D01*
X935961Y596576D01*
X935873Y596623D01*
X935783Y596667D01*
X935692Y596707D01*
X935599Y596743D01*
X935505Y596776D01*
X935409Y596805D01*
X935313Y596830D01*
X935216Y596851D01*
X935117Y596869D01*
X935019Y596882D01*
X934919Y596892D01*
X934820Y596898D01*
X934720Y596900D01*
X919480Y596900D02*
X919380Y596898D01*
X919281Y596892D01*
X919181Y596882D01*
X919083Y596869D01*
X918984Y596851D01*
X918887Y596830D01*
X918791Y596805D01*
X918695Y596776D01*
X918601Y596743D01*
X918508Y596707D01*
X918417Y596667D01*
X918327Y596623D01*
X918239Y596576D01*
X918153Y596526D01*
X918069Y596472D01*
X917987Y596415D01*
X917908Y596355D01*
X917830Y596291D01*
X917756Y596225D01*
X917684Y596156D01*
X917615Y596084D01*
X917549Y596010D01*
X917485Y595932D01*
X917425Y595853D01*
X917368Y595771D01*
X917314Y595687D01*
X917264Y595601D01*
X917217Y595513D01*
X917173Y595423D01*
X917133Y595332D01*
X917097Y595239D01*
X917064Y595145D01*
X917035Y595049D01*
X917010Y594953D01*
X916989Y594856D01*
X916971Y594757D01*
X916958Y594659D01*
X916948Y594559D01*
X916942Y594460D01*
X916940Y594360D01*
X919480Y546100D02*
X934720Y546100D01*
X916940Y548640D02*
X916940Y552450D01*
X918210Y553720D01*
X937260Y552450D02*
X937260Y548640D01*
X937260Y552450D02*
X935990Y553720D01*
X918210Y589280D02*
X916940Y590550D01*
X918210Y589280D02*
X918210Y553720D01*
X935990Y589280D02*
X937260Y590550D01*
X935990Y589280D02*
X935990Y553720D01*
X916940Y590550D02*
X916940Y594360D01*
X937260Y594360D02*
X937260Y590550D01*
X934720Y596900D02*
X919480Y596900D01*
D13*
X913511Y546735D02*
X904875Y546735D01*
X904875Y549134D01*
X904877Y549231D01*
X904883Y549327D01*
X904892Y549423D01*
X904906Y549519D01*
X904923Y549614D01*
X904945Y549708D01*
X904970Y549801D01*
X904998Y549894D01*
X905031Y549985D01*
X905067Y550074D01*
X905107Y550162D01*
X905150Y550249D01*
X905196Y550334D01*
X905246Y550416D01*
X905300Y550497D01*
X905356Y550575D01*
X905416Y550651D01*
X905478Y550725D01*
X905544Y550796D01*
X905612Y550864D01*
X905683Y550930D01*
X905757Y550992D01*
X905833Y551052D01*
X905911Y551108D01*
X905992Y551162D01*
X906075Y551212D01*
X906159Y551258D01*
X906246Y551301D01*
X906334Y551341D01*
X906423Y551377D01*
X906514Y551410D01*
X906607Y551438D01*
X906700Y551463D01*
X906794Y551485D01*
X906889Y551502D01*
X906985Y551516D01*
X907081Y551525D01*
X907177Y551531D01*
X907274Y551533D01*
X907371Y551531D01*
X907467Y551525D01*
X907563Y551516D01*
X907659Y551502D01*
X907754Y551485D01*
X907848Y551463D01*
X907941Y551438D01*
X908034Y551410D01*
X908125Y551377D01*
X908214Y551341D01*
X908302Y551301D01*
X908389Y551258D01*
X908474Y551212D01*
X908556Y551162D01*
X908637Y551108D01*
X908715Y551052D01*
X908791Y550992D01*
X908865Y550930D01*
X908936Y550864D01*
X909004Y550796D01*
X909070Y550725D01*
X909132Y550651D01*
X909192Y550575D01*
X909248Y550497D01*
X909302Y550416D01*
X909352Y550334D01*
X909398Y550249D01*
X909441Y550162D01*
X909481Y550074D01*
X909517Y549985D01*
X909550Y549894D01*
X909578Y549801D01*
X909603Y549708D01*
X909625Y549614D01*
X909642Y549519D01*
X909656Y549423D01*
X909665Y549327D01*
X909671Y549231D01*
X909673Y549134D01*
X909673Y546735D01*
X909673Y549614D02*
X913511Y551533D01*
X906794Y555576D02*
X904875Y557975D01*
X913511Y557975D01*
X913511Y560373D02*
X913511Y555576D01*
X906794Y564491D02*
X904875Y566890D01*
X913511Y566890D01*
X913511Y564491D02*
X913511Y569289D01*
D15*
X927100Y598805D03*
X927100Y544195D03*
D12*
X699790Y331350D02*
X646410Y331350D01*
X646410Y354450D01*
X699790Y354450D01*
X699790Y331350D01*
D13*
X681637Y369302D02*
X685941Y372745D01*
X685941Y357251D01*
X681637Y357251D02*
X690245Y357251D01*
D14*
X705358Y344311D02*
X717042Y336522D01*
X717042Y344311D02*
X705358Y336522D01*
X717042Y348601D02*
X717042Y351846D01*
X717040Y351959D01*
X717034Y352072D01*
X717024Y352185D01*
X717010Y352298D01*
X716993Y352410D01*
X716971Y352521D01*
X716946Y352631D01*
X716916Y352741D01*
X716883Y352849D01*
X716846Y352956D01*
X716806Y353062D01*
X716761Y353166D01*
X716713Y353269D01*
X716662Y353370D01*
X716607Y353469D01*
X716549Y353566D01*
X716487Y353661D01*
X716422Y353754D01*
X716354Y353844D01*
X716283Y353932D01*
X716208Y354018D01*
X716131Y354101D01*
X716051Y354181D01*
X715968Y354258D01*
X715882Y354333D01*
X715794Y354404D01*
X715704Y354472D01*
X715611Y354537D01*
X715516Y354599D01*
X715419Y354657D01*
X715320Y354712D01*
X715219Y354763D01*
X715116Y354811D01*
X715012Y354856D01*
X714906Y354896D01*
X714799Y354933D01*
X714691Y354966D01*
X714581Y354996D01*
X714471Y355021D01*
X714360Y355043D01*
X714248Y355060D01*
X714135Y355074D01*
X714022Y355084D01*
X713909Y355090D01*
X713796Y355092D01*
X713683Y355090D01*
X713570Y355084D01*
X713457Y355074D01*
X713344Y355060D01*
X713232Y355043D01*
X713121Y355021D01*
X713011Y354996D01*
X712901Y354966D01*
X712793Y354933D01*
X712686Y354896D01*
X712580Y354856D01*
X712476Y354811D01*
X712373Y354763D01*
X712272Y354712D01*
X712173Y354657D01*
X712076Y354599D01*
X711981Y354537D01*
X711888Y354472D01*
X711798Y354404D01*
X711710Y354333D01*
X711624Y354258D01*
X711541Y354181D01*
X711461Y354101D01*
X711384Y354018D01*
X711309Y353932D01*
X711238Y353844D01*
X711170Y353754D01*
X711105Y353661D01*
X711043Y353566D01*
X710985Y353469D01*
X710930Y353370D01*
X710879Y353269D01*
X710831Y353166D01*
X710786Y353062D01*
X710746Y352956D01*
X710709Y352849D01*
X710676Y352741D01*
X710646Y352631D01*
X710621Y352521D01*
X710599Y352410D01*
X710582Y352298D01*
X710568Y352185D01*
X710558Y352072D01*
X710552Y351959D01*
X710550Y351846D01*
X705358Y352496D02*
X705358Y348601D01*
X705358Y352496D02*
X705360Y352597D01*
X705366Y352697D01*
X705376Y352797D01*
X705389Y352897D01*
X705407Y352996D01*
X705428Y353095D01*
X705453Y353192D01*
X705482Y353289D01*
X705515Y353384D01*
X705551Y353478D01*
X705591Y353570D01*
X705634Y353661D01*
X705681Y353750D01*
X705731Y353837D01*
X705785Y353923D01*
X705842Y354006D01*
X705902Y354086D01*
X705965Y354165D01*
X706032Y354241D01*
X706101Y354314D01*
X706173Y354384D01*
X706247Y354452D01*
X706324Y354517D01*
X706404Y354578D01*
X706486Y354637D01*
X706570Y354692D01*
X706656Y354744D01*
X706744Y354793D01*
X706834Y354838D01*
X706926Y354880D01*
X707019Y354918D01*
X707114Y354952D01*
X707209Y354983D01*
X707306Y355010D01*
X707404Y355033D01*
X707503Y355053D01*
X707603Y355068D01*
X707703Y355080D01*
X707803Y355088D01*
X707904Y355092D01*
X708004Y355092D01*
X708105Y355088D01*
X708205Y355080D01*
X708305Y355068D01*
X708405Y355053D01*
X708504Y355033D01*
X708602Y355010D01*
X708699Y354983D01*
X708794Y354952D01*
X708889Y354918D01*
X708982Y354880D01*
X709074Y354838D01*
X709164Y354793D01*
X709252Y354744D01*
X709338Y354692D01*
X709422Y354637D01*
X709504Y354578D01*
X709584Y354517D01*
X709661Y354452D01*
X709735Y354384D01*
X709807Y354314D01*
X709876Y354241D01*
X709943Y354165D01*
X710006Y354086D01*
X710066Y354006D01*
X710123Y353923D01*
X710177Y353837D01*
X710227Y353750D01*
X710274Y353661D01*
X710317Y353570D01*
X710357Y353478D01*
X710393Y353384D01*
X710426Y353289D01*
X710455Y353192D01*
X710480Y353095D01*
X710501Y352996D01*
X710519Y352897D01*
X710532Y352797D01*
X710542Y352697D01*
X710548Y352597D01*
X710550Y352496D01*
X710551Y352496D02*
X710551Y349899D01*
D12*
X699790Y356750D02*
X646410Y356750D01*
X646410Y379850D01*
X699790Y379850D01*
X699790Y356750D01*
D13*
X681637Y394702D02*
X685941Y398145D01*
X685941Y382651D01*
X681637Y382651D02*
X690245Y382651D01*
D14*
X705358Y369711D02*
X717042Y361922D01*
X717042Y369711D02*
X705358Y361922D01*
X705358Y376597D02*
X714446Y374001D01*
X714446Y380492D01*
X711849Y378545D02*
X717042Y378545D01*
D10*
X942340Y421640D02*
X942342Y421540D01*
X942348Y421441D01*
X942358Y421341D01*
X942371Y421243D01*
X942389Y421144D01*
X942410Y421047D01*
X942435Y420951D01*
X942464Y420855D01*
X942497Y420761D01*
X942533Y420668D01*
X942573Y420577D01*
X942617Y420487D01*
X942664Y420399D01*
X942714Y420313D01*
X942768Y420229D01*
X942825Y420147D01*
X942885Y420068D01*
X942949Y419990D01*
X943015Y419916D01*
X943084Y419844D01*
X943156Y419775D01*
X943230Y419709D01*
X943308Y419645D01*
X943387Y419585D01*
X943469Y419528D01*
X943553Y419474D01*
X943639Y419424D01*
X943727Y419377D01*
X943817Y419333D01*
X943908Y419293D01*
X944001Y419257D01*
X944095Y419224D01*
X944191Y419195D01*
X944287Y419170D01*
X944384Y419149D01*
X944483Y419131D01*
X944581Y419118D01*
X944681Y419108D01*
X944780Y419102D01*
X944880Y419100D01*
X960120Y419100D02*
X960220Y419102D01*
X960319Y419108D01*
X960419Y419118D01*
X960517Y419131D01*
X960616Y419149D01*
X960713Y419170D01*
X960809Y419195D01*
X960905Y419224D01*
X960999Y419257D01*
X961092Y419293D01*
X961183Y419333D01*
X961273Y419377D01*
X961361Y419424D01*
X961447Y419474D01*
X961531Y419528D01*
X961613Y419585D01*
X961692Y419645D01*
X961770Y419709D01*
X961844Y419775D01*
X961916Y419844D01*
X961985Y419916D01*
X962051Y419990D01*
X962115Y420068D01*
X962175Y420147D01*
X962232Y420229D01*
X962286Y420313D01*
X962336Y420399D01*
X962383Y420487D01*
X962427Y420577D01*
X962467Y420668D01*
X962503Y420761D01*
X962536Y420855D01*
X962565Y420951D01*
X962590Y421047D01*
X962611Y421144D01*
X962629Y421243D01*
X962642Y421341D01*
X962652Y421441D01*
X962658Y421540D01*
X962660Y421640D01*
X962660Y467360D02*
X962658Y467460D01*
X962652Y467559D01*
X962642Y467659D01*
X962629Y467757D01*
X962611Y467856D01*
X962590Y467953D01*
X962565Y468049D01*
X962536Y468145D01*
X962503Y468239D01*
X962467Y468332D01*
X962427Y468423D01*
X962383Y468513D01*
X962336Y468601D01*
X962286Y468687D01*
X962232Y468771D01*
X962175Y468853D01*
X962115Y468932D01*
X962051Y469010D01*
X961985Y469084D01*
X961916Y469156D01*
X961844Y469225D01*
X961770Y469291D01*
X961692Y469355D01*
X961613Y469415D01*
X961531Y469472D01*
X961447Y469526D01*
X961361Y469576D01*
X961273Y469623D01*
X961183Y469667D01*
X961092Y469707D01*
X960999Y469743D01*
X960905Y469776D01*
X960809Y469805D01*
X960713Y469830D01*
X960616Y469851D01*
X960517Y469869D01*
X960419Y469882D01*
X960319Y469892D01*
X960220Y469898D01*
X960120Y469900D01*
X944880Y469900D02*
X944780Y469898D01*
X944681Y469892D01*
X944581Y469882D01*
X944483Y469869D01*
X944384Y469851D01*
X944287Y469830D01*
X944191Y469805D01*
X944095Y469776D01*
X944001Y469743D01*
X943908Y469707D01*
X943817Y469667D01*
X943727Y469623D01*
X943639Y469576D01*
X943553Y469526D01*
X943469Y469472D01*
X943387Y469415D01*
X943308Y469355D01*
X943230Y469291D01*
X943156Y469225D01*
X943084Y469156D01*
X943015Y469084D01*
X942949Y469010D01*
X942885Y468932D01*
X942825Y468853D01*
X942768Y468771D01*
X942714Y468687D01*
X942664Y468601D01*
X942617Y468513D01*
X942573Y468423D01*
X942533Y468332D01*
X942497Y468239D01*
X942464Y468145D01*
X942435Y468049D01*
X942410Y467953D01*
X942389Y467856D01*
X942371Y467757D01*
X942358Y467659D01*
X942348Y467559D01*
X942342Y467460D01*
X942340Y467360D01*
X944880Y419100D02*
X960120Y419100D01*
X942340Y421640D02*
X942340Y425450D01*
X943610Y426720D01*
X962660Y425450D02*
X962660Y421640D01*
X962660Y425450D02*
X961390Y426720D01*
X943610Y462280D02*
X942340Y463550D01*
X943610Y462280D02*
X943610Y426720D01*
X961390Y462280D02*
X962660Y463550D01*
X961390Y462280D02*
X961390Y426720D01*
X942340Y463550D02*
X942340Y467360D01*
X962660Y467360D02*
X962660Y463550D01*
X960120Y469900D02*
X944880Y469900D01*
D13*
X938911Y419735D02*
X930275Y419735D01*
X930275Y422134D01*
X930277Y422231D01*
X930283Y422327D01*
X930292Y422423D01*
X930306Y422519D01*
X930323Y422614D01*
X930345Y422708D01*
X930370Y422801D01*
X930398Y422894D01*
X930431Y422985D01*
X930467Y423074D01*
X930507Y423162D01*
X930550Y423249D01*
X930596Y423334D01*
X930646Y423416D01*
X930700Y423497D01*
X930756Y423575D01*
X930816Y423651D01*
X930878Y423725D01*
X930944Y423796D01*
X931012Y423864D01*
X931083Y423930D01*
X931157Y423992D01*
X931233Y424052D01*
X931311Y424108D01*
X931392Y424162D01*
X931475Y424212D01*
X931559Y424258D01*
X931646Y424301D01*
X931734Y424341D01*
X931823Y424377D01*
X931914Y424410D01*
X932007Y424438D01*
X932100Y424463D01*
X932194Y424485D01*
X932289Y424502D01*
X932385Y424516D01*
X932481Y424525D01*
X932577Y424531D01*
X932674Y424533D01*
X932771Y424531D01*
X932867Y424525D01*
X932963Y424516D01*
X933059Y424502D01*
X933154Y424485D01*
X933248Y424463D01*
X933341Y424438D01*
X933434Y424410D01*
X933525Y424377D01*
X933614Y424341D01*
X933702Y424301D01*
X933789Y424258D01*
X933874Y424212D01*
X933956Y424162D01*
X934037Y424108D01*
X934115Y424052D01*
X934191Y423992D01*
X934265Y423930D01*
X934336Y423864D01*
X934404Y423796D01*
X934470Y423725D01*
X934532Y423651D01*
X934592Y423575D01*
X934648Y423497D01*
X934702Y423416D01*
X934752Y423334D01*
X934798Y423249D01*
X934841Y423162D01*
X934881Y423074D01*
X934917Y422985D01*
X934950Y422894D01*
X934978Y422801D01*
X935003Y422708D01*
X935025Y422614D01*
X935042Y422519D01*
X935056Y422423D01*
X935065Y422327D01*
X935071Y422231D01*
X935073Y422134D01*
X935073Y419735D01*
X935073Y422614D02*
X938911Y424533D01*
X932194Y428576D02*
X930275Y430975D01*
X938911Y430975D01*
X938911Y433373D02*
X938911Y428576D01*
X930275Y440130D02*
X930277Y440222D01*
X930283Y440313D01*
X930292Y440404D01*
X930306Y440495D01*
X930323Y440585D01*
X930345Y440674D01*
X930370Y440762D01*
X930398Y440849D01*
X930431Y440935D01*
X930467Y441019D01*
X930506Y441102D01*
X930549Y441183D01*
X930596Y441262D01*
X930645Y441339D01*
X930698Y441414D01*
X930754Y441486D01*
X930813Y441556D01*
X930875Y441624D01*
X930940Y441689D01*
X931008Y441751D01*
X931078Y441810D01*
X931150Y441866D01*
X931225Y441919D01*
X931302Y441968D01*
X931381Y442015D01*
X931462Y442058D01*
X931545Y442097D01*
X931629Y442133D01*
X931715Y442166D01*
X931802Y442194D01*
X931890Y442219D01*
X931979Y442241D01*
X932069Y442258D01*
X932160Y442272D01*
X932251Y442281D01*
X932342Y442287D01*
X932434Y442289D01*
X930275Y440130D02*
X930277Y440027D01*
X930283Y439925D01*
X930292Y439823D01*
X930305Y439721D01*
X930322Y439620D01*
X930343Y439519D01*
X930367Y439420D01*
X930396Y439321D01*
X930427Y439224D01*
X930463Y439127D01*
X930501Y439032D01*
X930544Y438939D01*
X930590Y438847D01*
X930639Y438757D01*
X930691Y438669D01*
X930747Y438582D01*
X930806Y438498D01*
X930867Y438417D01*
X930932Y438337D01*
X931000Y438260D01*
X931071Y438185D01*
X931144Y438114D01*
X931220Y438045D01*
X931298Y437978D01*
X931379Y437915D01*
X931462Y437855D01*
X931547Y437798D01*
X931634Y437744D01*
X931724Y437693D01*
X931815Y437646D01*
X931907Y437602D01*
X932002Y437561D01*
X932097Y437524D01*
X932194Y437491D01*
X934113Y441569D02*
X934047Y441636D01*
X933978Y441700D01*
X933907Y441761D01*
X933833Y441819D01*
X933757Y441874D01*
X933679Y441926D01*
X933599Y441975D01*
X933517Y442021D01*
X933433Y442063D01*
X933347Y442102D01*
X933260Y442137D01*
X933172Y442168D01*
X933082Y442196D01*
X932992Y442221D01*
X932900Y442242D01*
X932808Y442259D01*
X932715Y442272D01*
X932622Y442281D01*
X932528Y442287D01*
X932434Y442289D01*
X934113Y441569D02*
X938911Y437491D01*
X938911Y442289D01*
D15*
X952500Y471805D03*
X952500Y417195D03*
D10*
X891540Y378460D02*
X891440Y378458D01*
X891341Y378452D01*
X891241Y378442D01*
X891143Y378429D01*
X891044Y378411D01*
X890947Y378390D01*
X890851Y378365D01*
X890755Y378336D01*
X890661Y378303D01*
X890568Y378267D01*
X890477Y378227D01*
X890387Y378183D01*
X890299Y378136D01*
X890213Y378086D01*
X890129Y378032D01*
X890047Y377975D01*
X889968Y377915D01*
X889890Y377851D01*
X889816Y377785D01*
X889744Y377716D01*
X889675Y377644D01*
X889609Y377570D01*
X889545Y377492D01*
X889485Y377413D01*
X889428Y377331D01*
X889374Y377247D01*
X889324Y377161D01*
X889277Y377073D01*
X889233Y376983D01*
X889193Y376892D01*
X889157Y376799D01*
X889124Y376705D01*
X889095Y376609D01*
X889070Y376513D01*
X889049Y376416D01*
X889031Y376317D01*
X889018Y376219D01*
X889008Y376119D01*
X889002Y376020D01*
X889000Y375920D01*
X889000Y360680D02*
X889002Y360580D01*
X889008Y360481D01*
X889018Y360381D01*
X889031Y360283D01*
X889049Y360184D01*
X889070Y360087D01*
X889095Y359991D01*
X889124Y359895D01*
X889157Y359801D01*
X889193Y359708D01*
X889233Y359617D01*
X889277Y359527D01*
X889324Y359439D01*
X889374Y359353D01*
X889428Y359269D01*
X889485Y359187D01*
X889545Y359108D01*
X889609Y359030D01*
X889675Y358956D01*
X889744Y358884D01*
X889816Y358815D01*
X889890Y358749D01*
X889968Y358685D01*
X890047Y358625D01*
X890129Y358568D01*
X890213Y358514D01*
X890299Y358464D01*
X890387Y358417D01*
X890477Y358373D01*
X890568Y358333D01*
X890661Y358297D01*
X890755Y358264D01*
X890851Y358235D01*
X890947Y358210D01*
X891044Y358189D01*
X891143Y358171D01*
X891241Y358158D01*
X891341Y358148D01*
X891440Y358142D01*
X891540Y358140D01*
X937260Y358140D02*
X937360Y358142D01*
X937459Y358148D01*
X937559Y358158D01*
X937657Y358171D01*
X937756Y358189D01*
X937853Y358210D01*
X937949Y358235D01*
X938045Y358264D01*
X938139Y358297D01*
X938232Y358333D01*
X938323Y358373D01*
X938413Y358417D01*
X938501Y358464D01*
X938587Y358514D01*
X938671Y358568D01*
X938753Y358625D01*
X938832Y358685D01*
X938910Y358749D01*
X938984Y358815D01*
X939056Y358884D01*
X939125Y358956D01*
X939191Y359030D01*
X939255Y359108D01*
X939315Y359187D01*
X939372Y359269D01*
X939426Y359353D01*
X939476Y359439D01*
X939523Y359527D01*
X939567Y359617D01*
X939607Y359708D01*
X939643Y359801D01*
X939676Y359895D01*
X939705Y359991D01*
X939730Y360087D01*
X939751Y360184D01*
X939769Y360283D01*
X939782Y360381D01*
X939792Y360481D01*
X939798Y360580D01*
X939800Y360680D01*
X939800Y375920D02*
X939798Y376020D01*
X939792Y376119D01*
X939782Y376219D01*
X939769Y376317D01*
X939751Y376416D01*
X939730Y376513D01*
X939705Y376609D01*
X939676Y376705D01*
X939643Y376799D01*
X939607Y376892D01*
X939567Y376983D01*
X939523Y377073D01*
X939476Y377161D01*
X939426Y377247D01*
X939372Y377331D01*
X939315Y377413D01*
X939255Y377492D01*
X939191Y377570D01*
X939125Y377644D01*
X939056Y377716D01*
X938984Y377785D01*
X938910Y377851D01*
X938832Y377915D01*
X938753Y377975D01*
X938671Y378032D01*
X938587Y378086D01*
X938501Y378136D01*
X938413Y378183D01*
X938323Y378227D01*
X938232Y378267D01*
X938139Y378303D01*
X938045Y378336D01*
X937949Y378365D01*
X937853Y378390D01*
X937756Y378411D01*
X937657Y378429D01*
X937559Y378442D01*
X937459Y378452D01*
X937360Y378458D01*
X937260Y378460D01*
X889000Y375920D02*
X889000Y360680D01*
X891540Y378460D02*
X895350Y378460D01*
X896620Y377190D01*
X895350Y358140D02*
X891540Y358140D01*
X895350Y358140D02*
X896620Y359410D01*
X932180Y377190D02*
X933450Y378460D01*
X932180Y377190D02*
X896620Y377190D01*
X932180Y359410D02*
X933450Y358140D01*
X932180Y359410D02*
X896620Y359410D01*
X933450Y378460D02*
X937260Y378460D01*
X937260Y358140D02*
X933450Y358140D01*
X939800Y360680D02*
X939800Y375920D01*
D13*
X889635Y381889D02*
X889635Y390525D01*
X892034Y390525D01*
X892131Y390523D01*
X892227Y390517D01*
X892323Y390508D01*
X892419Y390494D01*
X892514Y390477D01*
X892608Y390455D01*
X892701Y390430D01*
X892794Y390402D01*
X892885Y390369D01*
X892974Y390333D01*
X893062Y390293D01*
X893149Y390250D01*
X893234Y390204D01*
X893316Y390154D01*
X893397Y390100D01*
X893475Y390044D01*
X893551Y389984D01*
X893625Y389922D01*
X893696Y389856D01*
X893764Y389788D01*
X893830Y389717D01*
X893892Y389643D01*
X893952Y389567D01*
X894008Y389489D01*
X894062Y389408D01*
X894112Y389326D01*
X894158Y389241D01*
X894201Y389154D01*
X894241Y389066D01*
X894277Y388977D01*
X894310Y388886D01*
X894338Y388793D01*
X894363Y388700D01*
X894385Y388606D01*
X894402Y388511D01*
X894416Y388415D01*
X894425Y388319D01*
X894431Y388223D01*
X894433Y388126D01*
X894431Y388029D01*
X894425Y387933D01*
X894416Y387837D01*
X894402Y387741D01*
X894385Y387646D01*
X894363Y387552D01*
X894338Y387459D01*
X894310Y387366D01*
X894277Y387275D01*
X894241Y387186D01*
X894201Y387098D01*
X894158Y387011D01*
X894112Y386927D01*
X894062Y386844D01*
X894008Y386763D01*
X893952Y386685D01*
X893892Y386609D01*
X893830Y386535D01*
X893764Y386464D01*
X893696Y386396D01*
X893625Y386330D01*
X893551Y386268D01*
X893475Y386208D01*
X893397Y386152D01*
X893316Y386098D01*
X893234Y386048D01*
X893149Y386002D01*
X893062Y385959D01*
X892974Y385919D01*
X892885Y385883D01*
X892794Y385850D01*
X892701Y385822D01*
X892608Y385797D01*
X892514Y385775D01*
X892419Y385758D01*
X892323Y385744D01*
X892227Y385735D01*
X892131Y385729D01*
X892034Y385727D01*
X889635Y385727D01*
X892514Y385727D02*
X894433Y381889D01*
X898476Y388606D02*
X900875Y390525D01*
X900875Y381889D01*
X903273Y381889D02*
X898476Y381889D01*
X907391Y381889D02*
X909790Y381889D01*
X909887Y381891D01*
X909983Y381897D01*
X910079Y381906D01*
X910175Y381920D01*
X910270Y381937D01*
X910364Y381959D01*
X910457Y381984D01*
X910550Y382012D01*
X910641Y382045D01*
X910730Y382081D01*
X910818Y382121D01*
X910905Y382164D01*
X910990Y382210D01*
X911072Y382260D01*
X911153Y382314D01*
X911231Y382370D01*
X911307Y382430D01*
X911381Y382492D01*
X911452Y382558D01*
X911520Y382626D01*
X911586Y382697D01*
X911648Y382771D01*
X911708Y382847D01*
X911764Y382925D01*
X911818Y383006D01*
X911868Y383089D01*
X911914Y383173D01*
X911957Y383260D01*
X911997Y383348D01*
X912033Y383437D01*
X912066Y383528D01*
X912094Y383621D01*
X912119Y383714D01*
X912141Y383808D01*
X912158Y383903D01*
X912172Y383999D01*
X912181Y384095D01*
X912187Y384191D01*
X912189Y384288D01*
X912187Y384385D01*
X912181Y384481D01*
X912172Y384577D01*
X912158Y384673D01*
X912141Y384768D01*
X912119Y384862D01*
X912094Y384955D01*
X912066Y385048D01*
X912033Y385139D01*
X911997Y385228D01*
X911957Y385316D01*
X911914Y385403D01*
X911868Y385488D01*
X911818Y385570D01*
X911764Y385651D01*
X911708Y385729D01*
X911648Y385805D01*
X911586Y385879D01*
X911520Y385950D01*
X911452Y386018D01*
X911381Y386084D01*
X911307Y386146D01*
X911231Y386206D01*
X911153Y386262D01*
X911072Y386316D01*
X910990Y386366D01*
X910905Y386412D01*
X910818Y386455D01*
X910730Y386495D01*
X910641Y386531D01*
X910550Y386564D01*
X910457Y386592D01*
X910364Y386617D01*
X910270Y386639D01*
X910175Y386656D01*
X910079Y386670D01*
X909983Y386679D01*
X909887Y386685D01*
X909790Y386687D01*
X910270Y390525D02*
X907391Y390525D01*
X910270Y390525D02*
X910356Y390523D01*
X910442Y390517D01*
X910528Y390508D01*
X910613Y390494D01*
X910697Y390477D01*
X910781Y390456D01*
X910863Y390431D01*
X910944Y390403D01*
X911024Y390371D01*
X911103Y390335D01*
X911179Y390296D01*
X911254Y390253D01*
X911327Y390208D01*
X911398Y390159D01*
X911466Y390106D01*
X911533Y390051D01*
X911596Y389993D01*
X911657Y389932D01*
X911715Y389869D01*
X911770Y389802D01*
X911823Y389734D01*
X911872Y389663D01*
X911917Y389590D01*
X911960Y389515D01*
X911999Y389439D01*
X912035Y389360D01*
X912067Y389280D01*
X912095Y389199D01*
X912120Y389117D01*
X912141Y389033D01*
X912158Y388949D01*
X912172Y388864D01*
X912181Y388778D01*
X912187Y388692D01*
X912189Y388606D01*
X912187Y388520D01*
X912181Y388434D01*
X912172Y388348D01*
X912158Y388263D01*
X912141Y388179D01*
X912120Y388095D01*
X912095Y388013D01*
X912067Y387932D01*
X912035Y387852D01*
X911999Y387773D01*
X911960Y387697D01*
X911917Y387622D01*
X911872Y387549D01*
X911823Y387478D01*
X911770Y387410D01*
X911715Y387343D01*
X911657Y387280D01*
X911596Y387219D01*
X911533Y387161D01*
X911466Y387106D01*
X911398Y387053D01*
X911327Y387004D01*
X911254Y386959D01*
X911179Y386916D01*
X911103Y386877D01*
X911024Y386841D01*
X910944Y386809D01*
X910863Y386781D01*
X910781Y386756D01*
X910697Y386735D01*
X910613Y386718D01*
X910528Y386704D01*
X910442Y386695D01*
X910356Y386689D01*
X910270Y386687D01*
X908351Y386687D01*
D19*
X941705Y368300D03*
X887095Y368300D03*
D10*
X892810Y349250D02*
X892810Y336550D01*
X892810Y349250D02*
X892812Y349390D01*
X892818Y349530D01*
X892827Y349670D01*
X892841Y349809D01*
X892858Y349948D01*
X892879Y350086D01*
X892904Y350224D01*
X892933Y350361D01*
X892965Y350497D01*
X893002Y350632D01*
X893042Y350766D01*
X893085Y350899D01*
X893133Y351031D01*
X893183Y351162D01*
X893238Y351291D01*
X893296Y351418D01*
X893357Y351544D01*
X893422Y351668D01*
X893491Y351790D01*
X893562Y351910D01*
X893637Y352028D01*
X893715Y352145D01*
X893797Y352259D01*
X893881Y352370D01*
X893969Y352479D01*
X894059Y352586D01*
X894153Y352691D01*
X894249Y352792D01*
X894348Y352891D01*
X894449Y352987D01*
X894554Y353081D01*
X894661Y353171D01*
X894770Y353259D01*
X894881Y353343D01*
X894995Y353425D01*
X895112Y353503D01*
X895230Y353578D01*
X895350Y353649D01*
X895472Y353718D01*
X895596Y353783D01*
X895722Y353844D01*
X895849Y353902D01*
X895978Y353957D01*
X896109Y354007D01*
X896241Y354055D01*
X896374Y354098D01*
X896508Y354138D01*
X896643Y354175D01*
X896779Y354207D01*
X896916Y354236D01*
X897054Y354261D01*
X897192Y354282D01*
X897331Y354299D01*
X897470Y354313D01*
X897610Y354322D01*
X897750Y354328D01*
X897890Y354330D01*
X892810Y336550D02*
X892812Y336410D01*
X892818Y336270D01*
X892827Y336130D01*
X892841Y335991D01*
X892858Y335852D01*
X892879Y335714D01*
X892904Y335576D01*
X892933Y335439D01*
X892965Y335303D01*
X893002Y335168D01*
X893042Y335034D01*
X893085Y334901D01*
X893133Y334769D01*
X893183Y334638D01*
X893238Y334509D01*
X893296Y334382D01*
X893357Y334256D01*
X893422Y334132D01*
X893491Y334010D01*
X893562Y333890D01*
X893637Y333772D01*
X893715Y333655D01*
X893797Y333541D01*
X893881Y333430D01*
X893969Y333321D01*
X894059Y333214D01*
X894153Y333109D01*
X894249Y333008D01*
X894348Y332909D01*
X894449Y332813D01*
X894554Y332719D01*
X894661Y332629D01*
X894770Y332541D01*
X894881Y332457D01*
X894995Y332375D01*
X895112Y332297D01*
X895230Y332222D01*
X895350Y332151D01*
X895472Y332082D01*
X895596Y332017D01*
X895722Y331956D01*
X895849Y331898D01*
X895978Y331843D01*
X896109Y331793D01*
X896241Y331745D01*
X896374Y331702D01*
X896508Y331662D01*
X896643Y331625D01*
X896779Y331593D01*
X896916Y331564D01*
X897054Y331539D01*
X897192Y331518D01*
X897331Y331501D01*
X897470Y331487D01*
X897610Y331478D01*
X897750Y331472D01*
X897890Y331470D01*
X897890Y354330D02*
X930910Y354330D01*
X935990Y349250D02*
X935990Y336550D01*
X930910Y331470D02*
X897890Y331470D01*
X930910Y354330D02*
X931050Y354328D01*
X931190Y354322D01*
X931330Y354313D01*
X931469Y354299D01*
X931608Y354282D01*
X931746Y354261D01*
X931884Y354236D01*
X932021Y354207D01*
X932157Y354175D01*
X932292Y354138D01*
X932426Y354098D01*
X932559Y354055D01*
X932691Y354007D01*
X932822Y353957D01*
X932951Y353902D01*
X933078Y353844D01*
X933204Y353783D01*
X933328Y353718D01*
X933450Y353649D01*
X933570Y353578D01*
X933688Y353503D01*
X933805Y353425D01*
X933919Y353343D01*
X934030Y353259D01*
X934139Y353171D01*
X934246Y353081D01*
X934351Y352987D01*
X934452Y352891D01*
X934551Y352792D01*
X934647Y352691D01*
X934741Y352586D01*
X934831Y352479D01*
X934919Y352370D01*
X935003Y352259D01*
X935085Y352145D01*
X935163Y352028D01*
X935238Y351910D01*
X935309Y351790D01*
X935378Y351668D01*
X935443Y351544D01*
X935504Y351418D01*
X935562Y351291D01*
X935617Y351162D01*
X935667Y351031D01*
X935715Y350899D01*
X935758Y350766D01*
X935798Y350632D01*
X935835Y350497D01*
X935867Y350361D01*
X935896Y350224D01*
X935921Y350086D01*
X935942Y349948D01*
X935959Y349809D01*
X935973Y349670D01*
X935982Y349530D01*
X935988Y349390D01*
X935990Y349250D01*
X935990Y336550D02*
X935988Y336410D01*
X935982Y336270D01*
X935973Y336130D01*
X935959Y335991D01*
X935942Y335852D01*
X935921Y335714D01*
X935896Y335576D01*
X935867Y335439D01*
X935835Y335303D01*
X935798Y335168D01*
X935758Y335034D01*
X935715Y334901D01*
X935667Y334769D01*
X935617Y334638D01*
X935562Y334509D01*
X935504Y334382D01*
X935443Y334256D01*
X935378Y334132D01*
X935309Y334010D01*
X935238Y333890D01*
X935163Y333772D01*
X935085Y333655D01*
X935003Y333541D01*
X934919Y333430D01*
X934831Y333321D01*
X934741Y333214D01*
X934647Y333109D01*
X934551Y333008D01*
X934452Y332909D01*
X934351Y332813D01*
X934246Y332719D01*
X934139Y332629D01*
X934030Y332541D01*
X933919Y332457D01*
X933805Y332375D01*
X933688Y332297D01*
X933570Y332222D01*
X933450Y332151D01*
X933328Y332082D01*
X933204Y332017D01*
X933078Y331956D01*
X932951Y331898D01*
X932822Y331843D01*
X932691Y331793D01*
X932559Y331745D01*
X932426Y331702D01*
X932292Y331662D01*
X932157Y331625D01*
X932021Y331593D01*
X931884Y331564D01*
X931746Y331539D01*
X931608Y331518D01*
X931469Y331501D01*
X931330Y331487D01*
X931190Y331478D01*
X931050Y331472D01*
X930910Y331470D01*
D20*
X911352Y335280D02*
X911352Y350520D01*
X917702Y350520D02*
X917702Y335280D01*
D13*
X902335Y357505D02*
X899795Y357505D01*
X899695Y357507D01*
X899596Y357513D01*
X899496Y357523D01*
X899398Y357536D01*
X899299Y357554D01*
X899202Y357575D01*
X899106Y357600D01*
X899010Y357629D01*
X898916Y357662D01*
X898823Y357698D01*
X898732Y357738D01*
X898642Y357782D01*
X898554Y357829D01*
X898468Y357879D01*
X898384Y357933D01*
X898302Y357990D01*
X898223Y358050D01*
X898145Y358114D01*
X898071Y358180D01*
X897999Y358249D01*
X897930Y358321D01*
X897864Y358395D01*
X897800Y358473D01*
X897740Y358552D01*
X897683Y358634D01*
X897629Y358718D01*
X897579Y358804D01*
X897532Y358892D01*
X897488Y358982D01*
X897448Y359073D01*
X897412Y359166D01*
X897379Y359260D01*
X897350Y359356D01*
X897325Y359452D01*
X897304Y359549D01*
X897286Y359648D01*
X897273Y359746D01*
X897263Y359846D01*
X897257Y359945D01*
X897255Y360045D01*
X897255Y366395D01*
X897257Y366495D01*
X897263Y366594D01*
X897273Y366694D01*
X897286Y366792D01*
X897304Y366891D01*
X897325Y366988D01*
X897350Y367084D01*
X897379Y367180D01*
X897412Y367274D01*
X897448Y367367D01*
X897488Y367458D01*
X897532Y367548D01*
X897579Y367636D01*
X897629Y367722D01*
X897683Y367806D01*
X897740Y367888D01*
X897800Y367967D01*
X897864Y368045D01*
X897930Y368119D01*
X897999Y368191D01*
X898071Y368260D01*
X898145Y368326D01*
X898223Y368390D01*
X898302Y368450D01*
X898384Y368507D01*
X898468Y368561D01*
X898554Y368611D01*
X898642Y368658D01*
X898732Y368702D01*
X898823Y368742D01*
X898916Y368778D01*
X899010Y368811D01*
X899106Y368840D01*
X899202Y368865D01*
X899299Y368886D01*
X899398Y368904D01*
X899496Y368917D01*
X899596Y368927D01*
X899695Y368933D01*
X899795Y368935D01*
X902335Y368935D01*
X910310Y368936D02*
X910414Y368934D01*
X910519Y368928D01*
X910623Y368919D01*
X910726Y368906D01*
X910829Y368888D01*
X910931Y368868D01*
X911033Y368843D01*
X911133Y368815D01*
X911233Y368783D01*
X911331Y368747D01*
X911428Y368708D01*
X911523Y368666D01*
X911617Y368620D01*
X911709Y368570D01*
X911799Y368518D01*
X911887Y368462D01*
X911973Y368402D01*
X912057Y368340D01*
X912138Y368275D01*
X912217Y368207D01*
X912294Y368135D01*
X912367Y368062D01*
X912439Y367985D01*
X912507Y367906D01*
X912572Y367825D01*
X912634Y367741D01*
X912694Y367655D01*
X912750Y367567D01*
X912802Y367477D01*
X912852Y367385D01*
X912898Y367291D01*
X912940Y367196D01*
X912979Y367099D01*
X913015Y367001D01*
X913047Y366901D01*
X913075Y366801D01*
X913100Y366699D01*
X913120Y366597D01*
X913138Y366494D01*
X913151Y366391D01*
X913160Y366287D01*
X913166Y366182D01*
X913168Y366078D01*
X910310Y368935D02*
X910192Y368933D01*
X910073Y368927D01*
X909955Y368918D01*
X909838Y368905D01*
X909721Y368887D01*
X909604Y368867D01*
X909488Y368842D01*
X909373Y368814D01*
X909260Y368781D01*
X909147Y368746D01*
X909035Y368706D01*
X908925Y368664D01*
X908816Y368617D01*
X908708Y368567D01*
X908603Y368514D01*
X908499Y368457D01*
X908397Y368397D01*
X908297Y368334D01*
X908199Y368267D01*
X908103Y368198D01*
X908010Y368125D01*
X907919Y368049D01*
X907830Y367971D01*
X907744Y367889D01*
X907661Y367805D01*
X907580Y367719D01*
X907503Y367629D01*
X907428Y367538D01*
X907356Y367444D01*
X907287Y367347D01*
X907222Y367249D01*
X907159Y367148D01*
X907100Y367045D01*
X907044Y366941D01*
X906992Y366835D01*
X906943Y366727D01*
X906898Y366618D01*
X906856Y366507D01*
X906818Y366395D01*
X912215Y363856D02*
X912291Y363931D01*
X912366Y364010D01*
X912437Y364091D01*
X912506Y364175D01*
X912571Y364261D01*
X912633Y364349D01*
X912693Y364439D01*
X912749Y364531D01*
X912802Y364626D01*
X912851Y364722D01*
X912897Y364820D01*
X912940Y364919D01*
X912979Y365020D01*
X913014Y365122D01*
X913046Y365225D01*
X913074Y365329D01*
X913099Y365434D01*
X913120Y365541D01*
X913137Y365647D01*
X913150Y365754D01*
X913159Y365862D01*
X913165Y365970D01*
X913167Y366078D01*
X912215Y363855D02*
X906817Y357505D01*
X913167Y357505D01*
D10*
X976630Y393700D02*
X1080770Y393700D01*
X1080770Y552450D02*
X976630Y552450D01*
X1080770Y518160D02*
X1080770Y393700D01*
X1080770Y518160D02*
X1071880Y518160D01*
X1071880Y533400D01*
X1080770Y533400D01*
X1080770Y552450D01*
X976630Y518160D02*
X976630Y393700D01*
X976630Y518160D02*
X985520Y518160D01*
X985520Y533400D01*
X976630Y533400D01*
X976630Y552450D01*
D16*
X982980Y400050D02*
X1074420Y400050D01*
X1074420Y482600D01*
X982980Y482600D01*
X982980Y400050D01*
D10*
X1010666Y518160D02*
X1010671Y518603D01*
X1010688Y519045D01*
X1010715Y519487D01*
X1010753Y519928D01*
X1010802Y520368D01*
X1010861Y520806D01*
X1010932Y521243D01*
X1011013Y521678D01*
X1011104Y522111D01*
X1011206Y522542D01*
X1011319Y522970D01*
X1011443Y523395D01*
X1011576Y523817D01*
X1011720Y524235D01*
X1011874Y524650D01*
X1012039Y525061D01*
X1012213Y525468D01*
X1012397Y525871D01*
X1012592Y526268D01*
X1012795Y526661D01*
X1013009Y527049D01*
X1013232Y527431D01*
X1013464Y527808D01*
X1013705Y528179D01*
X1013956Y528544D01*
X1014215Y528903D01*
X1014483Y529255D01*
X1014760Y529601D01*
X1015044Y529939D01*
X1015338Y530271D01*
X1015639Y530595D01*
X1015948Y530912D01*
X1016265Y531221D01*
X1016589Y531522D01*
X1016921Y531816D01*
X1017259Y532100D01*
X1017605Y532377D01*
X1017957Y532645D01*
X1018316Y532904D01*
X1018681Y533155D01*
X1019052Y533396D01*
X1019429Y533628D01*
X1019811Y533851D01*
X1020199Y534065D01*
X1020592Y534268D01*
X1020989Y534463D01*
X1021392Y534647D01*
X1021799Y534821D01*
X1022210Y534986D01*
X1022625Y535140D01*
X1023043Y535284D01*
X1023465Y535417D01*
X1023890Y535541D01*
X1024318Y535654D01*
X1024749Y535756D01*
X1025182Y535847D01*
X1025617Y535928D01*
X1026054Y535999D01*
X1026492Y536058D01*
X1026932Y536107D01*
X1027373Y536145D01*
X1027815Y536172D01*
X1028257Y536189D01*
X1028700Y536194D01*
X1029143Y536189D01*
X1029585Y536172D01*
X1030027Y536145D01*
X1030468Y536107D01*
X1030908Y536058D01*
X1031346Y535999D01*
X1031783Y535928D01*
X1032218Y535847D01*
X1032651Y535756D01*
X1033082Y535654D01*
X1033510Y535541D01*
X1033935Y535417D01*
X1034357Y535284D01*
X1034775Y535140D01*
X1035190Y534986D01*
X1035601Y534821D01*
X1036008Y534647D01*
X1036411Y534463D01*
X1036808Y534268D01*
X1037201Y534065D01*
X1037589Y533851D01*
X1037971Y533628D01*
X1038348Y533396D01*
X1038719Y533155D01*
X1039084Y532904D01*
X1039443Y532645D01*
X1039795Y532377D01*
X1040141Y532100D01*
X1040479Y531816D01*
X1040811Y531522D01*
X1041135Y531221D01*
X1041452Y530912D01*
X1041761Y530595D01*
X1042062Y530271D01*
X1042356Y529939D01*
X1042640Y529601D01*
X1042917Y529255D01*
X1043185Y528903D01*
X1043444Y528544D01*
X1043695Y528179D01*
X1043936Y527808D01*
X1044168Y527431D01*
X1044391Y527049D01*
X1044605Y526661D01*
X1044808Y526268D01*
X1045003Y525871D01*
X1045187Y525468D01*
X1045361Y525061D01*
X1045526Y524650D01*
X1045680Y524235D01*
X1045824Y523817D01*
X1045957Y523395D01*
X1046081Y522970D01*
X1046194Y522542D01*
X1046296Y522111D01*
X1046387Y521678D01*
X1046468Y521243D01*
X1046539Y520806D01*
X1046598Y520368D01*
X1046647Y519928D01*
X1046685Y519487D01*
X1046712Y519045D01*
X1046729Y518603D01*
X1046734Y518160D01*
X1046729Y517717D01*
X1046712Y517275D01*
X1046685Y516833D01*
X1046647Y516392D01*
X1046598Y515952D01*
X1046539Y515514D01*
X1046468Y515077D01*
X1046387Y514642D01*
X1046296Y514209D01*
X1046194Y513778D01*
X1046081Y513350D01*
X1045957Y512925D01*
X1045824Y512503D01*
X1045680Y512085D01*
X1045526Y511670D01*
X1045361Y511259D01*
X1045187Y510852D01*
X1045003Y510449D01*
X1044808Y510052D01*
X1044605Y509659D01*
X1044391Y509271D01*
X1044168Y508889D01*
X1043936Y508512D01*
X1043695Y508141D01*
X1043444Y507776D01*
X1043185Y507417D01*
X1042917Y507065D01*
X1042640Y506719D01*
X1042356Y506381D01*
X1042062Y506049D01*
X1041761Y505725D01*
X1041452Y505408D01*
X1041135Y505099D01*
X1040811Y504798D01*
X1040479Y504504D01*
X1040141Y504220D01*
X1039795Y503943D01*
X1039443Y503675D01*
X1039084Y503416D01*
X1038719Y503165D01*
X1038348Y502924D01*
X1037971Y502692D01*
X1037589Y502469D01*
X1037201Y502255D01*
X1036808Y502052D01*
X1036411Y501857D01*
X1036008Y501673D01*
X1035601Y501499D01*
X1035190Y501334D01*
X1034775Y501180D01*
X1034357Y501036D01*
X1033935Y500903D01*
X1033510Y500779D01*
X1033082Y500666D01*
X1032651Y500564D01*
X1032218Y500473D01*
X1031783Y500392D01*
X1031346Y500321D01*
X1030908Y500262D01*
X1030468Y500213D01*
X1030027Y500175D01*
X1029585Y500148D01*
X1029143Y500131D01*
X1028700Y500126D01*
X1028257Y500131D01*
X1027815Y500148D01*
X1027373Y500175D01*
X1026932Y500213D01*
X1026492Y500262D01*
X1026054Y500321D01*
X1025617Y500392D01*
X1025182Y500473D01*
X1024749Y500564D01*
X1024318Y500666D01*
X1023890Y500779D01*
X1023465Y500903D01*
X1023043Y501036D01*
X1022625Y501180D01*
X1022210Y501334D01*
X1021799Y501499D01*
X1021392Y501673D01*
X1020989Y501857D01*
X1020592Y502052D01*
X1020199Y502255D01*
X1019811Y502469D01*
X1019429Y502692D01*
X1019052Y502924D01*
X1018681Y503165D01*
X1018316Y503416D01*
X1017957Y503675D01*
X1017605Y503943D01*
X1017259Y504220D01*
X1016921Y504504D01*
X1016589Y504798D01*
X1016265Y505099D01*
X1015948Y505408D01*
X1015639Y505725D01*
X1015338Y506049D01*
X1015044Y506381D01*
X1014760Y506719D01*
X1014483Y507065D01*
X1014215Y507417D01*
X1013956Y507776D01*
X1013705Y508141D01*
X1013464Y508512D01*
X1013232Y508889D01*
X1013009Y509271D01*
X1012795Y509659D01*
X1012592Y510052D01*
X1012397Y510449D01*
X1012213Y510852D01*
X1012039Y511259D01*
X1011874Y511670D01*
X1011720Y512085D01*
X1011576Y512503D01*
X1011443Y512925D01*
X1011319Y513350D01*
X1011206Y513778D01*
X1011104Y514209D01*
X1011013Y514642D01*
X1010932Y515077D01*
X1010861Y515514D01*
X1010802Y515952D01*
X1010753Y516392D01*
X1010715Y516833D01*
X1010688Y517275D01*
X1010671Y517717D01*
X1010666Y518160D01*
D11*
X991489Y470916D02*
X991489Y463804D01*
X991489Y470916D02*
X991491Y471048D01*
X991497Y471179D01*
X991507Y471311D01*
X991520Y471442D01*
X991538Y471572D01*
X991559Y471702D01*
X991584Y471832D01*
X991613Y471960D01*
X991646Y472088D01*
X991683Y472214D01*
X991723Y472340D01*
X991767Y472464D01*
X991815Y472587D01*
X991866Y472708D01*
X991921Y472828D01*
X991979Y472946D01*
X992041Y473062D01*
X992107Y473176D01*
X992175Y473289D01*
X992247Y473399D01*
X992322Y473507D01*
X992401Y473613D01*
X992482Y473717D01*
X992567Y473818D01*
X992654Y473916D01*
X992745Y474012D01*
X992838Y474105D01*
X992934Y474196D01*
X993032Y474283D01*
X993133Y474368D01*
X993237Y474449D01*
X993343Y474528D01*
X993451Y474603D01*
X993561Y474675D01*
X993674Y474743D01*
X993788Y474809D01*
X993904Y474871D01*
X994022Y474929D01*
X994142Y474984D01*
X994263Y475035D01*
X994386Y475083D01*
X994510Y475127D01*
X994636Y475167D01*
X994762Y475204D01*
X994890Y475237D01*
X995018Y475266D01*
X995148Y475291D01*
X995278Y475312D01*
X995408Y475330D01*
X995539Y475343D01*
X995671Y475353D01*
X995802Y475359D01*
X995934Y475361D01*
X996066Y475359D01*
X996197Y475353D01*
X996329Y475343D01*
X996460Y475330D01*
X996590Y475312D01*
X996720Y475291D01*
X996850Y475266D01*
X996978Y475237D01*
X997106Y475204D01*
X997232Y475167D01*
X997358Y475127D01*
X997482Y475083D01*
X997605Y475035D01*
X997726Y474984D01*
X997846Y474929D01*
X997964Y474871D01*
X998080Y474809D01*
X998194Y474743D01*
X998307Y474675D01*
X998417Y474603D01*
X998525Y474528D01*
X998631Y474449D01*
X998735Y474368D01*
X998836Y474283D01*
X998934Y474196D01*
X999030Y474105D01*
X999123Y474012D01*
X999214Y473916D01*
X999301Y473818D01*
X999386Y473717D01*
X999467Y473613D01*
X999546Y473507D01*
X999621Y473399D01*
X999693Y473289D01*
X999761Y473176D01*
X999827Y473062D01*
X999889Y472946D01*
X999947Y472828D01*
X1000002Y472708D01*
X1000053Y472587D01*
X1000101Y472464D01*
X1000145Y472340D01*
X1000185Y472214D01*
X1000222Y472088D01*
X1000255Y471960D01*
X1000284Y471832D01*
X1000309Y471702D01*
X1000330Y471572D01*
X1000348Y471442D01*
X1000361Y471311D01*
X1000371Y471179D01*
X1000377Y471048D01*
X1000379Y470916D01*
X1000379Y463804D01*
X1000377Y463672D01*
X1000371Y463541D01*
X1000361Y463409D01*
X1000348Y463278D01*
X1000330Y463148D01*
X1000309Y463018D01*
X1000284Y462888D01*
X1000255Y462760D01*
X1000222Y462632D01*
X1000185Y462506D01*
X1000145Y462380D01*
X1000101Y462256D01*
X1000053Y462133D01*
X1000002Y462012D01*
X999947Y461892D01*
X999889Y461774D01*
X999827Y461658D01*
X999761Y461544D01*
X999693Y461431D01*
X999621Y461321D01*
X999546Y461213D01*
X999467Y461107D01*
X999386Y461003D01*
X999301Y460902D01*
X999214Y460804D01*
X999123Y460708D01*
X999030Y460615D01*
X998934Y460524D01*
X998836Y460437D01*
X998735Y460352D01*
X998631Y460271D01*
X998525Y460192D01*
X998417Y460117D01*
X998307Y460045D01*
X998194Y459977D01*
X998080Y459911D01*
X997964Y459849D01*
X997846Y459791D01*
X997726Y459736D01*
X997605Y459685D01*
X997482Y459637D01*
X997358Y459593D01*
X997232Y459553D01*
X997106Y459516D01*
X996978Y459483D01*
X996850Y459454D01*
X996720Y459429D01*
X996590Y459408D01*
X996460Y459390D01*
X996329Y459377D01*
X996197Y459367D01*
X996066Y459361D01*
X995934Y459359D01*
X995802Y459361D01*
X995671Y459367D01*
X995539Y459377D01*
X995408Y459390D01*
X995278Y459408D01*
X995148Y459429D01*
X995018Y459454D01*
X994890Y459483D01*
X994762Y459516D01*
X994636Y459553D01*
X994510Y459593D01*
X994386Y459637D01*
X994263Y459685D01*
X994142Y459736D01*
X994022Y459791D01*
X993904Y459849D01*
X993788Y459911D01*
X993674Y459977D01*
X993561Y460045D01*
X993451Y460117D01*
X993343Y460192D01*
X993237Y460271D01*
X993133Y460352D01*
X993032Y460437D01*
X992934Y460524D01*
X992838Y460615D01*
X992745Y460708D01*
X992654Y460804D01*
X992567Y460902D01*
X992482Y461003D01*
X992401Y461107D01*
X992322Y461213D01*
X992247Y461321D01*
X992175Y461431D01*
X992107Y461544D01*
X992041Y461658D01*
X991979Y461774D01*
X991921Y461892D01*
X991866Y462012D01*
X991815Y462133D01*
X991767Y462256D01*
X991723Y462380D01*
X991683Y462506D01*
X991646Y462632D01*
X991613Y462760D01*
X991584Y462888D01*
X991559Y463018D01*
X991538Y463148D01*
X991520Y463278D01*
X991507Y463409D01*
X991497Y463541D01*
X991491Y463672D01*
X991489Y463804D01*
X998601Y462915D02*
X1002157Y459359D01*
X1006720Y459359D02*
X1011165Y459359D01*
X1011297Y459361D01*
X1011428Y459367D01*
X1011560Y459377D01*
X1011691Y459390D01*
X1011821Y459408D01*
X1011951Y459429D01*
X1012081Y459454D01*
X1012209Y459483D01*
X1012337Y459516D01*
X1012463Y459553D01*
X1012589Y459593D01*
X1012713Y459637D01*
X1012836Y459685D01*
X1012957Y459736D01*
X1013077Y459791D01*
X1013195Y459849D01*
X1013311Y459911D01*
X1013425Y459977D01*
X1013538Y460045D01*
X1013648Y460117D01*
X1013756Y460192D01*
X1013862Y460271D01*
X1013966Y460352D01*
X1014067Y460437D01*
X1014165Y460524D01*
X1014261Y460615D01*
X1014354Y460708D01*
X1014445Y460804D01*
X1014532Y460902D01*
X1014617Y461003D01*
X1014698Y461107D01*
X1014777Y461213D01*
X1014852Y461321D01*
X1014924Y461431D01*
X1014992Y461544D01*
X1015058Y461658D01*
X1015120Y461774D01*
X1015178Y461892D01*
X1015233Y462012D01*
X1015284Y462133D01*
X1015332Y462256D01*
X1015376Y462380D01*
X1015416Y462506D01*
X1015453Y462632D01*
X1015486Y462760D01*
X1015515Y462888D01*
X1015540Y463018D01*
X1015561Y463148D01*
X1015579Y463278D01*
X1015592Y463409D01*
X1015602Y463541D01*
X1015608Y463672D01*
X1015610Y463804D01*
X1015608Y463936D01*
X1015602Y464067D01*
X1015592Y464199D01*
X1015579Y464330D01*
X1015561Y464460D01*
X1015540Y464590D01*
X1015515Y464720D01*
X1015486Y464848D01*
X1015453Y464976D01*
X1015416Y465102D01*
X1015376Y465228D01*
X1015332Y465352D01*
X1015284Y465475D01*
X1015233Y465596D01*
X1015178Y465716D01*
X1015120Y465834D01*
X1015058Y465950D01*
X1014992Y466064D01*
X1014924Y466177D01*
X1014852Y466287D01*
X1014777Y466395D01*
X1014698Y466501D01*
X1014617Y466605D01*
X1014532Y466706D01*
X1014445Y466804D01*
X1014354Y466900D01*
X1014261Y466993D01*
X1014165Y467084D01*
X1014067Y467171D01*
X1013966Y467256D01*
X1013862Y467337D01*
X1013756Y467416D01*
X1013648Y467491D01*
X1013538Y467563D01*
X1013425Y467631D01*
X1013311Y467697D01*
X1013195Y467759D01*
X1013077Y467817D01*
X1012957Y467872D01*
X1012836Y467923D01*
X1012713Y467971D01*
X1012589Y468015D01*
X1012463Y468055D01*
X1012337Y468092D01*
X1012209Y468125D01*
X1012081Y468154D01*
X1011951Y468179D01*
X1011821Y468200D01*
X1011691Y468218D01*
X1011560Y468231D01*
X1011428Y468241D01*
X1011297Y468247D01*
X1011165Y468249D01*
X1012054Y475361D02*
X1006720Y475361D01*
X1012054Y475361D02*
X1012172Y475359D01*
X1012289Y475353D01*
X1012406Y475344D01*
X1012523Y475330D01*
X1012639Y475313D01*
X1012755Y475291D01*
X1012870Y475266D01*
X1012984Y475237D01*
X1013097Y475205D01*
X1013209Y475168D01*
X1013319Y475128D01*
X1013428Y475085D01*
X1013536Y475037D01*
X1013642Y474987D01*
X1013746Y474932D01*
X1013849Y474875D01*
X1013949Y474814D01*
X1014048Y474749D01*
X1014144Y474682D01*
X1014238Y474611D01*
X1014330Y474537D01*
X1014419Y474461D01*
X1014505Y474381D01*
X1014589Y474299D01*
X1014670Y474213D01*
X1014748Y474126D01*
X1014824Y474035D01*
X1014896Y473942D01*
X1014965Y473847D01*
X1015031Y473750D01*
X1015094Y473650D01*
X1015153Y473549D01*
X1015209Y473446D01*
X1015261Y473340D01*
X1015310Y473233D01*
X1015356Y473125D01*
X1015398Y473015D01*
X1015436Y472904D01*
X1015470Y472791D01*
X1015501Y472678D01*
X1015528Y472563D01*
X1015551Y472448D01*
X1015571Y472332D01*
X1015586Y472216D01*
X1015598Y472099D01*
X1015606Y471981D01*
X1015610Y471864D01*
X1015610Y471746D01*
X1015606Y471629D01*
X1015598Y471511D01*
X1015586Y471394D01*
X1015571Y471278D01*
X1015551Y471162D01*
X1015528Y471047D01*
X1015501Y470932D01*
X1015470Y470819D01*
X1015436Y470706D01*
X1015398Y470595D01*
X1015356Y470485D01*
X1015310Y470377D01*
X1015261Y470270D01*
X1015209Y470164D01*
X1015153Y470061D01*
X1015094Y469960D01*
X1015031Y469860D01*
X1014965Y469763D01*
X1014896Y469668D01*
X1014824Y469575D01*
X1014748Y469484D01*
X1014670Y469397D01*
X1014589Y469311D01*
X1014505Y469229D01*
X1014419Y469149D01*
X1014330Y469073D01*
X1014238Y468999D01*
X1014144Y468928D01*
X1014048Y468861D01*
X1013949Y468796D01*
X1013849Y468735D01*
X1013746Y468678D01*
X1013642Y468623D01*
X1013536Y468573D01*
X1013428Y468525D01*
X1013319Y468482D01*
X1013209Y468442D01*
X1013097Y468405D01*
X1012984Y468373D01*
X1012870Y468344D01*
X1012755Y468319D01*
X1012639Y468297D01*
X1012523Y468280D01*
X1012406Y468266D01*
X1012289Y468257D01*
X1012172Y468251D01*
X1012054Y468249D01*
X1008498Y468249D01*
D14*
X984758Y485648D02*
X987806Y494792D01*
X990854Y485648D01*
X990092Y487934D02*
X985520Y487934D01*
X994410Y492760D02*
X996950Y494792D01*
X996950Y485648D01*
X994410Y485648D02*
X999490Y485648D01*
X1003554Y493776D02*
X1003554Y494792D01*
X1008634Y494792D01*
X1006094Y485648D01*
X1012202Y485648D02*
X1012710Y485648D01*
X1012202Y485648D02*
X1012202Y486156D01*
X1012710Y486156D01*
X1012710Y485648D01*
X1011948Y483616D01*
X1016356Y485648D02*
X1019404Y485648D01*
X1019493Y485650D01*
X1019581Y485656D01*
X1019669Y485665D01*
X1019757Y485679D01*
X1019844Y485696D01*
X1019930Y485717D01*
X1020015Y485742D01*
X1020099Y485771D01*
X1020182Y485803D01*
X1020263Y485838D01*
X1020342Y485878D01*
X1020420Y485920D01*
X1020496Y485966D01*
X1020570Y486015D01*
X1020641Y486068D01*
X1020710Y486123D01*
X1020777Y486182D01*
X1020841Y486243D01*
X1020902Y486307D01*
X1020961Y486374D01*
X1021016Y486443D01*
X1021069Y486514D01*
X1021118Y486588D01*
X1021164Y486664D01*
X1021206Y486742D01*
X1021246Y486821D01*
X1021281Y486902D01*
X1021313Y486985D01*
X1021342Y487069D01*
X1021367Y487154D01*
X1021388Y487240D01*
X1021405Y487327D01*
X1021419Y487415D01*
X1021428Y487503D01*
X1021434Y487591D01*
X1021436Y487680D01*
X1021436Y488696D01*
X1021434Y488785D01*
X1021428Y488873D01*
X1021419Y488961D01*
X1021405Y489049D01*
X1021388Y489136D01*
X1021367Y489222D01*
X1021342Y489307D01*
X1021313Y489391D01*
X1021281Y489474D01*
X1021246Y489555D01*
X1021206Y489634D01*
X1021164Y489712D01*
X1021118Y489788D01*
X1021069Y489862D01*
X1021016Y489933D01*
X1020961Y490002D01*
X1020902Y490069D01*
X1020841Y490133D01*
X1020777Y490194D01*
X1020710Y490253D01*
X1020641Y490308D01*
X1020570Y490361D01*
X1020496Y490410D01*
X1020420Y490456D01*
X1020342Y490498D01*
X1020263Y490538D01*
X1020182Y490573D01*
X1020099Y490605D01*
X1020015Y490634D01*
X1019930Y490659D01*
X1019844Y490680D01*
X1019757Y490697D01*
X1019669Y490711D01*
X1019581Y490720D01*
X1019493Y490726D01*
X1019404Y490728D01*
X1016356Y490728D01*
X1016356Y494792D01*
X1021436Y494792D01*
X1025906Y491744D02*
X1025906Y485648D01*
X1025906Y491744D02*
X1030478Y491744D01*
X1030555Y491742D01*
X1030632Y491736D01*
X1030709Y491726D01*
X1030785Y491713D01*
X1030860Y491695D01*
X1030934Y491674D01*
X1031007Y491649D01*
X1031079Y491620D01*
X1031149Y491588D01*
X1031218Y491553D01*
X1031284Y491513D01*
X1031349Y491471D01*
X1031411Y491425D01*
X1031471Y491376D01*
X1031528Y491325D01*
X1031583Y491270D01*
X1031634Y491213D01*
X1031683Y491153D01*
X1031729Y491091D01*
X1031771Y491026D01*
X1031811Y490960D01*
X1031846Y490891D01*
X1031878Y490821D01*
X1031907Y490749D01*
X1031932Y490676D01*
X1031953Y490602D01*
X1031971Y490527D01*
X1031984Y490451D01*
X1031994Y490374D01*
X1032000Y490297D01*
X1032002Y490220D01*
X1032002Y485648D01*
X1028954Y485648D02*
X1028954Y491744D01*
X1036879Y491744D02*
X1036879Y485648D01*
X1036879Y491744D02*
X1041451Y491744D01*
X1041528Y491742D01*
X1041605Y491736D01*
X1041682Y491726D01*
X1041758Y491713D01*
X1041833Y491695D01*
X1041907Y491674D01*
X1041980Y491649D01*
X1042052Y491620D01*
X1042122Y491588D01*
X1042191Y491553D01*
X1042257Y491513D01*
X1042322Y491471D01*
X1042384Y491425D01*
X1042444Y491376D01*
X1042501Y491325D01*
X1042556Y491270D01*
X1042607Y491213D01*
X1042656Y491153D01*
X1042702Y491091D01*
X1042744Y491026D01*
X1042784Y490960D01*
X1042819Y490891D01*
X1042851Y490821D01*
X1042880Y490749D01*
X1042905Y490676D01*
X1042926Y490602D01*
X1042944Y490527D01*
X1042957Y490451D01*
X1042967Y490374D01*
X1042973Y490297D01*
X1042975Y490220D01*
X1042975Y485648D01*
X1039927Y485648D02*
X1039927Y491744D01*
D21*
X1054100Y362585D03*
X1028700Y362585D03*
X1003300Y362585D03*
D22*
X1003300Y379730D03*
X1028700Y379730D03*
X1054100Y379730D03*
D10*
X934720Y304800D02*
X894080Y304800D01*
X894080Y279400D01*
X934720Y279400D01*
X934720Y304800D01*
X920750Y292100D02*
X914400Y292100D01*
X904240Y285750D02*
X904240Y298450D01*
X914400Y292100D01*
X899160Y292100D01*
X904240Y285750D02*
X914400Y292100D01*
X914400Y285750D01*
X914400Y292100D02*
X914400Y298450D01*
D13*
X915924Y274955D02*
X915924Y263525D01*
X915924Y274955D02*
X919099Y274955D01*
X919210Y274953D01*
X919320Y274947D01*
X919431Y274938D01*
X919541Y274924D01*
X919650Y274907D01*
X919759Y274886D01*
X919867Y274861D01*
X919974Y274832D01*
X920080Y274800D01*
X920185Y274764D01*
X920288Y274724D01*
X920390Y274681D01*
X920491Y274634D01*
X920590Y274583D01*
X920687Y274530D01*
X920781Y274473D01*
X920874Y274412D01*
X920965Y274349D01*
X921054Y274282D01*
X921140Y274212D01*
X921223Y274139D01*
X921305Y274064D01*
X921383Y273986D01*
X921458Y273904D01*
X921531Y273821D01*
X921601Y273735D01*
X921668Y273646D01*
X921731Y273555D01*
X921792Y273462D01*
X921849Y273368D01*
X921902Y273271D01*
X921953Y273172D01*
X922000Y273071D01*
X922043Y272969D01*
X922083Y272866D01*
X922119Y272761D01*
X922151Y272655D01*
X922180Y272548D01*
X922205Y272440D01*
X922226Y272331D01*
X922243Y272222D01*
X922257Y272112D01*
X922266Y272001D01*
X922272Y271891D01*
X922274Y271780D01*
X922274Y266700D01*
X922272Y266589D01*
X922266Y266479D01*
X922257Y266368D01*
X922243Y266258D01*
X922226Y266149D01*
X922205Y266040D01*
X922180Y265932D01*
X922151Y265825D01*
X922119Y265719D01*
X922083Y265614D01*
X922043Y265511D01*
X922000Y265409D01*
X921953Y265308D01*
X921902Y265209D01*
X921849Y265112D01*
X921792Y265018D01*
X921731Y264925D01*
X921668Y264834D01*
X921601Y264745D01*
X921531Y264659D01*
X921458Y264576D01*
X921383Y264494D01*
X921305Y264416D01*
X921223Y264341D01*
X921140Y264268D01*
X921054Y264198D01*
X920965Y264131D01*
X920874Y264068D01*
X920781Y264007D01*
X920687Y263950D01*
X920590Y263897D01*
X920491Y263846D01*
X920390Y263799D01*
X920288Y263756D01*
X920185Y263716D01*
X920080Y263680D01*
X919974Y263648D01*
X919867Y263619D01*
X919759Y263594D01*
X919650Y263573D01*
X919541Y263556D01*
X919431Y263542D01*
X919320Y263533D01*
X919210Y263527D01*
X919099Y263525D01*
X915924Y263525D01*
X931228Y274956D02*
X931332Y274954D01*
X931437Y274948D01*
X931541Y274939D01*
X931644Y274926D01*
X931747Y274908D01*
X931849Y274888D01*
X931951Y274863D01*
X932051Y274835D01*
X932151Y274803D01*
X932249Y274767D01*
X932346Y274728D01*
X932441Y274686D01*
X932535Y274640D01*
X932627Y274590D01*
X932717Y274538D01*
X932805Y274482D01*
X932891Y274422D01*
X932975Y274360D01*
X933056Y274295D01*
X933135Y274227D01*
X933212Y274155D01*
X933285Y274082D01*
X933357Y274005D01*
X933425Y273926D01*
X933490Y273845D01*
X933552Y273761D01*
X933612Y273675D01*
X933668Y273587D01*
X933720Y273497D01*
X933770Y273405D01*
X933816Y273311D01*
X933858Y273216D01*
X933897Y273119D01*
X933933Y273021D01*
X933965Y272921D01*
X933993Y272821D01*
X934018Y272719D01*
X934038Y272617D01*
X934056Y272514D01*
X934069Y272411D01*
X934078Y272307D01*
X934084Y272202D01*
X934086Y272098D01*
X931228Y274955D02*
X931110Y274953D01*
X930991Y274947D01*
X930873Y274938D01*
X930756Y274925D01*
X930639Y274907D01*
X930522Y274887D01*
X930406Y274862D01*
X930291Y274834D01*
X930178Y274801D01*
X930065Y274766D01*
X929953Y274726D01*
X929843Y274684D01*
X929734Y274637D01*
X929626Y274587D01*
X929521Y274534D01*
X929417Y274477D01*
X929315Y274417D01*
X929215Y274354D01*
X929117Y274287D01*
X929021Y274218D01*
X928928Y274145D01*
X928837Y274069D01*
X928748Y273991D01*
X928662Y273909D01*
X928579Y273825D01*
X928498Y273739D01*
X928421Y273649D01*
X928346Y273558D01*
X928274Y273464D01*
X928205Y273367D01*
X928140Y273269D01*
X928077Y273168D01*
X928018Y273065D01*
X927962Y272961D01*
X927910Y272855D01*
X927861Y272747D01*
X927816Y272638D01*
X927774Y272527D01*
X927736Y272415D01*
X933133Y269876D02*
X933209Y269951D01*
X933284Y270030D01*
X933355Y270111D01*
X933424Y270195D01*
X933489Y270281D01*
X933551Y270369D01*
X933611Y270459D01*
X933667Y270551D01*
X933720Y270646D01*
X933769Y270742D01*
X933815Y270840D01*
X933858Y270939D01*
X933897Y271040D01*
X933932Y271142D01*
X933964Y271245D01*
X933992Y271349D01*
X934017Y271454D01*
X934038Y271561D01*
X934055Y271667D01*
X934068Y271774D01*
X934077Y271882D01*
X934083Y271990D01*
X934085Y272098D01*
X933133Y269875D02*
X927735Y263525D01*
X934085Y263525D01*
D23*
X928370Y292100D03*
D24*
X884555Y292100D03*
X944245Y292100D03*
D13*
X855000Y262600D02*
X855000Y206600D01*
X855000Y192600D01*
X925000Y192600D01*
X925000Y206600D01*
X925000Y262600D01*
X855000Y262600D01*
X855000Y206600D02*
X925000Y206600D01*
D14*
X906728Y269004D02*
X906728Y278092D01*
X906727Y269004D02*
X906725Y268905D01*
X906719Y268805D01*
X906710Y268706D01*
X906697Y268608D01*
X906680Y268510D01*
X906659Y268412D01*
X906634Y268316D01*
X906606Y268221D01*
X906574Y268127D01*
X906539Y268034D01*
X906500Y267942D01*
X906457Y267852D01*
X906412Y267764D01*
X906362Y267677D01*
X906310Y267593D01*
X906254Y267510D01*
X906196Y267430D01*
X906134Y267352D01*
X906069Y267277D01*
X906001Y267204D01*
X905931Y267134D01*
X905858Y267066D01*
X905783Y267001D01*
X905705Y266939D01*
X905625Y266881D01*
X905542Y266825D01*
X905458Y266773D01*
X905371Y266723D01*
X905283Y266678D01*
X905193Y266635D01*
X905101Y266596D01*
X905008Y266561D01*
X904914Y266529D01*
X904819Y266501D01*
X904723Y266476D01*
X904625Y266455D01*
X904527Y266438D01*
X904429Y266425D01*
X904330Y266416D01*
X904230Y266410D01*
X904131Y266408D01*
X902833Y266408D01*
X912001Y266408D02*
X915246Y266408D01*
X915359Y266410D01*
X915472Y266416D01*
X915585Y266426D01*
X915698Y266440D01*
X915810Y266457D01*
X915921Y266479D01*
X916031Y266504D01*
X916141Y266534D01*
X916249Y266567D01*
X916356Y266604D01*
X916462Y266644D01*
X916566Y266689D01*
X916669Y266737D01*
X916770Y266788D01*
X916869Y266843D01*
X916966Y266901D01*
X917061Y266963D01*
X917154Y267028D01*
X917244Y267096D01*
X917332Y267167D01*
X917418Y267242D01*
X917501Y267319D01*
X917581Y267399D01*
X917658Y267482D01*
X917733Y267568D01*
X917804Y267656D01*
X917872Y267746D01*
X917937Y267839D01*
X917999Y267934D01*
X918057Y268031D01*
X918112Y268130D01*
X918163Y268231D01*
X918211Y268334D01*
X918256Y268438D01*
X918296Y268544D01*
X918333Y268651D01*
X918366Y268759D01*
X918396Y268869D01*
X918421Y268979D01*
X918443Y269090D01*
X918460Y269202D01*
X918474Y269315D01*
X918484Y269428D01*
X918490Y269541D01*
X918492Y269654D01*
X918490Y269767D01*
X918484Y269880D01*
X918474Y269993D01*
X918460Y270106D01*
X918443Y270218D01*
X918421Y270329D01*
X918396Y270439D01*
X918366Y270549D01*
X918333Y270657D01*
X918296Y270764D01*
X918256Y270870D01*
X918211Y270974D01*
X918163Y271077D01*
X918112Y271178D01*
X918057Y271277D01*
X917999Y271374D01*
X917937Y271469D01*
X917872Y271562D01*
X917804Y271652D01*
X917733Y271740D01*
X917658Y271826D01*
X917581Y271909D01*
X917501Y271989D01*
X917418Y272066D01*
X917332Y272141D01*
X917244Y272212D01*
X917154Y272280D01*
X917061Y272345D01*
X916966Y272407D01*
X916869Y272465D01*
X916770Y272520D01*
X916669Y272571D01*
X916566Y272619D01*
X916462Y272664D01*
X916356Y272704D01*
X916249Y272741D01*
X916141Y272774D01*
X916031Y272804D01*
X915921Y272829D01*
X915810Y272851D01*
X915698Y272868D01*
X915585Y272882D01*
X915472Y272892D01*
X915359Y272898D01*
X915246Y272900D01*
X915896Y278092D02*
X912001Y278092D01*
X915896Y278092D02*
X915997Y278090D01*
X916097Y278084D01*
X916197Y278074D01*
X916297Y278061D01*
X916396Y278043D01*
X916495Y278022D01*
X916592Y277997D01*
X916689Y277968D01*
X916784Y277935D01*
X916878Y277899D01*
X916970Y277859D01*
X917061Y277816D01*
X917150Y277769D01*
X917237Y277719D01*
X917323Y277665D01*
X917406Y277608D01*
X917486Y277548D01*
X917565Y277485D01*
X917641Y277418D01*
X917714Y277349D01*
X917784Y277277D01*
X917852Y277203D01*
X917917Y277126D01*
X917978Y277046D01*
X918037Y276964D01*
X918092Y276880D01*
X918144Y276794D01*
X918193Y276706D01*
X918238Y276616D01*
X918280Y276524D01*
X918318Y276431D01*
X918352Y276336D01*
X918383Y276241D01*
X918410Y276144D01*
X918433Y276046D01*
X918453Y275947D01*
X918468Y275847D01*
X918480Y275747D01*
X918488Y275647D01*
X918492Y275546D01*
X918492Y275446D01*
X918488Y275345D01*
X918480Y275245D01*
X918468Y275145D01*
X918453Y275045D01*
X918433Y274946D01*
X918410Y274848D01*
X918383Y274751D01*
X918352Y274656D01*
X918318Y274561D01*
X918280Y274468D01*
X918238Y274376D01*
X918193Y274286D01*
X918144Y274198D01*
X918092Y274112D01*
X918037Y274028D01*
X917978Y273946D01*
X917917Y273866D01*
X917852Y273789D01*
X917784Y273715D01*
X917714Y273643D01*
X917641Y273574D01*
X917565Y273507D01*
X917486Y273444D01*
X917406Y273384D01*
X917323Y273327D01*
X917237Y273273D01*
X917150Y273223D01*
X917061Y273176D01*
X916970Y273133D01*
X916878Y273093D01*
X916784Y273057D01*
X916689Y273024D01*
X916592Y272995D01*
X916495Y272970D01*
X916396Y272949D01*
X916297Y272931D01*
X916197Y272918D01*
X916097Y272908D01*
X915997Y272902D01*
X915896Y272900D01*
X915896Y272899D02*
X913299Y272899D01*
D13*
X956600Y262600D02*
X956600Y206600D01*
X956600Y192600D01*
X1026600Y192600D01*
X1026600Y206600D01*
X1026600Y262600D01*
X956600Y262600D01*
X956600Y206600D02*
X1026600Y206600D01*
D14*
X1008328Y269004D02*
X1008328Y278092D01*
X1008327Y269004D02*
X1008325Y268905D01*
X1008319Y268805D01*
X1008310Y268706D01*
X1008297Y268608D01*
X1008280Y268510D01*
X1008259Y268412D01*
X1008234Y268316D01*
X1008206Y268221D01*
X1008174Y268127D01*
X1008139Y268034D01*
X1008100Y267942D01*
X1008057Y267852D01*
X1008012Y267764D01*
X1007962Y267677D01*
X1007910Y267593D01*
X1007854Y267510D01*
X1007796Y267430D01*
X1007734Y267352D01*
X1007669Y267277D01*
X1007601Y267204D01*
X1007531Y267134D01*
X1007458Y267066D01*
X1007383Y267001D01*
X1007305Y266939D01*
X1007225Y266881D01*
X1007142Y266825D01*
X1007058Y266773D01*
X1006971Y266723D01*
X1006883Y266678D01*
X1006793Y266635D01*
X1006701Y266596D01*
X1006608Y266561D01*
X1006514Y266529D01*
X1006419Y266501D01*
X1006323Y266476D01*
X1006225Y266455D01*
X1006127Y266438D01*
X1006029Y266425D01*
X1005930Y266416D01*
X1005830Y266410D01*
X1005731Y266408D01*
X1004433Y266408D01*
X1013601Y269004D02*
X1016197Y278092D01*
X1013601Y269004D02*
X1020092Y269004D01*
X1018145Y271601D02*
X1018145Y266408D01*
D12*
X687090Y113150D02*
X532110Y113150D01*
X687090Y113150D02*
X687090Y90050D01*
X532110Y90050D01*
X532110Y113150D01*
D13*
X545959Y87249D02*
X541655Y83806D01*
X545959Y87249D02*
X545959Y71755D01*
X541655Y71755D02*
X550263Y71755D01*
D14*
X526542Y89408D02*
X514858Y97197D01*
X514858Y89408D02*
X526542Y97197D01*
X526542Y101487D02*
X526542Y105382D01*
X526540Y105481D01*
X526534Y105581D01*
X526525Y105680D01*
X526512Y105778D01*
X526495Y105876D01*
X526474Y105974D01*
X526449Y106070D01*
X526421Y106165D01*
X526389Y106259D01*
X526354Y106352D01*
X526315Y106444D01*
X526272Y106534D01*
X526227Y106622D01*
X526177Y106709D01*
X526125Y106793D01*
X526069Y106876D01*
X526011Y106956D01*
X525949Y107034D01*
X525884Y107109D01*
X525816Y107182D01*
X525746Y107252D01*
X525673Y107320D01*
X525598Y107385D01*
X525520Y107447D01*
X525440Y107505D01*
X525357Y107561D01*
X525273Y107613D01*
X525186Y107663D01*
X525098Y107708D01*
X525008Y107751D01*
X524916Y107790D01*
X524823Y107825D01*
X524729Y107857D01*
X524634Y107885D01*
X524538Y107910D01*
X524440Y107931D01*
X524342Y107948D01*
X524244Y107961D01*
X524145Y107970D01*
X524045Y107976D01*
X523946Y107978D01*
X522647Y107978D01*
X522548Y107976D01*
X522448Y107970D01*
X522349Y107961D01*
X522251Y107948D01*
X522153Y107931D01*
X522055Y107910D01*
X521959Y107885D01*
X521864Y107857D01*
X521770Y107825D01*
X521677Y107790D01*
X521585Y107751D01*
X521495Y107708D01*
X521407Y107663D01*
X521320Y107613D01*
X521236Y107561D01*
X521153Y107505D01*
X521073Y107447D01*
X520995Y107385D01*
X520920Y107320D01*
X520847Y107252D01*
X520777Y107182D01*
X520709Y107109D01*
X520644Y107034D01*
X520582Y106956D01*
X520524Y106876D01*
X520468Y106793D01*
X520416Y106709D01*
X520366Y106622D01*
X520321Y106534D01*
X520278Y106444D01*
X520239Y106352D01*
X520204Y106259D01*
X520172Y106165D01*
X520144Y106070D01*
X520119Y105974D01*
X520098Y105876D01*
X520081Y105778D01*
X520068Y105680D01*
X520059Y105581D01*
X520053Y105481D01*
X520051Y105382D01*
X520051Y101487D01*
X514858Y101487D01*
X514858Y107978D01*
D13*
X753400Y206600D02*
X753400Y262600D01*
X753400Y206600D02*
X753400Y192600D01*
X823400Y192600D01*
X823400Y206600D01*
X823400Y262600D01*
X753400Y262600D01*
X753400Y206600D02*
X823400Y206600D01*
D14*
X805128Y269004D02*
X805128Y278092D01*
X805127Y269004D02*
X805125Y268905D01*
X805119Y268805D01*
X805110Y268706D01*
X805097Y268608D01*
X805080Y268510D01*
X805059Y268412D01*
X805034Y268316D01*
X805006Y268221D01*
X804974Y268127D01*
X804939Y268034D01*
X804900Y267942D01*
X804857Y267852D01*
X804812Y267764D01*
X804762Y267677D01*
X804710Y267593D01*
X804654Y267510D01*
X804596Y267430D01*
X804534Y267352D01*
X804469Y267277D01*
X804401Y267204D01*
X804331Y267134D01*
X804258Y267066D01*
X804183Y267001D01*
X804105Y266939D01*
X804025Y266881D01*
X803942Y266825D01*
X803858Y266773D01*
X803771Y266723D01*
X803683Y266678D01*
X803593Y266635D01*
X803501Y266596D01*
X803408Y266561D01*
X803314Y266529D01*
X803219Y266501D01*
X803123Y266476D01*
X803025Y266455D01*
X802927Y266438D01*
X802829Y266425D01*
X802730Y266416D01*
X802630Y266410D01*
X802531Y266408D01*
X801233Y266408D01*
X810401Y275496D02*
X813646Y278092D01*
X813646Y266408D01*
X810401Y266408D02*
X816892Y266408D01*
D12*
X481450Y278110D02*
X481450Y331490D01*
X481450Y278110D02*
X458350Y278110D01*
X458350Y331490D01*
X481450Y331490D01*
D13*
X443498Y313337D02*
X440055Y317641D01*
X455549Y317641D01*
X455549Y313337D02*
X455549Y321945D01*
D14*
X457708Y337058D02*
X465497Y348742D01*
X457708Y348742D02*
X465497Y337058D01*
X469787Y343549D02*
X473682Y343549D01*
X473781Y343547D01*
X473881Y343541D01*
X473980Y343532D01*
X474078Y343519D01*
X474176Y343502D01*
X474274Y343481D01*
X474370Y343456D01*
X474465Y343428D01*
X474559Y343396D01*
X474652Y343361D01*
X474744Y343322D01*
X474834Y343279D01*
X474922Y343234D01*
X475009Y343184D01*
X475093Y343132D01*
X475176Y343076D01*
X475256Y343018D01*
X475334Y342956D01*
X475409Y342891D01*
X475482Y342823D01*
X475552Y342753D01*
X475620Y342680D01*
X475685Y342605D01*
X475747Y342527D01*
X475805Y342447D01*
X475861Y342364D01*
X475913Y342280D01*
X475963Y342193D01*
X476008Y342105D01*
X476051Y342015D01*
X476090Y341923D01*
X476125Y341830D01*
X476157Y341736D01*
X476185Y341641D01*
X476210Y341545D01*
X476231Y341447D01*
X476248Y341349D01*
X476261Y341251D01*
X476270Y341152D01*
X476276Y341052D01*
X476278Y340953D01*
X476278Y340304D01*
X476279Y340304D02*
X476277Y340191D01*
X476271Y340078D01*
X476261Y339965D01*
X476247Y339852D01*
X476230Y339740D01*
X476208Y339629D01*
X476183Y339519D01*
X476153Y339409D01*
X476120Y339301D01*
X476083Y339194D01*
X476043Y339088D01*
X475998Y338984D01*
X475950Y338881D01*
X475899Y338780D01*
X475844Y338681D01*
X475786Y338584D01*
X475724Y338489D01*
X475659Y338396D01*
X475591Y338306D01*
X475520Y338218D01*
X475445Y338132D01*
X475368Y338049D01*
X475288Y337969D01*
X475205Y337892D01*
X475119Y337817D01*
X475031Y337746D01*
X474941Y337678D01*
X474848Y337613D01*
X474753Y337551D01*
X474656Y337493D01*
X474557Y337438D01*
X474456Y337387D01*
X474353Y337339D01*
X474249Y337294D01*
X474143Y337254D01*
X474036Y337217D01*
X473928Y337184D01*
X473818Y337154D01*
X473708Y337129D01*
X473597Y337107D01*
X473485Y337090D01*
X473372Y337076D01*
X473259Y337066D01*
X473146Y337060D01*
X473033Y337058D01*
X472920Y337060D01*
X472807Y337066D01*
X472694Y337076D01*
X472581Y337090D01*
X472469Y337107D01*
X472358Y337129D01*
X472248Y337154D01*
X472138Y337184D01*
X472030Y337217D01*
X471923Y337254D01*
X471817Y337294D01*
X471713Y337339D01*
X471610Y337387D01*
X471509Y337438D01*
X471410Y337493D01*
X471313Y337551D01*
X471218Y337613D01*
X471125Y337678D01*
X471035Y337746D01*
X470947Y337817D01*
X470861Y337892D01*
X470778Y337969D01*
X470698Y338049D01*
X470621Y338132D01*
X470546Y338218D01*
X470475Y338306D01*
X470407Y338396D01*
X470342Y338489D01*
X470280Y338584D01*
X470222Y338681D01*
X470167Y338780D01*
X470116Y338881D01*
X470068Y338984D01*
X470023Y339088D01*
X469983Y339194D01*
X469946Y339301D01*
X469913Y339409D01*
X469883Y339519D01*
X469858Y339629D01*
X469836Y339740D01*
X469819Y339852D01*
X469805Y339965D01*
X469795Y340078D01*
X469789Y340191D01*
X469787Y340304D01*
X469787Y343549D01*
X469789Y343692D01*
X469795Y343835D01*
X469805Y343978D01*
X469819Y344120D01*
X469836Y344262D01*
X469858Y344404D01*
X469883Y344545D01*
X469913Y344685D01*
X469946Y344824D01*
X469983Y344962D01*
X470024Y345099D01*
X470068Y345235D01*
X470117Y345370D01*
X470169Y345503D01*
X470224Y345635D01*
X470284Y345765D01*
X470347Y345894D01*
X470413Y346021D01*
X470483Y346145D01*
X470556Y346268D01*
X470633Y346389D01*
X470713Y346508D01*
X470796Y346624D01*
X470882Y346739D01*
X470971Y346850D01*
X471064Y346960D01*
X471159Y347066D01*
X471258Y347170D01*
X471359Y347271D01*
X471463Y347370D01*
X471569Y347465D01*
X471679Y347558D01*
X471790Y347647D01*
X471905Y347733D01*
X472021Y347816D01*
X472140Y347896D01*
X472261Y347973D01*
X472383Y348046D01*
X472508Y348116D01*
X472635Y348182D01*
X472764Y348245D01*
X472894Y348305D01*
X473026Y348360D01*
X473159Y348412D01*
X473294Y348461D01*
X473430Y348505D01*
X473567Y348546D01*
X473705Y348583D01*
X473844Y348616D01*
X473984Y348646D01*
X474125Y348671D01*
X474267Y348693D01*
X474409Y348710D01*
X474551Y348724D01*
X474694Y348734D01*
X474837Y348740D01*
X474980Y348742D01*
M02*
