G04 EAGLE Gerber X2 export*
%TF.Part,Single*%
%TF.FileFunction,Soldermask,Top,1*%
%TF.FilePolarity,Negative*%
%TF.GenerationSoftware,Autodesk,EAGLE,8.7.1*%
%TF.CreationDate,2020-07-24T08:34:06Z*%
G75*
%MOMM*%
%FSLAX34Y34*%
%LPD*%
%AMOC8*
5,1,8,0,0,1.08239X$1,22.5*%
G01*
%ADD10C,1.524000*%
%ADD11P,1.852186X8X112.500000*%
%ADD12P,2.034460X8X112.500000*%
%ADD13C,1.320800*%
%ADD14R,2.453200X2.453200*%
%ADD15C,1.701200*%
%ADD16R,1.701200X1.701200*%
%ADD17P,1.852186X8X202.500000*%
%ADD18P,2.034460X8X22.500000*%
%ADD19P,1.759533X8X22.500000*%
%ADD20C,1.879600*%
%ADD21C,3.505200*%
%ADD22C,2.133600*%
%ADD23C,2.387600*%
%ADD24P,1.852186X8X22.500000*%
%ADD25P,1.852186X8X292.500000*%


D10*
X596900Y399796D02*
X596900Y413004D01*
X622300Y413004D02*
X622300Y399796D01*
X647700Y399796D02*
X647700Y413004D01*
X673100Y413004D02*
X673100Y399796D01*
X698500Y399796D02*
X698500Y413004D01*
X723900Y413004D02*
X723900Y399796D01*
X749300Y399796D02*
X749300Y413004D01*
X774700Y413004D02*
X774700Y399796D01*
X800100Y399796D02*
X800100Y413004D01*
X825500Y413004D02*
X825500Y399796D01*
X850900Y399796D02*
X850900Y413004D01*
X876300Y413004D02*
X876300Y399796D01*
X901700Y399796D02*
X901700Y413004D01*
X927100Y413004D02*
X927100Y399796D01*
X927100Y475996D02*
X927100Y489204D01*
X901700Y489204D02*
X901700Y475996D01*
X876300Y475996D02*
X876300Y489204D01*
X850900Y489204D02*
X850900Y475996D01*
X825500Y475996D02*
X825500Y489204D01*
X800100Y489204D02*
X800100Y475996D01*
X774700Y475996D02*
X774700Y489204D01*
X749300Y489204D02*
X749300Y475996D01*
X723900Y475996D02*
X723900Y489204D01*
X698500Y489204D02*
X698500Y475996D01*
X673100Y475996D02*
X673100Y489204D01*
X647700Y489204D02*
X647700Y475996D01*
X622300Y475996D02*
X622300Y489204D01*
X596900Y489204D02*
X596900Y475996D01*
D11*
X469900Y381000D03*
X469900Y406400D03*
X469900Y431800D03*
X469900Y457200D03*
X469900Y482600D03*
X469900Y508000D03*
D12*
X571500Y368300D03*
X571500Y444500D03*
D13*
X774700Y361188D02*
X774700Y350012D01*
X825500Y350012D02*
X825500Y361188D01*
D14*
X632300Y256300D03*
D11*
X469900Y127000D03*
X469900Y152400D03*
X469900Y177800D03*
X469900Y203200D03*
X469900Y228600D03*
X469900Y254000D03*
D15*
X822600Y539000D03*
X777600Y539000D03*
X822600Y604000D03*
D16*
X777600Y604000D03*
D15*
X746400Y539000D03*
X701400Y539000D03*
X746400Y604000D03*
D16*
X701400Y604000D03*
D15*
X670200Y539000D03*
X625200Y539000D03*
X670200Y604000D03*
D16*
X625200Y604000D03*
D15*
X594000Y539000D03*
X549000Y539000D03*
X594000Y604000D03*
D16*
X549000Y604000D03*
D12*
X850900Y533400D03*
X850900Y609600D03*
X876300Y533400D03*
X876300Y609600D03*
X901700Y533400D03*
X901700Y609600D03*
X927100Y533400D03*
X927100Y609600D03*
D17*
X685800Y342900D03*
X660400Y342900D03*
X685800Y368300D03*
X660400Y368300D03*
D12*
X952500Y406400D03*
X952500Y482600D03*
D18*
X876300Y368300D03*
X952500Y368300D03*
D19*
X901700Y342900D03*
X927100Y342900D03*
D20*
X1003300Y334518D02*
X1003300Y351282D01*
X1028700Y351282D02*
X1028700Y334518D01*
X1054100Y334518D02*
X1054100Y351282D01*
D21*
X1028700Y518160D03*
D22*
X863600Y292100D03*
X965200Y292100D03*
D23*
X907000Y228600D03*
X872000Y228600D03*
X1008600Y228600D03*
X973600Y228600D03*
D24*
X546100Y101600D03*
X571500Y101600D03*
X596900Y101600D03*
X622300Y101600D03*
X647700Y101600D03*
X673100Y101600D03*
D23*
X805400Y228600D03*
X770400Y228600D03*
D25*
X469900Y317500D03*
X469900Y292100D03*
M02*
